<?xml version="1.0" standalone="no"?>
<!DOCTYPE svg PUBLIC "-//W3C//DTD SVG 1.1//EN" "http://www.w3.org/Graphics/SVG/1.1/DTD/svg11.dtd" >
<svg>
<metadata>
Created by FontForge 20090914 at Sun Oct  9 04:26:49 2011
 By www-data
2007 Jan Maack published by FSI FontShop International GmbH
</metadata>
<defs>
<font id="Speak-Light" horiz-adv-x="488" >
  <font-face 
    font-family="Speak-Light"
    font-weight="350"
    font-stretch="normal"
    units-per-em="1000"
    panose-1="2 0 5 3 2 0 0 2 0 3"
    ascent="752"
    descent="-248"
    x-height="442.999"
    cap-height="639"
    bbox="-147.003 -248 950.998 874.001"
    underline-thickness="12"
    underline-position="-88"
    unicode-range="U+0020-U+FB02"
  />
<missing-glyph horiz-adv-x="532" 
d="M55 0v639h422v-639h-422zM463 625h-394v-611h394v611z" />
    <glyph glyph-name=".notdef" horiz-adv-x="532" 
d="M55 0v639h422v-639h-422zM463 625h-394v-611h394v611z" />
    <glyph glyph-name="space" unicode=" " horiz-adv-x="350" 
 />
    <glyph glyph-name="exclam" unicode="!" horiz-adv-x="224" 
d="M105 632c0 4.66699 2.33301 7 7 7s7 -2.33301 7 -7v-484c0 -4.66699 -2.33301 -7 -7 -7s-7 2.33301 -7 7v484zM105 37c0 4.66699 2.33301 7 7 7s7 -2.33301 7 -7v-37c0 -4.66699 -2.33301 -7 -7 -7s-7 2.33301 -7 7v37z" />
    <glyph glyph-name="quotedbl" unicode="&#x22;" horiz-adv-x="290" 
d="M85 631c0 4.66699 2.33301 7 7 7s7 -2.33301 7 -7v-179c0 -4.66699 -2.33301 -7 -7 -7s-7 2.33301 -7 7v179zM191 631c0 4.66699 2.33301 7 7 7s7 -2.33301 7 -7v-179c0 -4.66699 -2.33301 -7 -7 -7s-7 2.33301 -7 7v179z" />
    <glyph glyph-name="numbersign" unicode="#" horiz-adv-x="588" 
d="M359 158l-22 -152.001c-1.33301 -4 -3.66602 -6 -6.99902 -6c-4 0 -6 1.66699 -6 5c0 0.666992 0.166992 2.33398 0.5 5.00098s1.16602 9 2.49902 19l6 45c2.66699 20 6.66699 48 12 84h-141l-21 -152c-1.33301 -4 -3.33301 -6 -6 -6c-4.66699 0 -7 2.66699 -7 8l21 150
h-79c-4.66699 0 -7 2.33301 -7 7s2.33301 7 7 7h81l21 152h-79c-4.66699 0 -7 2.33301 -7 7s2.66699 7 8 7h80l22 157c0.666992 4 3 6 7 6s6 -2.66699 6 -8l-21 -155h141l22 157c0 4 2 6 6 6c4.66699 0 7 -2 7 -6l-22 -157h92c4.66699 0 7 -2.33301 7 -7s-2.33301 -7 -7 -7
h-94l-21 -152h92c4.66699 0 7 -2.33301 7 -7s-2.33301 -7 -7 -7h-94zM369 323.999h-141l-22 -152h141z" />
    <glyph glyph-name="dollar" unicode="$" horiz-adv-x="483" 
d="M253 -5c-7.33301 -0.666992 -12.667 -0.995117 -16 -0.995117h-6c-19.333 0 -37.333 2.16699 -54 6.5s-31.834 9.66602 -45.501 15.999s-25.834 13.166 -36.501 20.499l-27 19c-2 2 -3 4.33301 -3 7c0 4 2 6 6 6c1.33301 0 2.5 -0.333008 3.5 -1
s2.16699 -1.33398 3.5 -2.00098c7.33301 -5.33301 16 -11.333 26 -18s21.333 -13 34 -19s26.667 -11 42 -15s32.333 -6 51 -6c54 0 96.333 13.667 127 41s46 64.666 46 111.999c0 30.667 -7.83301 55.834 -23.5 75.501s-35.334 36.5 -59.001 50.5s-49.334 26.667 -77.001 38
s-53.334 24.166 -77.001 38.499s-43.334 32 -59.001 53s-23.5 48.167 -23.5 81.5c0 22 4.66699 42 14 60s21.833 33.333 37.5 46s33.5 22.334 53.5 29.001s41 10 63 10v50c0 4.66699 2.33301 7 7 7s7 -2.33301 7 -7v-51c30 -1.33301 55.833 -7.33301 77.5 -18
s40.167 -21.667 55.5 -33c2 -1.33301 3 -3.33301 3 -6c0 -4.66699 -2.66699 -7 -8 -7c-1.33301 0 -2.33301 0.333008 -3 1c-14.667 11.333 -33.667 22.5 -57 33.5s-50.666 16.5 -81.999 16.5c-20 0 -39.167 -3 -57.5 -9s-34.666 -14.833 -48.999 -26.5
s-25.833 -25.5 -34.5 -41.5s-13 -34 -13 -54c0 -30.667 7.83301 -55.834 23.5 -75.501s35.334 -36.334 59.001 -50.001s49.334 -26.167 77.001 -37.5s53.334 -24.333 77.001 -39s43.334 -32.5 59.001 -53.5s23.5 -48.167 23.5 -81.5c0 -45.333 -13.667 -82.5 -41 -111.5
s-64 -46.5 -110 -52.5v-53c0 -4.66699 -2.33301 -7 -7 -7s-7 2.33301 -7 7v51z" />
    <glyph glyph-name="percent" unicode="%" horiz-adv-x="715" 
d="M572 642c0.666992 2 2.66699 3.00195 6 3.00195c4.66699 0 7 -2 7 -6c0 -0.666992 -0.666992 -2.33398 -2 -5.00098l-436 -632c-1.33301 -1.33301 -3 -2 -5 -2c-4.66699 0 -7 2 -7 6c0 1.33301 0.333008 2.66602 1 3.99902zM166 301.002
c-36 0 -64.001 14.833 -84.001 44.5s-30 71.167 -30 124.5c0 52 10.333 93.667 31 125s48.334 47 83.001 47c16.667 0 32 -4.16699 46 -12.5s26 -20 36 -35s17.833 -33 23.5 -54s8.5 -44.5 8.5 -70.5c0 -53.333 -10 -94.833 -30 -124.5s-48 -44.5 -84 -44.5z
M165.999 315.002c31.333 0 55.833 13.833 73.5 41.5s26.5 65.5 26.5 113.5c0 20 -2 39.333 -6 58s-10 35.5 -18 50.5s-18.333 27 -31 36s-27.667 13.5 -45 13.5c-30.667 0 -55 -14.333 -73 -43s-27 -67 -27 -115s8.83301 -85.833 26.5 -113.5s42.167 -41.5 73.5 -41.5z
M535.999 -2.99805c-36 0 -64.001 14.833 -84.001 44.5s-30 71.167 -30 124.5c0 52 10.333 93.667 31 125s48.334 47 83.001 47c16.667 0 32 -4.16699 46 -12.5s26 -20 36 -35s17.833 -33 23.5 -54s8.5 -44.5 8.5 -70.5c0 -53.333 -10 -94.833 -30 -124.5
s-48 -44.5 -84 -44.5zM535.998 11.002c31.333 0 55.833 13.833 73.5 41.5s26.5 65.5 26.5 113.5c0 20 -2 39.333 -6 58s-10 35.5 -18 50.5s-18.333 27 -31 36s-27.667 13.5 -45 13.5c-30.667 0 -55 -14.333 -73 -43s-27 -67 -27 -115s8.83301 -85.833 26.5 -113.5
s42.167 -41.5 73.5 -41.5z" />
    <glyph glyph-name="ampersand" unicode="&#x26;" horiz-adv-x="747" 
d="M469 104c20.667 25.333 36.334 50.834 47.001 76.501s16 47.5 16 65.5c0 4.66699 2.33301 7 7 7s7 -2.33301 7 -7c0 -18 -5.5 -41.167 -16.5 -69.5s-27.5 -56.166 -49.5 -83.499c19.333 -20 37.333 -35.333 54 -46s31.5 -18.5 44.5 -23.5s24.167 -7.83301 33.5 -8.5
s17 -1 23 -1c4.66699 0 7 -2.33301 7 -7s-2.33301 -7 -7 -7c-5.33301 0 -13 0.5 -23 1.5s-22.167 4 -36.5 9s-30.333 13.167 -48 24.5s-36.834 27.333 -57.501 48c-22 -25.333 -48.667 -46.5 -80 -63.5s-67 -25.5 -107 -25.5c-25.333 0 -49 4.5 -71 13.5
s-41 21.167 -57 36.5s-28.5 33.666 -37.5 54.999s-13.5 44.333 -13.5 69s4.33301 46 13 64s20 33.667 34 47s30 25 48 35s36.667 19.333 56 28c-5.33301 6.66699 -13 15.5 -23 26.5s-19.833 23.5 -29.5 37.5s-18.167 29 -25.5 45s-11 32 -11 48c0 20 3.5 38.5 10.5 55.5
s16.5 31.833 28.5 44.5s26.333 22.5 43 29.5s35 10.5 55 10.5c18.667 0 36.167 -3.66699 52.5 -11s30.5 -17.166 42.5 -29.499s21.5 -26.666 28.5 -42.999s10.5 -33.833 10.5 -52.5c0 -24 -4.66699 -44.333 -14 -61s-21.5 -31.334 -36.5 -44.001
s-32.167 -23.834 -51.5 -33.501s-39 -18.834 -59 -27.501zM268 348.001c19.333 10 38.333 19.332 57 27.999s35.167 18.667 49.5 30s26 24.666 35 39.999s13.5 34.333 13.5 57c0 16.667 -3.16699 32.334 -9.5 47.001s-15 27.5 -26 38.5s-23.667 19.833 -38 26.5
s-29.833 10 -46.5 10c-18 0 -34.5 -3.16699 -49.5 -9.5s-28 -15.166 -39 -26.499s-19.5 -24.666 -25.5 -39.999s-9 -32 -9 -50c0 -13.333 3 -26.833 9 -40.5s13.5 -27.334 22.5 -41.001s18.667 -26.5 29 -38.5zM264 330c-19.333 -8.66699 -37.834 -17.6699 -55.501 -27.0029
s-33.167 -20.166 -46.5 -32.499s-24 -26.666 -32 -42.999s-12 -36.166 -12 -59.499c0 -26 4.83301 -49 14.5 -69s22.334 -36.667 38.001 -50s33.334 -23.5 53.001 -30.5s39.5 -10.5 59.5 -10.5c38 0 71.667 8.16699 101 24.5s54.666 36.5 75.999 60.5z" />
    <glyph glyph-name="quotesingle" unicode="'" horiz-adv-x="184" 
d="M85 631c0 4.66699 2.33301 7 7 7s7 -2.33301 7 -7v-179c0 -4.66699 -2.33301 -7 -7 -7s-7 2.33301 -7 7v179z" />
    <glyph glyph-name="parenleft" unicode="(" horiz-adv-x="392" 
d="M287 -119c0 -4 -2.33496 -6.00098 -7.00195 -6.00098c-2.66699 0 -5.33398 1 -8.00098 3c-1.33301 0.666992 -6.33301 3.66699 -15 9s-19.167 14 -31.5 26s-25.666 27.5 -39.999 46.5s-27.333 42.5 -39 70.5s-21.5 60.833 -29.5 98.5s-12 80.834 -12 129.501
c0 52 4.16699 98.667 12.5 140s18.833 77.666 31.5 108.999s26.334 58.166 41.001 80.499s28.5 40.666 41.5 54.999s23.667 24.833 32 31.5s12.833 10 13.5 10c0.666992 0.666992 1.66699 1 3 1c4.66699 0 7 -2.33301 7 -7c0 -3.33301 -1 -5.33301 -3 -6l-13 -10
c-8 -6 -18.167 -16 -30.5 -30s-25.666 -31.667 -39.999 -53s-27.5 -47.333 -39.5 -78s-22 -66.167 -30 -106.5s-12 -85.833 -12 -136.5c0 -48.667 4 -91.667 12 -129s18 -69.666 30 -96.999s25 -50.166 39 -68.499s27.167 -33 39.5 -44s22.5 -19 30.5 -24
s12.333 -7.5 13 -7.5c2.66699 -1.33301 4 -3.66602 4 -6.99902z" />
    <glyph glyph-name="parenright" unicode=")" horiz-adv-x="392" 
d="M120 -122c-3.33301 -2 -6.00195 -3 -8.00195 -3c-4.66699 0 -7 2 -7 6c0 2.66699 1.66699 5 5 7l12 8c8.66699 4.66699 19.167 12.5 31.5 23.5s25.5 25.667 39.5 44s27 41.166 39 68.499s22 59.666 30 96.999s12 80.333 12 129c0 50.667 -4 96.167 -12 136.5
s-18.167 75.833 -30.5 106.5s-25.666 56.667 -39.999 78s-27.666 39 -39.999 53s-22.833 24 -31.5 30l-12 10c-2 0.666992 -3 2.66699 -3 6c0 4.66699 2.33301 7 7 7c2 0 3.33301 -0.333008 4 -1l13 -10c8.66699 -6.66699 19.5 -17.167 32.5 -31.5
s26.833 -32.666 41.5 -54.999s28.334 -49.166 41.001 -80.499s23.167 -67.666 31.5 -108.999s12.5 -88 12.5 -140c0 -48.667 -4 -91.834 -12 -129.501s-18 -70.5 -30 -98.5s-25 -51.5 -39 -70.5s-27.333 -34.5 -40 -46.5s-23.334 -20.667 -32.001 -26
s-13.667 -8.33301 -15 -9z" />
    <glyph glyph-name="asterisk" unicode="*" horiz-adv-x="421" 
d="M210 472l-85 -114.999c-2 -2 -4 -3 -6 -3c-4 0 -6 2 -6 6c0 1.33301 1 3.66602 3 6.99902l84 113l-130 48c-3.33301 1.33301 -5 3.66602 -5 6.99902c0 4 2 6 6 6c0.666992 0 3 -0.666992 7 -2l125 -46v135c0 4.66699 2.33301 7 7 7s7 -2.33301 7 -7v-135l126 47
c2 0.666992 4 1 6 1c4.66699 0 7 -2 7 -6s-2.33301 -6.66699 -7 -8l-128 -47l84 -113c2 -3.33301 3 -5.66602 3 -6.99902c0 -4.66699 -2.33301 -7 -7 -7c-1.33301 0 -3.33301 1.33301 -6 4z" />
    <glyph glyph-name="plus" unicode="+" horiz-adv-x="600" 
d="M307 219v-185c0 -4.66699 -2.33301 -7 -7 -7s-7 2.33301 -7 7v185h-184c-4.66699 0 -7 2.33301 -7 7s2.33301 7 7 7h184v184c0 4.66699 2.33301 7 7 7s7 -2.33301 7 -7v-184h184c4.66699 0 7 -2.33301 7 -7s-2.33301 -7 -7 -7h-184z" />
    <glyph glyph-name="comma" unicode="," horiz-adv-x="184" 
d="M99 33c0 -6 -0.333008 -14.8301 -1 -26.4971s-2.5 -24.334 -5.5 -38.001s-7.5 -27.5 -13.5 -41.5s-14 -26 -24 -36c-2 -2 -4 -3 -6 -3c-4.66699 0 -7 2 -7 6c0 2 1 4 3 6c9.33301 9.33301 16.666 20.666 21.999 33.999s9.33301 26.833 12 40.5
s4.33398 26.167 5.00098 37.5s1 19.666 1 24.999c0 4.66699 2.33301 7 7 7s7 -2.33301 7 -7v-4z" />
    <glyph glyph-name="hyphen" unicode="-" horiz-adv-x="466" 
d="M112 219c-4.66699 0 -7 2.33301 -7 7s2.33301 7 7 7h242c4.66699 0 7 -2.33301 7 -7s-2.33301 -7 -7 -7h-242z" />
    <glyph glyph-name="period" unicode="." horiz-adv-x="184" 
d="M85 37c0 4.66699 2.33301 7 7 7s7 -2.33301 7 -7v-36c0 -4.66699 -2.33301 -7 -7 -7s-7 2.33301 -7 7v36z" />
    <glyph glyph-name="slash" unicode="/" horiz-adv-x="394" 
d="M327 629c0.666992 2.66699 2.66602 4 5.99902 4c4 0 6 -2 6 -6c0 -0.666992 -0.666992 -3 -2 -7l-269 -715c-1.33301 -2.66699 -3.66602 -4 -6.99902 -4c-4 0 -6 2 -6 6c0 1.33301 0.166992 2.5 0.5 3.5s0.833008 2.16699 1.5 3.5z" />
    <glyph glyph-name="zero" unicode="0" horiz-adv-x="644" 
d="M322 -6c-68.667 0 -122.002 28.332 -160.002 84.999s-57 135.667 -57 237c0 50 5.16699 95.333 15.5 136s24.833 75.167 43.5 103.5s41.334 50.333 68.001 66s56.667 23.5 90 23.5c32.667 0 62.334 -7.83301 89.001 -23.5s49.5 -38 68.5 -67s33.667 -63.667 44 -104
s15.5 -85.166 15.5 -134.499c0 -101.333 -19 -180.333 -57 -237s-91.333 -85 -160 -85zM321.998 7.99902c32 0 60.502 7.00098 85.502 21.001s46.167 34.167 63.5 60.5s30.666 58.666 39.999 96.999s14 81.5 14 129.5c0 39.333 -4 77.833 -12 115.5
s-20.167 71.334 -36.5 101.001s-37.333 53.5 -63 71.5s-56.167 27 -91.5 27c-31.333 0 -59.5 -7.33301 -84.5 -22s-46.167 -35.834 -63.5 -63.501s-30.833 -60.834 -40.5 -99.501s-14.5 -82 -14.5 -130s4.66699 -91.167 14 -129.5s22.666 -70.666 39.999 -96.999
s38.5 -46.5 63.5 -60.5s53.5 -21 85.5 -21z" />
    <glyph glyph-name="one" unicode="1" horiz-adv-x="374" 
d="M225 619l-105 -69c-0.666992 -0.666992 -1.66699 -1 -3 -1c-4.66699 0 -7 2.33301 -7 7c0 2.66699 1 4.66699 3 6l115 76c0.666992 0.666992 2 1 4 1c4.66699 0 7 -2.33301 7 -7v-625c0 -4.66699 -2.33301 -7 -7 -7s-7 2.33301 -7 7v612z" />
    <glyph glyph-name="two" unicode="2" horiz-adv-x="556" 
d="M113 0c-1.33301 0 -2.99805 0.331055 -4.99805 0.998047s-3 2.33398 -3 5.00098c0 24 8 48.833 24 74.5s36.167 51.667 60.5 78s50.666 53 78.999 80s54.666 54.167 78.999 81.5s44.5 54.333 60.5 81s24 53.334 24 80.001c0 32.667 -5.33301 58.834 -16 78.501
s-23.834 34.834 -39.501 45.501s-32.5 17.667 -50.5 21s-34.333 5 -49 5c-18 0 -34.667 -1.83301 -50 -5.5s-29.166 -8 -41.499 -13s-22.833 -10 -31.5 -15s-15 -8.83301 -19 -11.5c-2.66699 -1.33301 -4.33398 -2 -5.00098 -2c-4.66699 0 -7 2.33301 -7 7
c0 2 1 3.66699 3 5c4 2.66699 10.5 6.66699 19.5 12s20 10.666 33 15.999s27.833 10.166 44.5 14.499s34.667 6.5 54 6.5c12.667 0 28.667 -1.66699 48 -5s38 -10.5 56 -21.5s33.333 -27.5 46 -49.5s19 -51.333 19 -88c0 -22 -5.5 -44.333 -16.5 -67
s-25.167 -45.334 -42.5 -68.001s-37 -45.167 -59 -67.5l-66 -66.5l-52 -53c-16.667 -17.333 -31.667 -34.166 -45 -50.499s-24.166 -32.5 -32.499 -48.5s-12.833 -31.333 -13.5 -46h325c4.66699 0 7 -2.33301 7 -7s-2.33301 -7 -7 -7h-331z" />
    <glyph glyph-name="three" unicode="3" horiz-adv-x="569" 
d="M231 315c-4.66699 0 -7.00195 2.33594 -7.00195 7.00293s2.33301 7 7 7h27c20 0 40.667 2.83301 62 8.5s40.833 14.667 58.5 27s32.167 28.166 43.5 47.499s17 42.666 17 69.999c0 34 -6.33301 60.833 -19 80.5s-27.667 34.667 -45 45s-35.333 16.833 -54 19.5
s-34.334 4 -47.001 4c-17.333 0 -33.166 -1.66699 -47.499 -5s-27.166 -7.5 -38.499 -12.5s-21.166 -10 -29.499 -15s-14.5 -8.83301 -18.5 -11.5c-2.66699 -2 -5 -3 -7 -3c-4 0 -6 2.33301 -6 7c0 2 1 4 3 6c0.666992 0.666992 4.66699 3.5 12 8.5s17.333 10.5 30 16.5
s27.667 11.333 45 16s36.333 7 57 7c10.667 0 26 -1.33301 46 -4s39.833 -9.5 59.5 -20.5s36.834 -27.333 51.501 -49s22 -51.5 22 -89.5c0 -42.667 -12.667 -77.667 -38 -105s-59 -45.333 -101 -54c36 -5.33301 67.5 -18.166 94.5 -38.499s44.167 -48.833 51.5 -85.5
c2.66699 -10.667 4 -23.667 4 -39c0 -23.333 -4.83301 -45 -14.5 -65s-23 -37.5 -40 -52.5s-36.833 -26.833 -59.5 -35.5s-47 -13 -73 -13c-28.667 0 -53.5 2.5 -74.5 7.5s-38.5 10.5 -52.5 16.5s-24.5 11.5 -31.5 16.5s-10.833 7.83301 -11.5 8.5
c-1.33301 1.33301 -2 3 -2 5c0 4.66699 2 7 6 7c2.66699 0 5 -1 7 -3l9 -7c6.66699 -4.66699 16.5 -9.83398 29.5 -15.501s29.5 -10.667 49.5 -15s43.667 -6.5 71 -6.5c24 0 46.5 4 67.5 12s39.333 18.833 55 32.5s28 29.667 37 48s13.5 38.166 13.5 59.499
c0 30 -6 55 -18 75s-27.333 35.833 -46 47.5s-39.334 20 -62.001 25s-44.667 7.5 -66 7.5h-27z" />
    <glyph glyph-name="four" unicode="4" horiz-adv-x="598" 
d="M401 173l-309.001 0.000976562c-4.66699 0 -7 2.33301 -7 7c0 2 0.666992 4.33301 2 7c17.333 40.667 37.333 80 60 118s45.667 73.667 69 107s46 63.666 68 90.999s41.833 50.833 59.5 70.5l42.5 46l17 17.5c1.33301 1.33301 3 2 5 2c4 0 6 -2 6 -6
c0 -2 -0.666992 -3.66699 -2 -5c0 -0.666992 -5.33301 -6.33398 -16 -17.001s-24.5 -25.834 -41.5 -45.501l-58.5 -70c-22 -27 -44.333 -56.667 -67 -89s-45.167 -67.166 -67.5 -104.499s-42.166 -75.666 -59.499 -114.999h299v320c0 4.66699 2.33301 7 7 7s7 -2.33301 7 -7
v-320h81c4.66699 0 7 -2.33301 7 -7s-2.33301 -7 -7 -7h-81v-166c0 -4.66699 -2.33301 -7 -7 -7s-7 2.33301 -7 7v166z" />
    <glyph glyph-name="five" unicode="5" horiz-adv-x="560" 
d="M136 625l-0.00195312 -265.001c9.33301 5.33301 24.5 11.833 45.5 19.5s46.5 11.5 76.5 11.5c28.667 0 55 -4.66699 79 -14s44.667 -22.5 62 -39.5s31 -37 41 -60s15 -47.833 15 -74.5c0 -38.667 -6 -71.334 -18 -98.001s-27.5 -48.167 -46.5 -64.5
s-40.167 -28.166 -63.5 -35.499s-46.333 -11 -69 -11c-23.333 0 -44 2.5 -62 7.5s-33.5 10.5 -46.5 16.5s-23 11.5 -30 16.5s-10.833 7.83301 -11.5 8.5c-2 2 -3 3.66699 -3 5c0 4.66699 2 7 6 7c1.33301 0 3.33301 -0.666992 6 -2
c0.666992 -0.666992 4.5 -3.33398 11.5 -8.00098s16.667 -9.83398 29 -15.501s26.833 -10.667 43.5 -15s35.667 -6.5 57 -6.5c22 0 44 3.33301 66 10s41.667 17.834 59 33.501s31.333 35.834 42 60.501s16 55 16 91c0 24.667 -4.5 47.667 -13.5 69s-21.667 39.833 -38 55.5
s-35.666 27.834 -57.999 36.501s-46.833 13 -73.5 13c-25.333 0 -49 -3.5 -71 -10.5s-39 -14.5 -51 -22.5c-1.33301 -1.33301 -3.66602 -2 -6.99902 -2c-4.66699 0 -7 2.33301 -7 7v283c0 4.66699 2.66699 7 8 7h284c4.66699 0 7 -2.33301 7 -7s-2.33301 -7 -7 -7h-278z" />
    <glyph glyph-name="six" unicode="6" horiz-adv-x="596" 
d="M305 -6c-64.667 0 -114.168 25 -148.501 75s-51.5 122.667 -51.5 218c0 124 17.667 214.667 53 272s90.666 86 165.999 86c26 0 48 -2.33301 66 -7s32.667 -9.83398 44 -15.501s19.5 -11 24.5 -16s7.5 -7.83301 7.5 -8.5c1.33301 -1.33301 2 -3 2 -5
c0 -4.66699 -2.66699 -7 -8 -7c-1.33301 0 -3 1 -5 3c-1.33301 0.666992 -4.5 3.33398 -9.5 8.00098s-12.667 9.5 -23 14.5s-23.666 9.5 -39.999 13.5s-35.833 6 -58.5 6c-16 0 -32.167 -1.33301 -48.5 -4s-32 -8.33398 -47 -17.001s-29.167 -20.834 -42.5 -36.501
s-25 -36.167 -35 -61.5s-17.833 -56.5 -23.5 -93.5s-8.5 -80.833 -8.5 -131.5c0 -90.667 15.833 -159.834 47.5 -207.501s77.834 -71.5 138.501 -71.5c34 0 62 6.83301 84 20.5s39.5 30.5 52.5 50.5s22.167 41.333 27.5 64s8 43 8 61c0 16.667 -2.66699 35.334 -8 56.001
s-14.5 40.167 -27.5 58.5s-30.5 33.833 -52.5 46.5s-50 19 -84 19c-46 0 -84.667 -12.667 -116 -38c-0.666992 -0.666992 -1.66699 -1 -3 -1c-4.66699 0 -7 2.33301 -7 7c0 2 0.666992 3.66699 2 5c15.333 13.333 33.833 23.5 55.5 30.5s44.5 10.5 68.5 10.5
c36.667 0 67 -6.66699 91 -20s43 -30 57 -50s23.833 -41.167 29.5 -63.5s8.5 -42.5 8.5 -60.5c0 -19.333 -2.83301 -41.166 -8.5 -65.499s-15.5 -47.166 -29.5 -68.499s-33 -39.333 -57 -54s-54.333 -22 -91 -22z" />
    <glyph glyph-name="seven" unicode="7" horiz-adv-x="542" 
d="M82 625c-4.66699 0 -7.00098 2.33301 -7.00098 7s2.33301 7 7 7h378c4.66699 0 7 -3 7 -9c-0.666992 -28 -11.667 -62.833 -33 -104.5s-46.666 -88.167 -75.999 -139.5l-54.5 -98c-18.333 -33.333 -34.833 -66.333 -49.5 -99s-26.667 -64.5 -36 -95.5
s-14 -59.833 -14 -86.5c0 -4.66699 -2.33301 -7 -7 -7s-7 2.33301 -7 7c0 28 4.66699 57.667 14 89s21.5 63.5 36.5 96.5s31.833 66.5 50.5 100.5l55 99l38.5 68.5c12.333 22.333 23.5 43.5 33.5 63.5s18 38.5 24 55.5s9.66699 32.167 11 45.5h-371z" />
    <glyph glyph-name="eight" unicode="8" horiz-adv-x="584" 
d="M364 319c14.667 -4 29.333 -9.83496 44 -17.502s28 -17.667 40 -30s21.833 -27.166 29.5 -44.499s11.5 -38 11.5 -62c0 -56 -16.833 -98.5 -50.5 -127.5s-82.834 -43.5 -147.501 -43.5c-30 0 -57 4 -81 12s-44.5 19.5 -61.5 34.5s-30.167 33 -39.5 54s-14 44.5 -14 70.5
c0 24 3.16699 45.667 9.5 65s15 36.333 26 51s23.667 26.667 38 36s29.166 16 44.499 20c-66.667 26 -100 74.667 -100 146c0 32 6.16699 58.5 18.5 79.5s27.5 37.5 45.5 49.5s37.333 20.5 58 25.5s39.334 7.5 56.001 7.5c22.667 0 44.834 -3.16699 66.501 -9.5
s41 -16.166 58 -29.499s30.667 -30.166 41 -50.499s15.5 -44.5 15.5 -72.5c0 -19.333 -3.16699 -37.833 -9.5 -55.5s-14.5 -33.834 -24.5 -48.501s-21.5 -27.167 -34.5 -37.5s-26.167 -17.833 -39.5 -22.5zM240.999 326.998c-16 0 -32 -3.66895 -48 -11.002
s-30.167 -18 -42.5 -32s-22.333 -31 -30 -51s-11.5 -42.667 -11.5 -68c0 -29.333 5.33301 -54 16 -74s24.667 -36.167 42 -48.5s36.833 -21.166 58.5 -26.499s43.5 -8 65.5 -8c20.667 0 42 2 64 6s41.833 11.833 59.5 23.5s32.167 27.667 43.5 48s17 46.833 17 79.5
c0 34.667 -7.66699 61.834 -23 81.501s-34 34.667 -56 45s-45 17.333 -69 21s-44.333 7.16699 -61 10.5c-5.33301 1.33301 -10.5 2.33301 -15.5 3s-8.16699 1 -9.5 1zM334.999 325.996c14 0 28.3301 4.16895 42.9971 12.502s27.834 19.666 39.501 33.999
s21.334 31 29.001 50s11.5 39.167 11.5 60.5c0 29.333 -5.83301 53.5 -17.5 72.5s-26 34.167 -43 45.5s-35.167 19.166 -54.5 23.499s-36.666 6.5 -51.999 6.5s-32.5 -2.16699 -51.5 -6.5s-36.833 -12.166 -53.5 -23.499s-30.667 -26.5 -42 -45.5s-17 -43.167 -17 -72.5
c0 -32.667 6.33301 -58.5 19 -77.5s29 -33.833 49 -44.5s42.333 -18.334 67 -23.001s49 -8.66699 73 -12z" />
    <glyph glyph-name="nine" unicode="9" horiz-adv-x="595" 
d="M406 294c1.33301 1.33301 2.99805 1.99902 4.99805 1.99902c4.66699 0 7 -2.66699 7 -8c0 -2 -1 -4 -3 -6c-16 -13.333 -34.833 -23.5 -56.5 -30.5s-44.167 -10.5 -67.5 -10.5c-36.667 0 -67 6.66699 -91 20s-43 30 -57 50s-23.833 41.167 -29.5 63.5
s-8.5 42.5 -8.5 60.5c0 19.333 2.83301 41.166 8.5 65.499s15.5 47.166 29.5 68.499s33 39.333 57 54s54.333 22 91 22c64.667 0 114 -25 148 -75s51 -122.667 51 -218c0 -124 -17.5 -214.667 -52.5 -272s-90.167 -86 -165.5 -86c-26 0 -48.167 2.33301 -66.5 7
s-33 10 -44 16s-19.167 11.5 -24.5 16.5s-8 7.83301 -8 8.5c-1.33301 1.33301 -2 3 -2 5c0 4.66699 2.33301 7 7 7c2 0 4 -1 6 -3c2.66699 -3.33301 7.33398 -7.5 14.001 -12.5s15.334 -9.66699 26.001 -14s23.667 -8.16602 39 -11.499s33 -5 53 -5c24 0 48 3.5 72 10.5
s45.833 22.5 65.5 46.5s35.667 58.667 48 104s18.5 106.333 18.5 183c0 90.667 -15.667 159.834 -47 207.501s-77.333 71.5 -138 71.5c-34 0 -62.167 -6.83301 -84.5 -20.5s-40 -30.5 -53 -50.5s-22 -41.333 -27 -64s-7.5 -43 -7.5 -61c0 -16.667 2.5 -35.5 7.5 -56.5
s14 -40.667 27 -59s30.667 -33.666 53 -45.999s50.5 -18.5 84.5 -18.5c44.667 0 83 13 115 39z" />
    <glyph glyph-name="colon" unicode=":" horiz-adv-x="184" 
d="M85 37c0 4.66699 2.33301 7 7 7s7 -2.33301 7 -7v-37c0 -4.66699 -2.33301 -7 -7 -7s-7 2.33301 -7 7v37zM85 440c0 4.66699 2.33301 7 7 7s7 -2.33301 7 -7v-36c0 -4.66699 -2.33301 -7 -7 -7s-7 2.33301 -7 7v36z" />
    <glyph glyph-name="semicolon" unicode=";" horiz-adv-x="221" 
d="M122 440c0 4.66699 2.33301 7 7 7s7 -2.33301 7 -7v-36c0 -4.66699 -2.33301 -7 -7 -7s-7 2.33301 -7 7v36zM136 17c0 -6 -0.333008 -14.833 -1 -26.5s-2.5 -24.334 -5.5 -38.001s-7.5 -27.5 -13.5 -41.5s-14 -26 -24 -36c-1.33301 -1.33301 -3.33301 -2 -6 -2
c-4 0 -6 2 -6 6c0 2 0.666992 3.66699 2 5c9.33301 9.33301 16.666 20.5 21.999 33.5s9.33301 26 12 39s4.33398 25.333 5.00098 37s1 20.834 1 27.501c0 4.66699 2.33301 7 7 7s7 -2.33301 7 -7v-4z" />
    <glyph glyph-name="less" unicode="&#x3c;" horiz-adv-x="600" 
d="M104 219c-2 0.666992 -3 2.66699 -3 6c0 2.66699 1 4.66699 3 6l384 195c0.666992 0.666992 2 1 4 1c4 0 6 -2.33301 6 -7c0 -2.66699 -1.33301 -4.66699 -4 -6l-372 -189l372 -194c2.66699 -1.33301 4 -3.66602 4 -6.99902c0 -2.66699 -0.833008 -4.33398 -2.5 -5.00098
s-3.16699 -1 -4.5 -1c-2 0 -3.33301 0.333008 -4 1z" />
    <glyph glyph-name="equal" unicode="=" horiz-adv-x="600" 
d="M109 277c-4.66699 0 -7 2.33301 -7 7s2.33301 7 7 7h382c4.66699 0 7 -2.33301 7 -7s-2.33301 -7 -7 -7h-382zM109 169c-4.66699 0 -7 2.33301 -7 7s2.33301 7 7 7h382c4.66699 0 7 -2.33301 7 -7s-2.33301 -7 -7 -7h-382z" />
    <glyph glyph-name="greater" unicode="&#x3e;" horiz-adv-x="600" 
d="M112 19c-0.666992 -0.666992 -2 -1 -4 -1c-1.33301 0 -2.83301 0.333008 -4.5 1s-2.5 2.33398 -2.5 5.00098c0 3.33301 1.33301 5.66602 4 6.99902l372 194l-372 189c-2.66699 1.33301 -4 3.33301 -4 6c0 4.66699 2 7 6 7c2 0 3.33301 -0.333008 4 -1l144 -74l62 -31.5
l63.5 -32.5l61 -30.5l53.5 -26.5c2 -1.33301 3 -3.33301 3 -6c0 -3.33301 -1 -5.33301 -3 -6z" />
    <glyph glyph-name="question" unicode="?" horiz-adv-x="504" 
d="M314 335l30.4941 25.5c9.66699 8.33301 18.334 17.5 26.001 27.5s13.667 21.167 18 33.5s6.5 26.5 6.5 42.5c0 24 -3.83301 45.833 -11.5 65.5s-18.167 36.5 -31.5 50.5s-29.333 25 -48 33s-39.334 12 -62.001 12c-19.333 0 -37.333 -2.33301 -54 -7
s-31.167 -10 -43.5 -16s-22.166 -11.333 -29.499 -16l-10 -7c-0.666992 -0.666992 -1.66699 -1 -3 -1c-4.66699 0 -7 2.33301 -7 7c0 2 0.666992 3.66699 2 5c0.666992 0.666992 4.83398 3.66699 12.501 9s17.834 11 30.501 17s27.667 11.333 45 16s36.333 7 57 7
c24.667 0 47.334 -4.33301 68.001 -13s38.334 -20.667 53.001 -36s26 -33.666 34 -54.999s12 -45 12 -71c0 -24.667 -4.66699 -45.334 -14 -62.001s-20.833 -31.667 -34.5 -45s-28.5 -26 -44.5 -38s-30.833 -25.833 -44.5 -41.5s-25.167 -34.167 -34.5 -55.5
s-14 -48 -14 -80c0 -4.66699 -2.33301 -7 -7 -7s-7 2.33301 -7 7c0.666992 44 8.83398 79.5 24.501 106.5s34.167 49.167 55.5 66.5zM208.994 37c0 4.66699 2.33301 7 7 7s7 -2.33301 7 -7v-36c0 -4.66699 -2.33301 -7 -7 -7s-7 2.33301 -7 7v36z" />
    <glyph glyph-name="at" unicode="@" horiz-adv-x="758" 
d="M467 239c-21.333 -21.333 -42.834 -36.3311 -64.501 -44.998s-40.167 -13 -55.5 -13c-32 0 -56.167 8.5 -72.5 25.5s-24.5 41.5 -24.5 73.5c0 20.667 3.66699 42.667 11 66s18 45 32 65s31.333 36.5 52 49.5s44.667 19.5 72 19.5c8.66699 0 17.834 -1 27.501 -3
s18.834 -4.5 27.501 -7.5s16.5 -6.33301 23.5 -10s12.167 -6.83398 15.5 -9.50098c2 -2 3 -4 3 -6l-18.5 -107c-4.33301 -25.333 -7.5 -44.5 -9.5 -57.5s-3.33301 -22 -4 -27s-1 -9.83301 -1 -14.5c0 -5.33301 0.5 -10.666 1.5 -15.999s3.16699 -10.333 6.5 -15
c7.33301 -9.33301 19.666 -14 36.999 -14c18 0 36.167 4.16699 54.5 12.5s34.833 20.166 49.5 35.499s26.5 33.5 35.5 54.5s13.5 44.167 13.5 69.5c0 39.333 -6.83301 75 -20.5 107s-33.167 59.333 -58.5 82s-56 40.167 -92 52.5s-76.667 18.5 -122 18.5
c-42 0 -81.667 -8.16699 -119 -24.5s-70 -38.666 -98 -66.999s-50 -61.333 -66 -99s-24 -77.5 -24 -119.5s8 -81.667 24 -119s38 -70 66 -98s60.667 -50 98 -66s77 -24 119 -24c31.333 0 61.833 4.5 91.5 13.5s57.167 22.167 82.5 39.5c0.666992 0.666992 2 1 4 1
c4 0 6 -2 6 -6c0 -3.33301 -1 -5.33301 -3 -6c-54.667 -37.333 -115 -56 -181 -56c-44 0 -85.5 8.5 -124.5 25.5s-73 40 -102 69s-52 63 -69 102s-25.5 80.5 -25.5 124.5s8.5 85.667 25.5 125s40 73.833 69 103.5s63 53 102 70s80.5 25.5 124.5 25.5
c47.333 0 90 -6.5 128 -19.5s70.167 -31.333 96.5 -55s46.666 -52.334 60.999 -86.001s21.5 -71.5 21.5 -113.5c0 -27.333 -5 -52.333 -15 -75s-23 -42.334 -39 -59.001s-33.833 -29.5 -53.5 -38.5s-39.5 -13.5 -59.5 -13.5c-21.333 0 -37 6.33301 -47 19
c-5.33301 6.66699 -8.66602 13.5 -9.99902 20.5s-2 13.833 -2 20.5zM499.999 441.002c-7.33301 4.66699 -15.8311 9 -25.498 13s-19.5 7 -29.5 9s-19.333 3 -28 3c-24.667 0 -46.5 -6.16699 -65.5 -18.5s-35 -27.833 -48 -46.5s-22.833 -39 -29.5 -61s-10 -42.333 -10 -61
c0 -44.667 18.667 -71.667 56 -81c8 -2 17 -3 27 -3c15.333 0 34.166 4.83301 56.499 14.5s44.166 26.167 65.499 49.5z" />
    <glyph glyph-name="A" unicode="A" horiz-adv-x="568" 
d="M111 205l-22.999 -70.998l-19 -59l-13.5 -44l-7.5 -25c-1.33301 -4 -3.66602 -6 -6.99902 -6c-4 0 -6 2.33301 -6 7c0 1.33301 0.5 4 1.5 8s2.16699 7.66699 3.5 11c26.667 88.667 53.334 172 80.001 250l35 101.5l35.5 98.5c11.667 31.333 23.167 60.166 34.5 86.499
s21.666 48.166 30.999 65.499c4 7.33301 13 11 27 11c2.66699 0 7.16699 -0.5 13.5 -1.5s10.833 -4.16699 13.5 -9.5c11.333 -22.667 24.666 -53.167 39.999 -91.5l47.5 -124l47.5 -134.5l41.5 -123.5l30 -91.5c7.66699 -24 11.5 -36.333 11.5 -37
c1.33301 -3.33301 2.5 -7 3.5 -11s1.5 -6.66699 1.5 -8c0 -4.66699 -2 -7 -6 -7s-6.33301 2 -7 6c-2.66699 9.33301 -9.83398 31.833 -21.501 67.5l-43.5 131.5h-344zM450.001 219.002l-39 113.999l-41 113.5l-38.5 100.5c-12.333 30.667 -23.5 55.334 -33.5 74.001
c-1.33301 2.66699 -6.33301 4 -15 4s-13.667 -1.33301 -15 -4c-10 -18.667 -21.333 -43.334 -34 -74.001l-39.5 -100.5c-13.667 -36.333 -27.167 -74.166 -40.5 -113.499l-38 -114h334z" />
    <glyph glyph-name="B" unicode="B" horiz-adv-x="531" 
d="M112 0c-4.66699 0 -7.00098 2.33398 -7.00098 7.00098v625c0 4.66699 2.33301 7 7 7h131c14 0 32 -1 54 -3s43.167 -8 63.5 -18s38 -25.833 53 -47.5s22.5 -52.167 22.5 -91.5c0 -24 -3.66699 -44.667 -11 -62s-16.5 -32.166 -27.5 -44.499s-22.667 -22.5 -35 -30.5
s-23.166 -14 -32.499 -18c27.333 -4.66699 49.833 -12.667 67.5 -24s31.5 -24.333 41.5 -39s17 -30.334 21 -47.001s6 -33 6 -49c0 -26.667 -4.16699 -49.334 -12.5 -68.001s-19.166 -34.167 -32.499 -46.5s-28.333 -21.833 -45 -28.5s-33.334 -11.667 -50.001 -15
s-32.5 -5.33301 -47.5 -6s-27.167 -1 -36.5 -1h-130zM242.999 14.001c14 0 32.833 1.00195 56.5 3.00195s46.667 7.66699 69 17s41.833 24.166 58.5 44.499s25 49.166 25 86.499c0 100 -60.333 150 -181 150h-152v-301h124zM285.999 329.003
c5.33301 0 10.668 -0.334961 16.001 -1.00195c2 0.666992 9.33301 3.33398 22 8.00098s26.167 12.667 40.5 24s27.5 26.5 39.5 45.5s18 43.5 18 73.5c0 36.667 -7 64.834 -21 84.501s-30.667 34 -50 43s-39.333 14.333 -60 16s-37.334 2.5 -50.001 2.5h-122v-296h167z" />
    <glyph glyph-name="C" unicode="C" horiz-adv-x="602" 
d="M525 43c-30.667 -17.333 -60.832 -29.834 -90.499 -37.501s-61.834 -11.5 -96.501 -11.5c-39.333 0 -75.666 8.16699 -108.999 24.5s-62.166 38.833 -86.499 67.5s-43.333 62.834 -57 102.501s-20.5 83.167 -20.5 130.5c0 46 7.16699 89 21.5 129
s34.166 74.5 59.499 103.5s55.333 51.833 90 68.5s72.334 25 113.001 25c26 0 49.333 -2 70 -6s38.667 -8.83301 54 -14.5s27.833 -11.5 37.5 -17.5s17.167 -11 22.5 -15c2.66699 -2 4 -4.33301 4 -7c0 -4 -2.33301 -6 -7 -6c-2 0 -3.66699 0.666992 -5 2
c-4.66699 4 -11.834 8.83301 -21.501 14.5s-21.667 11.167 -36 16.5s-31.333 9.83301 -51 13.5s-42.167 5.5 -67.5 5.5c-38.667 0 -74.5 -8 -107.5 -24s-61.5 -38 -85.5 -66s-42.833 -61 -56.5 -99s-20.5 -79 -20.5 -123c0 -45.333 6.5 -87 19.5 -125s31 -70.667 54 -98
s50.333 -48.833 82 -64.5s66.167 -23.5 103.5 -23.5c34 0 65 3.66699 93 11s57 19.333 87 36c1.33301 0.666992 2.66602 1 3.99902 1c4.66699 0 7 -2.33301 7 -7c0 -2.66699 -1.33301 -4.66699 -4 -6z" />
    <glyph glyph-name="D" unicode="D" horiz-adv-x="644" 
d="M112 0c-4.66699 0 -6.99902 2.33398 -6.99902 7.00098v625c0 4.66699 2.33301 7 7 7h181c43.333 0 82.666 -8 117.999 -24s65.5 -38.333 90.5 -67s44.167 -62.667 57.5 -102s20 -82.333 20 -129s-6.66699 -89.334 -20 -128.001s-32.333 -72 -57 -100
s-54.667 -49.833 -90 -65.5s-75 -23.5 -119 -23.5h-181zM293.001 14.001c42 0 79.835 7.33203 113.502 21.999s62.167 35.334 85.5 62.001s41.333 58.667 54 96s19 78.333 19 123s-6.33301 85.834 -19 123.501s-30.834 70.167 -54.501 97.5s-52.334 48.666 -86.001 63.999
s-71.167 23 -112.5 23h-174v-611h174z" />
    <glyph glyph-name="E" unicode="E" horiz-adv-x="492" 
d="M112 0c-4.66699 0 -7 2.33301 -7 7v625c0 4.66699 2.33301 7 7 7h284c4.66699 0 7 -2.33301 7 -7s-2.33301 -7 -7 -7h-277v-281h258c4.66699 0 7 -2.33301 7 -7s-2.33301 -7 -7 -7h-258v-316h296c4.66699 0 7 -2.33301 7 -7s-2.33301 -7 -7 -7h-303z" />
    <glyph glyph-name="F" unicode="F" horiz-adv-x="463" 
d="M105 632c0 4.66699 2.33301 7 7 7h284c4.66699 0 7 -2.33301 7 -7s-2.33301 -7 -7 -7h-277v-281h258c4.66699 0 7 -2.33301 7 -7s-2.33301 -7 -7 -7h-258v-323c0 -4.66699 -2.33301 -7 -7 -7s-7 2.33301 -7 7v625z" />
    <glyph glyph-name="G" unicode="G" horiz-adv-x="625" 
d="M526 217c0 14 -0.670898 25.335 -2.00391 34.002s-4.5 15.334 -9.5 20.001s-12 7.66699 -21 9s-20.833 2 -35.5 2h-82c-4.66699 0 -7 2.33301 -7 7s2.33301 7 7 7h82c16.667 0 30.334 -1 41.001 -3s19 -6 25 -12s10.167 -14.167 12.5 -24.5s3.5 -23.5 3.5 -39.5v-169
c0 -2.66699 -1.33301 -4.66699 -4 -6c-58 -32 -124 -48 -198 -48c-39.333 0 -75.666 8 -108.999 24s-62.166 38.5 -86.499 67.5s-43.333 63.167 -57 102.5s-20.5 82.666 -20.5 129.999c0 46 7.16699 89 21.5 129s34.166 74.667 59.499 104s55.333 52.333 90 69
s72.334 25 113.001 25c20.667 0 39.334 -1.33301 56.001 -4s31.667 -6.33398 45 -11.001s25.5 -9.66699 36.5 -15l30.5 -15c3.33301 -2 5 -4.33301 5 -7c0 -4.66699 -2.33301 -7 -7 -7c-1.33301 0 -3.33301 0.666992 -6 2c-18 10 -39.333 19.667 -64 29s-56.667 14 -96 14
c-38.667 0 -74.5 -8 -107.5 -24s-61.5 -38 -85.5 -66s-42.833 -61.167 -56.5 -99.5s-20.5 -79.5 -20.5 -123.5c0 -45.333 6.5 -86.833 19.5 -124.5s31 -70.334 54 -98.001s50.333 -49.167 82 -64.5s66.167 -23 103.5 -23c70 0 132.667 15 188 45v164z" />
    <glyph glyph-name="H" unicode="H" horiz-adv-x="617" 
d="M498 330h-379v-323c0 -4.66699 -2.33301 -7 -7 -7s-7 2.33301 -7 7v625c0 4.66699 2.33301 7 7 7s7 -2.33301 7 -7v-288h379v288c0 4.66699 2.33301 7 7 7s7 -2.33301 7 -7v-625c0 -4.66699 -2.33301 -7 -7 -7s-7 2.33301 -7 7v323z" />
    <glyph glyph-name="I" unicode="I" horiz-adv-x="224" 
d="M105 632c0 4.66699 2.33301 7 7 7s7 -2.33301 7 -7v-625c0 -4.66699 -2.33301 -7 -7 -7s-7 2.33301 -7 7v625z" />
    <glyph glyph-name="J" unicode="J" horiz-adv-x="244" 
d="M125 632c0 4.66699 2.33203 6.99902 6.99902 6.99902s7 -2.33301 7 -7v-596c0 -36 -5.16699 -66 -15.5 -90s-23 -43 -38 -57s-31 -23.833 -48 -29.5s-32.5 -8.5 -46.5 -8.5c-16 0 -30 1.33301 -42 4s-22.167 5.83398 -30.5 9.50098s-14.5 7.16699 -18.5 10.5l-7 4
c-2.66699 2 -4 4 -4 6c0 4.66699 2.33301 7 7 7c0.666992 0 2.33398 -0.666992 5.00098 -2c4.66699 -3.33301 14.167 -8.33301 28.5 -15s34.833 -10 61.5 -10c12.667 0 26.667 2.66699 42 8s29.833 14.5 43.5 27.5s25.167 30.5 34.5 52.5s14 49.667 14 83v596z" />
    <glyph glyph-name="K" unicode="K" horiz-adv-x="565" 
d="M105 632c0 4.66699 2.33203 6.99805 6.99902 6.99805s7 -2.33301 7 -7v-288h38c4 3.33301 17 16 39 38l35.5 35l52 52l72.5 72.5l96 95.5c1.33301 1.33301 3 2 5 2c4.66699 0 7 -2 7 -6c0 -2 -1 -4 -3 -6l-290 -289c8 -5.33301 22.833 -16.166 44.5 -32.499
s47.5 -38.166 77.5 -65.499s62.667 -60 98 -98s71 -81.667 107 -131c1.33301 -1.33301 2 -3 2 -5c0 -4 -2.33301 -6 -7 -6c-3.33301 0 -5.33301 1 -6 3c-38 52.667 -76 99 -114 139s-72.333 73.5 -103 100.5s-56.167 47.833 -76.5 62.5s-32.166 23 -35.499 25h-39v-323
c0 -4.66699 -2.33301 -7 -7 -7s-7 2.33301 -7 7v625z" />
    <glyph glyph-name="L" unicode="L" horiz-adv-x="458" 
d="M112 0c-4.66699 0 -7 2.33301 -7 7v625c0 4.66699 2.33301 7 7 7s7 -2.33301 7 -7v-618h297c4.66699 0 7 -2.33301 7 -7s-2.33301 -7 -7 -7h-304z" />
    <glyph glyph-name="M" unicode="M" horiz-adv-x="822" 
d="M406 19c-7.33301 0 -11.9971 3.99902 -13.9971 11.999c-3.33301 13.333 -10.166 37.166 -20.499 71.499l-36.5 117.5l-44.5 138c-15.667 48 -31 91.833 -46 131.5s-28.667 72.334 -41 98.001s-21.833 38.5 -28.5 38.5h-6c-0.666992 -8 -3.66699 -35.333 -9 -82
c-2 -20 -4.83301 -45 -8.5 -75l-13 -110l-17.5 -152l-23 -201c0 -4 -2.33301 -6 -7 -6c-4 0 -6 2.66699 -6 8l71 625c0 4 2.33301 6 7 6h12c8.66699 0 16.334 -4.33301 23.001 -13c8.66699 -12.667 19.5 -34.5 32.5 -65.5s26.667 -66.333 41 -106
s28.666 -81.834 42.999 -126.501l40 -126.5l32.5 -105c9.33301 -30.333 15.666 -51.5 18.999 -63.5h7c3.33301 12 9.66602 33.167 18.999 63.5l33 104.5l41 124.5l43.5 125c14.333 39.667 27.833 74.834 40.5 105.501s23.667 52.334 33 65.001c8 12 16 18 24 18h14
c4 0 6 -2 6 -6l70 -625c0 -5.33301 -2 -8 -6 -8c-5.33301 0 -8 2 -8 6l-22.5 201l-16.5 152l-12 110c-3.33301 30 -6 55 -8 75c-5.33301 46.667 -8.33301 74 -9 82h-6c-5.33301 0 -12.333 -7.5 -21 -22.5s-18.167 -34.833 -28.5 -59.5s-21.5 -53.167 -33.5 -85.5
l-35.5 -100.5l-34.5 -104l-31 -96.5l-24 -78c-6.66699 -22.333 -11.334 -38.5 -14.001 -48.5c-1.33301 -4 -3.33301 -7 -6 -9s-5.33398 -3 -8.00098 -3h-7z" />
    <glyph glyph-name="N" unicode="N" horiz-adv-x="613" 
d="M489 0c-8.66699 0 -15.833 2 -21.5 6s-12.167 11.333 -19.5 22c-8.66699 12 -18.667 28.167 -30 48.5l-37 69l-41.5 83l-42.5 90.5l-50 105.5l-47 93.5c-14 28 -26.333 51 -37 69s-18.667 29 -24 33c-4 3.33301 -10.667 5 -20 5v-618c0 -4.66699 -2.33301 -7 -7 -7
s-7 2.33301 -7 7v625c0 4.66699 2.33301 7 7 7h12c3.33301 0 7.33301 -0.5 12 -1.5s8.66699 -3.16699 12 -6.5c8 -8 18.833 -23.5 32.5 -46.5s28 -49.333 43 -79l45 -92.5l40.5 -86l48 -101l46 -92c14.667 -28 28.167 -52 40.5 -72s22.5 -34 30.5 -42c4 -4 10.667 -6 20 -6
v618c0 4.66699 2.33301 7 7 7s7 -2.33301 7 -7v-625c0 -4.66699 -2.33301 -7 -7 -7h-12z" />
    <glyph glyph-name="O" unicode="O" horiz-adv-x="661" 
d="M331 -6c-38 0 -73.167 8.16504 -105.5 24.498s-60.333 39 -84 68s-42.334 63.333 -56.001 103s-20.5 82.5 -20.5 128.5s6.83301 89 20.5 129s32.334 74.667 56.001 104s51.667 52.333 84 69s67.5 25 105.5 25c38.667 0 74.167 -8.16699 106.5 -24.5
s60.166 -39.166 83.499 -68.499s41.666 -64 54.999 -104s20 -83.333 20 -130c0 -47.333 -6.66699 -90.666 -20 -129.999s-31.666 -73.5 -54.999 -102.5s-51.166 -51.5 -83.499 -67.5s-67.833 -24 -106.5 -24zM331 7.99805c36.667 0 70.334 7.66699 101.001 23
s57.167 36.833 79.5 64.5s39.666 60.334 51.999 98.001s18.5 79.167 18.5 124.5c0 44.667 -6.16699 86.167 -18.5 124.5s-29.666 71.5 -51.999 99.5s-48.833 49.833 -79.5 65.5s-64.334 23.5 -101.001 23.5c-36 0 -69.333 -8 -100 -24s-57.334 -38 -80.001 -66
s-40.334 -61.167 -53.001 -99.5s-19 -79.5 -19 -123.5s6.33301 -85 19 -123s30.334 -70.833 53.001 -98.5s49.334 -49.334 80.001 -65.001s64 -23.5 100 -23.5z" />
    <glyph glyph-name="P" unicode="P" horiz-adv-x="480" 
d="M105 632c0 4.66699 2.33301 6.99609 7 6.99609h161c24.667 0 47.5 -4 68.5 -12s39.167 -19.167 54.5 -33.5s27.333 -31.166 36 -50.499s13 -40.333 13 -63c0 -32.667 -5.16699 -60.167 -15.5 -82.5s-23.833 -40.5 -40.5 -54.5s-35.167 -24 -55.5 -30s-40.5 -9 -60.5 -9
h-90c-4.66699 0 -7 2.33301 -7 7s2.33301 7 7 7h90c18 0 36.5 2.83301 55.5 8.5s36 14.834 51 27.501s27.333 29.334 37 50.001s14.5 46 14.5 76c0 20.667 -4 39.834 -12 57.501s-19 33 -33 46s-30.667 23.167 -50 30.5s-40.333 11 -63 11h-154v-618
c0 -4.66699 -2.33301 -7 -7 -7s-7 2.33301 -7 7v625z" />
    <glyph glyph-name="Q" unicode="Q" horiz-adv-x="659" 
d="M302 -5c-34 4 -65.5 14.999 -94.5 32.999s-54 41.167 -75 69.5s-37.5 61.333 -49.5 99s-18 78.167 -18 121.5c0 46 6.66699 89 20 129s31.833 74.667 55.5 104s51.667 52.333 84 69s67.5 25 105.5 25c38.667 0 74.167 -8.16699 106.5 -24.5
s60.166 -39.166 83.499 -68.499s41.666 -64 54.999 -104s20 -83.333 20 -130c0 -49.333 -7 -94 -21 -134s-33.167 -74 -57.5 -102s-53.5 -49.667 -87.5 -65s-71 -23 -111 -23c12 -23.333 27 -42 45 -56s36.833 -24.833 56.5 -32.5s39.334 -12.834 59.001 -15.501
s37.834 -4 54.501 -4c18 0 33.167 0.833008 45.5 2.5s19.5 2.5 21.5 2.5c4.66699 0 7 -2 7 -6c0 -3.33301 -2.33301 -5.66602 -7 -6.99902c-6.66699 -1.33301 -17.167 -2.5 -31.5 -3.5s-25.833 -1.5 -34.5 -1.5c-20 0 -40.833 1.5 -62.5 4.5s-43 9 -64 18
s-40.667 21.5 -59 37.5s-33.833 36.667 -46.5 62zM330 7.99902c36.667 0 70.334 7.66699 101.001 23s57.167 36.833 79.5 64.5s39.666 60.334 51.999 98.001s18.5 79.167 18.5 124.5c0 44.667 -6.16699 86.167 -18.5 124.5s-29.666 71.5 -51.999 99.5
s-48.833 49.833 -79.5 65.5s-64.334 23.5 -101.001 23.5c-36 0 -69.333 -8 -100 -24s-57.167 -38 -79.5 -66s-39.833 -61.167 -52.5 -99.5s-19 -79.5 -19 -123.5s6.33301 -85 19 -123s30.167 -70.833 52.5 -98.5s48.833 -49.334 79.5 -65.001s64 -23.5 100 -23.5z" />
    <glyph glyph-name="R" unicode="R" horiz-adv-x="534" 
d="M105 632c0 4.66699 2.33594 7 7.00293 7h161c24.667 0 47.667 -3.83301 69 -11.5s39.5 -18.334 54.5 -32.001s26.833 -30 35.5 -49s13 -39.5 13 -61.5c0 -29.333 -4.5 -54.5 -13.5 -75.5s-20.833 -38.167 -35.5 -51.5s-31.334 -23.333 -50.001 -30s-38 -10.667 -58 -12
c33.333 -15.333 64.666 -45 93.999 -89s56.333 -100.333 81 -169l5 -14.5l5.5 -16c1.66699 -5 3 -9.5 4 -13.5s1.5 -6.33301 1.5 -7c0 -4.66699 -2 -7 -6 -7s-6.66699 1.66699 -8 5c-15.333 48 -31.833 91.167 -49.5 129.5s-36.334 70.833 -56.001 97.5s-40 47.167 -61 61.5
s-42.167 21.5 -63.5 21.5h-52c-3.33301 0 -5.33301 0.833008 -6 2.5s-1 3.16699 -1 4.5c0 4.66699 2.33301 7 7 7h90c9.33301 0 22.833 1.33301 40.5 4s35.167 9.16699 52.5 19.5s32.5 25.833 45.5 46.5s19.5 49.334 19.5 86.001c0 20.667 -4 39.5 -12 56.5
s-19 31.667 -33 44s-30.667 22 -50 29s-40.333 10.5 -63 10.5h-154v-618c0 -4.66699 -2.33301 -7 -7 -7s-7 2.33301 -7 7v625z" />
    <glyph glyph-name="S" unicode="S" horiz-adv-x="484" 
d="M419 161c0 -50.667 -17.0029 -91.166 -51.0029 -121.499s-79.333 -45.5 -136 -45.5c-20 0 -38.333 2.16699 -55 6.5s-31.834 9.83301 -45.501 16.5s-25.667 13.5 -36 20.5s-19.166 13.5 -26.499 19.5c-2.66699 2 -4 4 -4 6c0 4.66699 2.33301 7 7 7
c0.666992 0 3 -1.33301 7 -4c7.33301 -5.33301 16 -11.333 26 -18s21.333 -13 34 -19s26.834 -11 42.501 -15s32.5 -6 50.5 -6c54 0 96.333 13.667 127 41s46 64.666 46 111.999c0 30.667 -7.83301 55.834 -23.5 75.501s-35.334 36.5 -59.001 50.5
s-49.334 26.667 -77.001 38s-53.334 24.166 -77.001 38.499s-43.334 32 -59.001 53s-23.5 48.167 -23.5 81.5c0 22 4.66699 42.167 14 60.5s21.833 33.833 37.5 46.5s33.5 22.5 53.5 29.5s41 10.5 63 10.5c16.667 0 32.167 -1.66699 46.5 -5s27.666 -7.66602 39.999 -12.999
s23.5 -11.166 33.5 -17.499s19 -12.5 27 -18.5c2.66699 -2 4 -4 4 -6c0 -5.33301 -2.66699 -8 -8 -8c-1.33301 0 -2.66602 0.666992 -3.99902 2c-14.667 11.333 -33.667 22.833 -57 34.5s-50.666 17.5 -81.999 17.5c-20 0 -39.167 -3.16699 -57.5 -9.5
s-34.666 -15.333 -48.999 -27s-25.833 -25.667 -34.5 -42s-13 -34.5 -13 -54.5c0 -30.667 7.83301 -55.834 23.5 -75.501s35.334 -36.334 59.001 -50.001s49.334 -26.167 77.001 -37.5s53.334 -24.333 77.001 -39s43.334 -32.5 59.001 -53.5s23.5 -48.167 23.5 -81.5z" />
    <glyph glyph-name="T" unicode="T" horiz-adv-x="482" 
d="M232 625h-200c-4.66699 0 -7 2.33301 -7 7s2.33301 7 7 7h418c4.66699 0 7 -2.33301 7 -7s-2.33301 -7 -7 -7h-204v-618c0 -4.66699 -2.33301 -7 -7 -7s-7 2.33301 -7 7v618z" />
    <glyph glyph-name="U" unicode="U" horiz-adv-x="596" 
d="M487 632c0 4.66699 2.33105 7 6.99805 7s7 -2.33301 7 -7v-433c0 -9.33301 -1 -20.833 -3 -34.5s-5.66699 -28 -11 -43s-12.666 -30.167 -21.999 -45.5s-21.5 -29 -36.5 -41s-33.167 -21.833 -54.5 -29.5s-46.666 -11.5 -75.999 -11.5s-54.666 3.83301 -75.999 11.5
s-39.5 17.5 -54.5 29.5s-27.167 25.667 -36.5 41s-16.666 30.5 -21.999 45.5s-9 29.333 -11 43s-3 25.167 -3 34.5v433c0 4.66699 2.33301 7 7 7s7 -2.33301 7 -7v-431c0 -12.667 2.16699 -29.834 6.5 -51.501s13.166 -43 26.499 -64s32.333 -39.167 57 -54.5
s57.667 -23 99 -23c40.667 0 73.5 7.66699 98.5 23s44.167 33.5 57.5 54.5s22.166 42.333 26.499 64s6.5 38.834 6.5 51.501v431z" />
    <glyph glyph-name="V" unicode="V" horiz-adv-x="568" 
d="M310 11c-2.66699 -5.33301 -7.16797 -8.50098 -13.501 -9.50098s-10.833 -1.5 -13.5 -1.5c-14 0 -23 3.66699 -27 11c-11.333 20.667 -24 48.334 -38 83.001s-28.5 72.5 -43.5 113.5l-44.5 127l-41 123.5l-32.5 102l-19.5 64l-2 4v5c0 4 2.33301 6 7 6
c2.66699 0 4.66699 -1.66699 6 -5c0.666992 -1.33301 3.16699 -9.33301 7.5 -24l17.5 -58l26 -82.5l32 -97.5l35.5 -103l36.5 -99.5c12 -31.667 23.5 -60.667 34.5 -87s21.167 -47.833 30.5 -64.5c1.33301 -2.66699 6.33301 -4 15 -4s13.667 1.33301 15 4
c11.333 22.667 24.666 53.5 39.999 92.5l47.5 126.5l48.5 138.5l43 127.5l30.5 94c7.66699 24.667 11.834 37.334 12.501 38.001c0.666992 2.66699 2.66699 4 6 4c4.66699 0 7 -2 7 -6c0 -0.666992 -0.666992 -3.66699 -2 -9c-1.33301 -4.66699 -6.16602 -20 -14.499 -46
l-31.5 -96l-42 -125l-47 -133.5l-46.5 -122c-15 -37.667 -28.167 -67.834 -39.5 -90.501z" />
    <glyph glyph-name="W" unicode="W" horiz-adv-x="798" 
d="M600 17c4.66699 8.66699 10.5 23.9941 17.5 45.9941s14.333 48 22 78l24.5 99l25 108.5l23 105.5l19.5 91l13.5 64c3.33301 16 5 24.333 5 25c1.33301 3.33301 3.33301 5 6 5c4.66699 0 7 -2 7 -6c0 -2 -0.333008 -5 -1 -9s-1.66699 -8.66699 -3 -14l-15 -75
c-6.66699 -33.333 -14.5 -70.5 -23.5 -111.5l-29 -128l-30 -124.5c-9.66699 -38.667 -18.834 -72.5 -27.501 -101.5s-16 -48.5 -22 -58.5c-2.66699 -4.66699 -7 -7.66699 -13 -9s-10.667 -2 -14 -2c-2.66699 0 -7.16699 0.5 -13.5 1.5s-10.833 4.16699 -13.5 9.5
c-6 10.667 -13.5 31.334 -22.5 62.001s-18.667 66 -29 106l-32 128l-30.5 128.5l-24.5 106.5c-7 30.667 -11.5 51.667 -13.5 63c-0.666992 1.33301 -2.33398 2 -5.00098 2c-2 0 -3.33301 -0.666992 -4 -2l-14.5 -63.5c-7 -31 -15.5 -66.667 -25.5 -107l-32 -128.5
l-33.5 -128.5c-11 -40.333 -21.167 -75.666 -30.5 -105.999s-17 -50.833 -23 -61.5c-4 -6.66699 -12.333 -10 -25 -10c-4 0 -9.16699 0.666992 -15.5 2s-10.833 4.33301 -13.5 9c-6 10.667 -13.167 30.334 -21.5 59.001s-17.333 62.334 -27 101.001
s-19.5 80.167 -29.5 124.5l-28 128l-23.5 111c-7 33 -12.167 58.167 -15.5 75.5c-1.33301 5.33301 -2.33301 10 -3 14s-1 7 -1 9c0 4 2.33301 6 7 6c4 0 6.33301 -1.66699 7 -5c0 -0.666992 1.66699 -9.16699 5 -25.5l13 -64l19 -90.5l23 -105.5l24.5 -108.5l24 -99.5
c7.66699 -30.333 14.834 -56.333 21.501 -78s12.334 -36.834 17.001 -45.501c2 -2 7.66699 -3 17 -3c5.33301 0 8.83301 0.333008 10.5 1s2.83398 1.33398 3.50098 2.00098c5.33301 10 12.666 30.167 21.999 60.5s19.5 65.5 30.5 105.5l33.5 128l31.5 128.5l25 106.5
c7 30.667 11.833 51.334 14.5 62.001c2 8 7.66699 12 17 12c10 0 16 -4 18 -12c2 -10 6.5 -30 13.5 -60l24.5 -105.5l30.5 -129l32 -129.5c10.333 -40.667 20 -76.167 29 -106.5s16.167 -50.5 21.5 -60.5c2 -2 7 -3 15 -3c5.33301 0 9 0.333008 11 1
s3.33301 1.33398 4 2.00098z" />
    <glyph glyph-name="X" unicode="X" horiz-adv-x="491" 
d="M250 351l-74.499 112l-62.5 87l-43 56c-10.667 13.333 -16 20.333 -16 21c-1.33301 2 -2 4.33301 -2 7c0 3.33301 2.33301 5 7 5c2.66699 0 5 -1.33301 7 -4c0.666992 -0.666992 6.16699 -7.66699 16.5 -21l41.5 -55.5l60.5 -85l73.5 -110.5l170 273
c0.666992 2 2.66699 3 6 3c4 0 6 -2 6 -6c0 -1.33301 -0.333008 -2.66602 -1 -3.99902l-173 -278c32 -50 64.167 -103.667 96.5 -161s63.166 -117.333 92.499 -180c0.666992 -0.666992 1 -2 1 -4c0 -4 -2 -6 -6 -6c-3.33301 0 -5.66602 1.33301 -6.99902 4
c-28.667 60.667 -58.834 119.167 -90.501 175.5s-63.167 109.166 -94.5 158.499l-210 -335c-1.33301 -2 -3.33301 -3 -6 -3c-4.66699 -0 -7 2.33301 -7 7c0 1.33301 0.333008 2.33301 1 3z" />
    <glyph glyph-name="Y" unicode="Y" horiz-adv-x="486" 
d="M236 264c-2.66699 0 -5.83008 0.833008 -9.49707 2.5s-7.16699 4.5 -10.5 8.5c-6 8 -13.667 20.333 -23 37l-31 57.5l-35.5 69.5l-35.5 72.5l-31 66l-23 49.5c-1.33301 2.66699 -2 4.66699 -2 6c0 4 2.33301 6 7 6c2.66699 0 4.66699 -1.66699 6 -5
c0.666992 -1.33301 4.16699 -9 10.5 -23l25 -53l34.5 -71.5l38.5 -78l38.5 -72.5c12.667 -22.667 23.667 -41 33 -55c2 -2.66699 7 -4 15 -4s13 1.33301 15 4c9.33301 14 20.166 32.333 32.499 55l38.5 72.5l39 78l34.5 71.5l25 53c6.33301 14 9.83301 21.667 10.5 23
c1.33301 3.33301 3.66602 5 6.99902 5c4 0 6 -2 6 -6c0 -1.33301 -0.333008 -2.33301 -1 -3l-1 -3l-23 -49.5l-31 -65.5l-35.5 -72l-35.5 -70l-31 -58c-9.33301 -16.667 -17 -29 -23 -37c-3.33301 -4 -6.83301 -6.83301 -10.5 -8.5s-6.83398 -2.5 -9.50098 -2.5v-257
c0 -4.66699 -2.33301 -7 -7 -7s-7 2.33301 -7 7v257z" />
    <glyph glyph-name="Z" unicode="Z" horiz-adv-x="465" 
d="M42 0c-4.66699 0 -7 2.33496 -7 7.00195v11c0 6.66699 2 13.667 6 21c8 15.333 21.167 38.333 39.5 69l63 103.5l74.5 120l74.5 118l63 97.5c18.333 28 31.5 47.667 39.5 59c0.666992 1.33301 1.66699 3.16602 3 5.49902s2 5.16602 2 8.49902v5h-358
c-4.66699 0 -7 2.33301 -7 7s2.33301 7 7 7h365c4.66699 0 7 -2.33301 7 -7v-12c0 -8 -2.33301 -15.333 -7 -22c-8.66699 -12 -22.5 -32.667 -41.5 -62l-65 -100.5l-76 -119.5l-74 -120l-61 -101c-17.667 -29.333 -29.5 -50 -35.5 -62c-3.33301 -6.66699 -5 -11.667 -5 -15
v-4h374c4.66699 0 7 -2.33301 7 -7s-2.33301 -7 -7 -7h-381z" />
    <glyph glyph-name="bracketleft" unicode="[" horiz-adv-x="352" 
d="M112 -74c-4.66699 0 -7 2.33301 -7 7v699c0 4.66699 2.33301 7 7 7h128c4.66699 0 7 -2.33301 7 -7s-2.33301 -7 -7 -7h-121v-685h121c4.66699 0 7 -2.33301 7 -7s-2.33301 -7 -7 -7h-128z" />
    <glyph glyph-name="backslash" unicode="\" horiz-adv-x="404" 
d="M56 680c-0.666992 1.33301 -1 3.00098 -1 5.00098c0 1.33301 0.5 2.66602 1.5 3.99902s2.5 2 4.5 2c3.33301 0 5.66602 -1.33301 6.99902 -4l280 -746c0.666992 -2 1 -3.66699 1 -5c0 -4 -2 -6 -6 -6c-3.33301 0 -5.66602 1.33301 -6.99902 4z" />
    <glyph glyph-name="bracketright" unicode="]" horiz-adv-x="352" 
d="M112 -74c-4.66699 0 -7 2.33301 -7 7s2.33301 7 7 7h121v685h-121c-4.66699 0 -7 2.33301 -7 7s2.33301 7 7 7h128c4.66699 0 7 -2.33301 7 -7v-699c0 -4.66699 -2.33301 -7 -7 -7h-128z" />
    <glyph glyph-name="asciicircum" unicode="^" horiz-adv-x="513" 
d="M258 615l-173.999 -360c-1.33301 -2.66699 -3.66602 -4 -6.99902 -4c-4.66699 0 -7 2.33301 -7 7c0 1.33301 0.666992 3.16602 2 5.49902s3.66602 7.16602 6.99902 14.499l173 356c1.33301 2.66699 3.33301 4 6 4s4.66699 -1.33301 6 -4l170 -356
c3.33301 -7.33301 5.66602 -12.166 6.99902 -14.499s2 -4.16602 2 -5.49902c0 -4.66699 -2.66699 -7 -8 -7c-3.33301 0 -5.33301 1.33301 -6 4z" />
    <glyph glyph-name="underscore" unicode="_" horiz-adv-x="511" 
d="M52 -70c-4.66699 0 -7 2.33301 -7 7s2.33301 7 7 7h407c4.66699 0 7 -2.33301 7 -7s-2.33301 -7 -7 -7h-407z" />
    <glyph glyph-name="grave" unicode="`" horiz-adv-x="316" 
d="M74 615c-6 2.66699 -8.99902 5.66602 -8.99902 8.99902c0 4.66699 2.33301 7 7 7c2 0 4.33301 -0.666992 7 -2l169 -72c2 -1.33301 3 -3.66602 3 -6.99902c0 -2 -0.833008 -3.5 -2.5 -4.5s-3.16699 -1.5 -4.5 -1.5c-0.666992 0 -4.33398 1.33301 -11.001 4z" />
    <glyph glyph-name="a" unicode="a" horiz-adv-x="449" 
d="M348 322c0 11.333 -2.33203 23.5 -6.99902 36.5s-12 25.167 -22 36.5s-23.167 20.833 -39.5 28.5s-36.166 11.5 -59.499 11.5c-33.333 0 -60.666 -3.66699 -81.999 -11s-36.666 -13.666 -45.999 -18.999c-1.33301 -0.666992 -2.5 -1.33398 -3.5 -2.00098
s-2.16699 -1 -3.5 -1c-4 0 -6 2 -6 6c0 2.66699 1.33301 5 4 7c4.66699 2.66699 11.5 6 20.5 10s19.667 7.83301 32 11.5s25.666 6.66699 39.999 9s29.166 3.5 44.499 3.5c25.333 0 47 -4.16699 65 -12.5s32.667 -18.666 44 -30.999s19.666 -26 24.999 -41
s8 -29.167 8 -42.5v-255c0 -13.333 1.83301 -23.5 5.5 -30.5s7.66699 -12.167 12 -15.5s8.16602 -5.33301 11.499 -6l6 -1c4.66699 0 7 -2.33301 7 -7s-2.33301 -7 -7 -7c-0.666992 0 -3.16699 0.333008 -7.5 1s-9.33301 2.66699 -15 6s-11 8.16602 -16 14.499
s-8.16699 15.5 -9.5 27.5c-36 -36.667 -85 -55 -147 -55c-18 0 -35.667 2.5 -53 7.5s-33 12.5 -47 22.5s-25.333 22.833 -34 38.5s-13 34.167 -13 55.5c0 83.333 59.667 125 179 125h114v79zM348.001 229h-114.001c-110 0 -165 -37 -165 -111
c0 -19.333 3.83301 -35.833 11.5 -49.5s17.834 -25 30.501 -34s27 -15.667 43 -20s32 -6.5 48 -6.5c32 0 60.167 4.66699 84.5 14s44.833 24.333 61.5 45v162z" />
    <glyph glyph-name="b" unicode="b" horiz-adv-x="490" 
d="M85 681c0 4.66699 2.33105 7.00098 6.99805 7.00098s7 -2.33301 7 -7v-270c18.667 10.667 39.167 19.667 61.5 27s48.833 11 79.5 11c30 0 57 -5.33301 81 -16s44.5 -25.834 61.5 -45.501s30 -43.5 39 -71.5s13.5 -59 13.5 -93s-4.66699 -65.167 -14 -93.5
s-22.666 -52.5 -39.999 -72.5s-38.166 -35.5 -62.499 -46.5s-51.5 -16.5 -81.5 -16.5c-25.333 0 -51 3.33301 -77 10s-50 16.667 -72 30c-2 0.666992 -3 3 -3 7v640zM98.998 44.001c21.333 -11.333 43.668 -20.167 67.001 -26.5s47 -9.5 71 -9.5
c32 0 59.5 6.16699 82.5 18.5s42 28.666 57 48.999s26.167 43.333 33.5 69s11 51.834 11 78.501c0 66 -16.333 117.833 -49 155.5s-76.667 56.5 -132 56.5c-30 0 -56.833 -4 -80.5 -12s-43.834 -17.333 -60.501 -28v-351z" />
    <glyph glyph-name="c" unicode="c" horiz-adv-x="460" 
d="M395 46c0.666992 0.666992 1.99902 1.00098 3.99902 1.00098c4 0 6 -2.33301 6 -7c0 -3.33301 -1 -5.33301 -3 -6c-22 -13.333 -45.833 -23.333 -71.5 -30s-51.5 -10 -77.5 -10c-30 0 -57.167 5.5 -81.5 16.5s-45.166 26.5 -62.499 46.5s-30.666 44.167 -39.999 72.5
s-14 59.5 -14 93.5c0 32 5.66699 61.833 17 89.5s26.833 51.5 46.5 71.5s42.834 35.833 69.501 47.5s55.334 17.5 86.001 17.5c21.333 0 42.166 -3.33301 62.499 -10s39.833 -16.334 58.5 -29.001c2 -1.33301 3 -3.33301 3 -6c0 -4.66699 -2.33301 -7 -7 -7
c-1.33301 0 -2.33301 0.333008 -3 1c-36 24.667 -74 37 -114 37c-29.333 0 -56.333 -5.33301 -81 -16s-46.334 -25.5 -65.001 -44.5s-33.167 -41.5 -43.5 -67.5s-15.5 -54 -15.5 -84c0 -26.667 3.5 -52.834 10.5 -78.501s18 -48.667 33 -69s34.167 -36.666 57.5 -48.999
s51 -18.5 83 -18.5c24.667 0 49.167 3.33301 73.5 10s47.166 16 68.499 28z" />
    <glyph glyph-name="d" unicode="d" horiz-adv-x="493" 
d="M392 681c0 4.66699 2.33301 7.00293 7 7.00293s7 -2.33301 7 -7v-613c0 -13.333 1.83301 -23.5 5.5 -30.5s7.66699 -12.333 12 -16s8.16602 -5.83398 11.499 -6.50098l6 -1c4.66699 0 7 -2.33301 7 -7s-2.33301 -7 -7 -7c-0.666992 0 -3 0.333008 -7 1
s-8.66699 2.66699 -14 6s-10.5 8.16602 -15.5 14.499s-8.5 15.166 -10.5 26.499c-21.333 -14 -43.833 -26.5 -67.5 -37.5s-47.834 -16.5 -72.501 -16.5c-30 0 -57.167 5.5 -81.5 16.5s-45.166 26.5 -62.499 46.5s-30.833 44 -40.5 72s-14.5 59 -14.5 93
c0 32 5.66699 61.833 17 89.5s26.833 51.667 46.5 72s42.834 36.333 69.501 48s55.667 17.5 87 17.5c23.333 0 43.833 -3.33301 61.5 -10s36.167 -16 55.5 -28v270zM392 395.003c-19.333 12.667 -37.8359 22.501 -55.5029 29.501s-38.167 10.5 -61.5 10.5
c-29.333 0 -56.666 -5.5 -81.999 -16.5s-47.166 -26 -65.499 -45s-32.666 -41.5 -42.999 -67.5s-15.5 -54 -15.5 -84c0 -26.667 3.66699 -52.834 11 -78.501s18.5 -48.5 33.5 -68.5s34.167 -36.167 57.5 -48.5s51 -18.5 83 -18.5c23.333 0 47 5.66699 71 17s46.333 24 67 38
v332z" />
    <glyph glyph-name="e" unicode="e" horiz-adv-x="460" 
d="M70 206c0 -26.667 3.99609 -52.0039 11.9961 -76.0039s19.5 -45 34.5 -63s33.333 -32.333 55 -43s45.834 -16 72.501 -16c19.333 0 38 2 56 6s34 8.33301 48 13s25.333 9 34 13l13 6c1.33301 0.666992 2.66602 1 3.99902 1c4 0 6 -2 6 -6c0 -2.66699 -1 -4.66699 -3 -6
c-0.666992 -0.666992 -5.5 -3.16699 -14.5 -7.5s-20.667 -9 -35 -14s-31 -9.5 -50 -13.5s-38.5 -6 -58.5 -6c-28 0 -53.667 5.5 -77 16.5s-43.333 26.333 -60 46s-29.5 43.334 -38.5 71.001s-13.5 58.5 -13.5 92.5c0 35.333 4.66699 67.166 14 95.499s22.5 52.333 39.5 72
s37.5 34.834 61.5 45.501s50.667 16 80 16c24.667 0 46.334 -3.66699 65.001 -11s34.334 -16.666 47.001 -27.999s22.334 -23.833 29.001 -37.5s10 -27.167 10 -40.5c0 -26 -7.66699 -47.167 -23 -63.5s-37.166 -29.166 -65.499 -38.499s-63 -15.666 -104 -18.999
s-87.167 -5 -138.5 -5zM68.9961 218.996c58 0 107.169 2.16699 147.502 6.5s73.166 11 98.499 20s43.666 20.667 54.999 35s17 31.5 17 51.5c0 11.333 -3 23 -9 35s-14.667 23 -26 33s-25.5 18.333 -42.5 25s-36.833 10 -59.5 10c-26 0 -50.167 -4.5 -72.5 -13.5
s-41.5 -22.5 -57.5 -40.5s-28.5 -40.5 -37.5 -67.5s-13.5 -58.5 -13.5 -94.5z" />
    <glyph glyph-name="f" unicode="f" horiz-adv-x="319" 
d="M105 429l-82.998 -0.00195312c-4.66699 0 -7 2.33301 -7 7s2.33301 7 7 7h83c0.666992 54 7.5 96.833 20.5 128.5s28.667 55.834 47 72.501s37.166 27.334 56.499 32.001s35.666 7 48.999 7c25.333 0 50.666 -4 75.999 -12c3.33301 -1.33301 5 -3.66602 5 -6.99902
c0 -2 -0.666992 -3.5 -2 -4.5s-2.66602 -1.5 -3.99902 -1.5h-4c-0.666992 0 -2.66699 0.666992 -6 2c-12 3.33301 -22.833 5.66602 -32.5 6.99902s-20.5 2 -32.5 2c-14.667 0 -31.167 -2.5 -49.5 -7.5s-35.5 -15.5 -51.5 -31.5s-29.5 -38.833 -40.5 -68.5
s-16.833 -69.167 -17.5 -118.5h155c4.66699 0 7 -2.33301 7 -7s-2.33301 -7 -7 -7h-155v-422c0 -4.66699 -2.33301 -7 -7 -7s-7 2.33301 -7 7v422z" />
    <glyph glyph-name="g" unicode="g" horiz-adv-x="485" 
d="M400 27c0 -50 -8.6709 -90.835 -26.0039 -122.502s-38.666 -56.5 -63.999 -74.5s-52.166 -30.5 -80.499 -37.5s-53.5 -10.5 -75.5 -10.5c-20 0 -38.333 2.16699 -55 6.5s-31.167 9.16602 -43.5 14.499s-22 10.333 -29 15s-10.833 7.33398 -11.5 8.00098
c-3.33301 2.66699 -5 5.33398 -5 8.00098c0 4 2 6 6 6c0.666992 0 2.33398 -0.666992 5.00098 -2c4.66699 -3.33301 11 -7.33301 19 -12s17.833 -9.16699 29.5 -13.5s24.5 -8.16602 38.5 -11.499s29.333 -5 46 -5c20 0 43.333 3 70 9s52 17.5 76 34.5s44.333 40.5 61 70.5
s25 69 25 117v25c-19.333 -18 -41.5 -32.167 -66.5 -42.5s-50.167 -15.5 -75.5 -15.5c-29.333 0 -55.833 5.33301 -79.5 16s-44 26 -61 46s-30 44.167 -39 72.5s-13.5 59.833 -13.5 94.5c0 33.333 5.33301 63.833 16 91.5s25.334 51.5 44.001 71.5s41 35.5 67 46.5
s54.333 16.5 85 16.5c28 0 53.5 -4.83301 76.5 -14.5s41.167 -19.167 54.5 -28.5c4 -3.33301 6 -6 6 -8v-371zM385.996 394.998c-19.333 11.333 -38.334 20.8359 -57.001 28.5029s-40.667 11.5 -66 11.5c-28.667 0 -55.167 -5.16699 -79.5 -15.5
s-45.166 -24.833 -62.499 -43.5s-31 -41 -41 -67s-15 -54.667 -15 -86c0 -32.667 4.16699 -62.334 12.5 -89.001s20.333 -49.334 36 -68.001s34.5 -33 56.5 -43s46.667 -15 74 -15c26 0 51.5 5.66699 76.5 17s46.833 26.666 65.5 45.999v324z" />
    <glyph glyph-name="h" unicode="h" horiz-adv-x="489" 
d="M390 280c0 30 -2.33203 54.999 -6.99902 74.999s-12.667 35.833 -24 47.5s-26.5 20 -45.5 25s-43.167 7.5 -72.5 7.5c-12.667 0 -25.667 -1.16699 -39 -3.5s-26.333 -5.5 -39 -9.5s-24.5 -8.5 -35.5 -13.5s-20.5 -10.167 -28.5 -15.5v-386c0 -4.66699 -2.33301 -7 -7 -7
s-7 2.33301 -7 7v674c0 4.66699 2.33301 7 7 7s7 -2.33301 7 -7v-272c18.667 10.667 40.667 20 66 28s50.666 12 75.999 12c30.667 0 56.5 -2.83301 77.5 -8.5s37.833 -15.167 50.5 -28.5s21.667 -30.666 27 -51.999s8 -48 8 -80v-273c0 -4.66699 -2.33301 -7 -7 -7
s-7 2.33301 -7 7v273z" />
    <glyph glyph-name="i" unicode="i" horiz-adv-x="184" 
d="M85 436c0 4.66699 2.33301 7 7 7s7 -2.33301 7 -7v-429c0 -4.66699 -2.33301 -7 -7 -7s-7 2.33301 -7 7v429zM85 636c0 4.66699 2.33301 7 7 7s7 -2.33301 7 -7v-37c0 -4.66699 -2.33301 -7 -7 -7s-7 2.33301 -7 7v37z" />
    <glyph glyph-name="j" unicode="j" horiz-adv-x="189" 
d="M90 636c0 4.66699 2.33301 7 7 7s7 -2.33301 7 -7v-37c0 -4.66699 -2.33301 -7 -7 -7s-7 2.33301 -7 7v37zM90 436c0 4.66699 2.3291 7 6.99609 7s7 -2.33301 7 -7v-471c0 -36 -5.16699 -65.833 -15.5 -89.5s-23.166 -42.5 -38.499 -56.5s-31.5 -23.833 -48.5 -29.5
s-32.5 -8.5 -46.5 -8.5c-30 0 -53 4 -69 12s-25.667 13.333 -29 16c-2.66699 2 -4 4.33301 -4 7c0 4 2.33301 6 7 6c2 0 4 -1 6 -3c5.33301 -4 15.333 -9 30 -15s34.334 -9 59.001 -9c12.667 0 26.834 2.5 42.501 7.5s30.334 14 44.001 27s25.167 30.5 34.5 52.5
s14 49.667 14 83v471z" />
    <glyph glyph-name="k" unicode="k" horiz-adv-x="423" 
d="M85 681c0 4.66699 2.33105 6.99902 6.99805 6.99902s7 -2.33301 7 -7v-427h51c2.66699 2 11 10 25 24l56 55l108 107c2 2 4 3 6 3c4.66699 0 7 -2.33301 7 -7c0 -2 -1 -4 -3 -6l-185 -182c7.33301 -4 18.333 -11 33 -21s32.167 -24.167 52.5 -42.5
s42.833 -41.333 67.5 -69s50.334 -61.167 77.001 -100.5c1.33301 -1.33301 2.33301 -2.66602 3 -3.99902s1 -3 1 -5c0 -4 -2 -6 -6 -6c-3.33301 0 -6.66602 2.66699 -9.99902 8c-30 43.333 -58.167 79.5 -84.5 108.5s-49.833 52.333 -70.5 70s-37.667 30.5 -51 38.5l-25 15
h-52v-233c0 -4.66699 -2.33301 -7 -7 -7s-7 2.33301 -7 7v674z" />
    <glyph glyph-name="l" unicode="l" horiz-adv-x="215" 
d="M85 681c0 4.66699 2.33203 7 6.99902 7s7 -2.33301 7 -7v-526c0 -28 1.33301 -51 4 -69s7.16699 -32.333 13.5 -43s14.833 -18.167 25.5 -22.5s24.334 -6.5 41.001 -6.5c4.66699 0 7 -2.33301 7 -7s-2.33301 -7 -7 -7c-18.667 0 -34.334 2.5 -47.001 7.5
s-22.667 13.5 -30 25.5s-12.666 27.833 -15.999 47.5s-5 44.5 -5 74.5v526z" />
    <glyph glyph-name="m" unicode="m" horiz-adv-x="768" 
d="M669 281c0 30 -2.83301 54.833 -8.5 74.5s-14.5 35.5 -26.5 47.5s-27.333 20.333 -46 25s-41.334 7 -68.001 7c-12.667 0 -26 -1 -40 -3s-27.667 -4.83301 -41 -8.5s-26.166 -7.83398 -38.499 -12.501s-22.833 -9.66699 -31.5 -15c8 -13.333 13.833 -29 17.5 -47
s5.5 -40.667 5.5 -68v-274c0 -4.66699 -2.33301 -7 -7 -7s-7 2.33301 -7 7v274c0 30 -2.5 54.833 -7.5 74.5s-13 35.334 -24 47.001s-25.667 20 -44 25s-40.833 7.5 -67.5 7.5c-25.333 0 -50.333 -4.16699 -75 -12.5s-45 -17.833 -61 -28.5v-387
c0 -4.66699 -2.33301 -7 -7 -7s-7 2.33301 -7 7v429c0 4.66699 2.33301 7 7 7s7 -2.33301 7 -7v-27c18 10.667 38.833 20 62.5 28s48.167 12 73.5 12c31.333 0 57.166 -3 77.499 -9s36.5 -16.667 48.5 -32c9.33301 6 20.333 11.5 33 16.5s26.167 9.33301 40.5 13
s28.833 6.5 43.5 8.5s28.667 3 42 3c28.667 0 53.334 -2.83301 74.001 -8.5s37.5 -15 50.5 -28s22.667 -30.167 29 -51.5s9.5 -48 9.5 -80v-274c0 -4.66699 -2.33301 -7 -7 -7s-7 2.33301 -7 7v274z" />
    <glyph glyph-name="n" unicode="n" 
d="M389 281c0 30 -2.50098 54.833 -7.50098 74.5s-13.167 35.5 -24.5 47.5s-26.5 20.333 -45.5 25s-42.5 7 -70.5 7c-12.667 0 -25.667 -1.16699 -39 -3.5s-26.333 -5.5 -39 -9.5s-24.5 -8.5 -35.5 -13.5s-20.5 -10.167 -28.5 -15.5v-386c0 -4.66699 -2.33301 -7 -7 -7
s-7 2.33301 -7 7v429c0 4.66699 2.33301 7 7 7s7 -2.33301 7 -7v-27c18.667 10.667 40.667 20 66 28s50.666 12 75.999 12c30.667 0 56.334 -2.83301 77.001 -8.5s37.334 -15 50.001 -28s21.667 -30.167 27 -51.5s8 -48 8 -80v-274c0 -4.66699 -2.33301 -7 -7 -7
s-7 2.33301 -7 7v274z" />
    <glyph glyph-name="o" unicode="o" 
d="M244 -6c-28 0 -53.666 5.49902 -76.999 16.499s-43.333 26.333 -60 46s-29.5 43.334 -38.5 71.001s-13.5 58.5 -13.5 92.5c0 34.667 4.5 66.167 13.5 94.5s21.833 52.5 38.5 72.5s36.667 35.333 60 46s49 16 77 16s53.667 -5.33301 77 -16s43.333 -26 60 -46
s29.5 -44.167 38.5 -72.5s13.5 -59.833 13.5 -94.5c0 -70 -16.833 -125.167 -50.5 -165.5s-79.834 -60.5 -138.501 -60.5zM244.001 7.99902c55.333 0 98.3311 18.668 128.998 56.001s46 89.333 46 156s-15.667 119.167 -47 157.5s-74 57.5 -128 57.5
c-26 0 -49.833 -5 -71.5 -15s-40.167 -24.333 -55.5 -43s-27.166 -41.334 -35.499 -68.001s-12.5 -56.334 -12.5 -89.001c0 -32 4.16699 -61.167 12.5 -87.5s20 -48.666 35 -66.999s33.333 -32.5 55 -42.5s45.834 -15 72.501 -15z" />
    <glyph glyph-name="p" unicode="p" horiz-adv-x="490" 
d="M85 436c0 4.66699 2.33691 7 7.00391 7s7 -2.33301 7 -7v-25c41.333 25.333 87.333 38 138 38c30 0 57.167 -5.33301 81.5 -16s45.166 -25.667 62.499 -45s30.666 -42.833 39.999 -70.5s14 -58.5 14 -92.5c0 -32.667 -5.66699 -63 -17 -91s-26.833 -52.333 -46.5 -73
s-42.834 -37 -69.501 -49s-55.334 -18 -86.001 -18c-23.333 0 -45.5 4.66699 -66.5 14s-37.833 18 -50.5 26v-268c0 -4.66699 -2.33301 -7 -7 -7s-7 2.33301 -7 7v670zM99.0039 51l20.502 -12.5c8.33301 -5 17.666 -9.83301 27.999 -14.5s21.333 -8.5 33 -11.5
s23.5 -4.5 35.5 -4.5c28.667 0 55.5 5.5 80.5 16.5s46.833 26.333 65.5 46s33.167 42.667 43.5 69s15.5 54.833 15.5 85.5c0 32 -4.33301 61 -13 87s-21 48 -37 66s-35.333 32 -58 42s-48 15 -76 15c-24.667 0 -48.834 -3.5 -72.501 -10.5s-45.5 -16.833 -65.5 -29.5v-344z
" />
    <glyph glyph-name="q" unicode="q" horiz-adv-x="491" 
d="M392 31c-10 -5.33301 -21.167 -10.333 -33.5 -15s-25 -8.66699 -38 -12s-25.667 -5.83301 -38 -7.5s-23.166 -2.5 -32.499 -2.5c-29.333 0 -56 5.33301 -80 16s-44.5 26 -61.5 46s-30.167 44 -39.5 72s-14 59.333 -14 94c0 34 4.83301 65 14.5 93s23.167 52 40.5 72
s38.166 35.333 62.499 46s51.5 16 81.5 16s57.833 -5 83.5 -15s47.167 -20 64.5 -30c2.66699 -1.33301 4 -3.33301 4 -6v-639c0 -4.66699 -2.33301 -7 -7 -7s-7 2.33301 -7 7v272zM392 393c-16.667 9.33301 -36.833 18.668 -60.5 28.001s-49.5 14 -77.5 14
c-32 0 -59.667 -6 -83 -18s-42.5 -28 -57.5 -48s-26.167 -42.833 -33.5 -68.5s-11 -51.834 -11 -78.501c0 -32.667 4.33301 -62.167 13 -88.5s20.834 -48.833 36.501 -67.5s34.667 -33 57 -43s47.166 -15 74.499 -15c10 0 21.333 1 34 3s25.5 4.66699 38.5 8
s25.5 7.33301 37.5 12s22.667 10 32 16v346z" />
    <glyph glyph-name="r" unicode="r" horiz-adv-x="337" 
d="M85 436c0 4.66699 2.33105 7.00293 6.99805 7.00293s7 -2.33301 7 -7v-122c6.66699 26 16 47.667 28 65s25.333 31.166 40 41.499s29.834 17.666 45.501 21.999s30.834 6.5 45.501 6.5c9.33301 0 18.333 -0.666992 27 -2s15.667 -3.33301 21 -6c4 -2 6 -4.33301 6 -7
c0 -4.66699 -2.33301 -7 -7 -7c-1.33301 0 -4 0.666992 -8 2c-13.333 4 -26.333 6 -39 6c-12 0 -27 -2.16699 -45 -6.5s-35.5 -14.5 -52.5 -30.5s-31.5 -39.333 -43.5 -70s-18 -72.334 -18 -125.001v-196c0 -4.66699 -2.33301 -7 -7 -7s-7 2.33301 -7 7v429z" />
    <glyph glyph-name="s" unicode="s" horiz-adv-x="399" 
d="M344 116c0 -17.333 -3.49707 -33.5 -10.4971 -48.5s-16.833 -28 -29.5 -39s-27.667 -19.5 -45 -25.5s-36.333 -9 -57 -9c-20 0 -38.5 2.16699 -55.5 6.5s-31.833 9 -44.5 14s-22.834 9.66699 -30.501 14s-11.834 6.83301 -12.501 7.5c-2.66699 2 -4 4 -4 6
c0 4.66699 2.33301 7 7 7c1.33301 0 3.66602 -1 6.99902 -3c0.666992 -0.666992 4.66699 -3 12 -7s17 -8.33301 29 -13s25.833 -8.83398 41.5 -12.501s32.5 -5.5 50.5 -5.5c37.333 0 68 10 92 30s36 46 36 78c0 18 -6.16699 33.333 -18.5 46s-27.833 24 -46.5 34
s-39 19.5 -61 28.5s-42.333 18.833 -61 29.5s-34.167 22.834 -46.5 36.501s-18.5 30.834 -18.5 51.501c0 18 4 33.833 12 47.5s18.5 24.834 31.5 33.501s27.833 15.167 44.5 19.5s33.334 6.5 50.001 6.5c26.667 0 49.667 -3.66699 69 -11s32.333 -12.666 39 -15.999
c3.33301 -2 5 -4.33301 5 -7c0 -4.66699 -2.33301 -7 -7 -7c-1.33301 0 -4 1 -8 3c-10.667 5.33301 -24.5 10.666 -41.5 15.999s-35.833 8 -56.5 8c-14.667 0 -29.334 -1.83301 -44.001 -5.5s-28 -9.33398 -40 -17.001s-21.667 -17.334 -29 -29.001s-11 -25.5 -11 -41.5
c0 -18 6.16699 -33.333 18.5 -46s27.833 -24 46.5 -34s39 -19.5 61 -28.5s42.333 -18.833 61 -29.5s34.167 -23 46.5 -37s18.5 -31 18.5 -51z" />
    <glyph glyph-name="t" unicode="t" horiz-adv-x="335" 
d="M92 429l-82.999 -0.000976562c-4.66699 0 -7 2.33301 -7 7s2.33301 7 7 7h83v141c0 4.66699 2.33301 7 7 7s7 -2.33301 7 -7v-141h156c4.66699 0 7 -2.33301 7 -7s-2.33301 -7 -7 -7h-156v-272c0 -33.333 4 -59.666 12 -78.999s18.333 -34.333 31 -45s27 -17.5 43 -20.5
s32 -4.5 48 -4.5c14 0 26.5 2 37.5 6s18.167 7 21.5 9c1.33301 0.666992 2.66602 1 3.99902 1c4.66699 0 7 -2 7 -6c0 -3.33301 -1.33301 -5.66602 -4 -6.99902c-3.33301 -2 -11.333 -5.33301 -24 -10s-26.667 -7 -42 -7c-18 0 -35.833 1.83301 -53.5 5.5
s-33.5 11.167 -47.5 22.5s-25.333 27.666 -34 48.999s-13 50 -13 86v272z" />
    <glyph glyph-name="u" unicode="u" 
d="M99 162c0 -27.333 1.66602 -50.8311 4.99902 -70.498s10 -35.834 20 -48.501s24.167 -21.834 42.5 -27.501s42.5 -8.5 72.5 -8.5c31.333 0 59.5 6.16699 84.5 18.5s46.833 27.833 65.5 46.5v364c0 4.66699 2.33301 7 7 7s7 -2.33301 7 -7v-429
c0 -4.66699 -2.33301 -7 -7 -7s-7 2.33301 -7 7v47c-17.333 -16 -39 -30 -65 -42s-55 -18 -87 -18c-29.333 0 -53.666 2.66699 -72.999 8s-34.833 14.5 -46.5 27.5s-20 30.167 -25 51.5s-7.5 48.333 -7.5 81v274c0 4.66699 2.33301 7 7 7s7 -2.33301 7 -7v-274z" />
    <glyph glyph-name="v" unicode="v" horiz-adv-x="428" 
d="M214 14c3.33301 0 5.99902 0.333008 7.99902 1c8 15.333 17.667 36.5 29 63.5l35.5 87l37 94.5l33 87.5l24 64.5c6.33301 16.667 9.5 25.334 9.5 26.001c1.33301 3.33301 3.33301 5 6 5c4.66699 0 7 -2.33301 7 -7c0 -1.33301 -0.666992 -3.5 -2 -6.5
s-2.66602 -6.83301 -3.99902 -11.5c-4 -12 -10 -28.667 -18 -50l-27 -71.5l-31.5 -82.5l-32.5 -82.5c-10.667 -26.333 -20.834 -50.333 -30.501 -72s-17.5 -38.5 -23.5 -50.5c-2 -4 -5.33301 -6.5 -10 -7.5s-8 -1.5 -10 -1.5c-6.66699 0 -11.5 1 -14.5 3s-5.16699 4 -6.5 6
c-8 13.333 -16.833 31.166 -26.5 53.499l-30.5 72.5l-32 81.5l-30 81.5l-25.5 70.5c-7.66699 21 -13.5 37.5 -17.5 49.5c-1.33301 4.66699 -2.66602 8.5 -3.99902 11.5s-2 5.16699 -2 6.5c0 4.66699 2.33301 7 7 7c3.33301 0 5.66602 -1.66699 6.99902 -5l8 -25l23.5 -63.5
l32 -88l36 -95.5l36 -87.5c11.667 -27 21.834 -48.167 30.501 -63.5c2.66699 -0.666992 5.66699 -1 9 -1z" />
    <glyph glyph-name="w" unicode="w" horiz-adv-x="658" 
d="M329 429c-1.33301 -6.66699 -5.16602 -20.5 -11.499 -41.5l-22.5 -75l-28 -92l-29.5 -92c-9.66699 -29 -18.667 -54.5 -27 -76.5s-14.5 -36.667 -18.5 -44c-3.33301 -5.33301 -10 -8 -20 -8c-3.33301 0 -7.16602 0.666992 -11.499 2s-7.5 3.66602 -9.5 6.99902
c-4 7.33301 -9.66699 21.5 -17 42.5s-15.166 45.5 -23.499 73.5l-25.5 89.5l-25 90.5l-21 76c-6 22 -10 37.667 -12 47c-1.33301 5.33301 -2 8.33301 -2 9c0 4 2.33301 6 7 6c3.33301 0 5.66602 -2 6.99902 -6c0 -0.666992 2.5 -10.5 7.5 -29.5l19 -71.5l26 -94l28 -97.5
c9 -31 17.333 -58.333 25 -82s13.834 -39.167 18.501 -46.5c1.33301 -1.33301 4.33301 -2 9 -2c4 0 6.66699 0.333008 8 1c4 6.66699 9.83301 20.5 17.5 41.5s16.167 45.667 25.5 74l29 90.5l28 91l22.5 75.5c6.33301 21.667 10.5 36.5 12.5 44.5
c1.33301 6.66699 6.33301 10 15 10s13.667 -3.33301 15 -10s5 -20.834 11 -42.501s13.333 -46.667 22 -75l27.5 -91l28.5 -91l25 -74.5c7.33301 -21.333 13 -35.333 17 -42c1.33301 -1.33301 4.33301 -2 9 -2s7.66699 1 9 3c4 7.33301 9.83301 22.833 17.5 46.5l25.5 82
l28.5 97.5l26 93.5l19.5 71c5.33301 19 8 28.833 8 29.5c1.33301 4 3.66602 6 6.99902 6c4.66699 0 7 -2 7 -6c0 -0.666992 -0.666992 -3.66699 -2 -9c-2.66699 -8.66699 -6.83398 -24.167 -12.501 -46.5s-12.5 -47.666 -20.5 -75.999l-25.5 -90l-26.5 -89.5
c-8.66699 -28 -16.667 -52.667 -24 -74s-13 -35.666 -17 -42.999c-3.33301 -6 -10 -9 -20 -9c-2.66699 0 -6.33398 0.5 -11.001 1.5s-8 3.5 -10 7.5c-4 7.33301 -9.83301 21.666 -17.5 42.999s-16 46.333 -25 75l-28.5 91.5l-28 91.5c-8.66699 28.667 -16 53.834 -22 75.501
s-9.66699 36.167 -11 43.5h-3z" />
    <glyph glyph-name="x" unicode="x" horiz-adv-x="388" 
d="M196 247c-37.333 48.667 -70.502 88.3359 -99.502 119.003l-57.5 60l-5 5c-2 2 -3 4 -3 6c0 4 2.33301 6 7 6c2 0 4 -1 6 -3l19 -18.5c10 -9.66699 22.167 -22.334 36.5 -38.001l48.5 -55c18 -21 36.667 -44.5 56 -70.5l131 182c2 2 4 3 6 3c4.66699 0 7 -2.33301 7 -7
c0 -2 -0.666992 -3.66699 -2 -5l-133 -184c25.333 -34 50.833 -70.667 76.5 -110s49.834 -81.333 72.501 -126c0.666992 -1.33301 1 -3 1 -5c0 -4 -2 -6 -6 -6c-3.33301 0 -5.66602 1.33301 -6.99902 4c-22 44 -45.667 85.167 -71 123.5s-50.333 74.166 -75 107.499
l-166 -232c-1.33301 -2 -3.33301 -3 -6 -3c-4.66699 0 -7 2 -7 6c0 1.33301 0.333008 2.66602 1 3.99902z" />
    <glyph glyph-name="y" unicode="y" horiz-adv-x="420" 
d="M249 31c-19.333 -54 -37.666 -97.499 -54.999 -130.499s-34.833 -58.5 -52.5 -76.5s-36 -30 -55 -36s-39.833 -9 -62.5 -9c-16 0 -30 1.16699 -42 3.5s-22.833 5.5 -32.5 9.5s-18.5 8.83301 -26.5 14.5l-25 18.5c-2 2 -3 4 -3 6c0 4.66699 2.33301 7 7 7c2 0 4 -1 6 -3
l18.5 -14.5c6.33301 -5 13.833 -9.5 22.5 -13.5s19 -7.33301 31 -10s26.667 -4 44 -4c20 0 38.333 2.66699 55 8s33 15.5 49 30.5s31.667 36 47 63s31.333 62.5 48 106.5c-4.66699 1.33301 -8.33398 3.66602 -11.001 6.99902c-10 14.667 -21.167 35.167 -33.5 61.5l-38 85
l-38 93l-33.5 87l-24.5 65.5c-6.33301 17.333 -9.83301 27.333 -10.5 30c-1.33301 4 -2 6.33301 -2 7c0 4 2.66699 6 8 6c2.66699 0 4.66699 -1.66699 6 -5c0 -0.666992 3.16699 -9.5 9.5 -26.5l24 -65l33.5 -88l38.5 -95c13 -31 25.667 -59.667 38 -86
s23.5 -46.833 33.5 -61.5c1.33301 -1.33301 3 -2 5 -2l58 159l25 68.5l25.5 70.5l24 67l21.5 59c1.33301 3.33301 3.33301 5 6 5c4.66699 0 7 -2 7 -6c0 -2 -2 -8.33301 -6 -19z" />
    <glyph glyph-name="z" unicode="z" horiz-adv-x="447" 
d="M61 0c-4 0 -6.00098 2.33105 -6.00098 6.99805c0 10 1.33301 17.667 4 23c4.66699 8.66699 14.5 23.334 29.5 44.001l53 71l65 84l66.5 84l50 63c14.667 18.667 25.667 33.334 33 44.001c2 2.66699 3 5.66699 3 9h-296c-4.66699 0 -7 2.33301 -7 7s2.33301 7 7 7h304
c4 0 6 -2 6 -6v-8c0 -2 -0.333008 -4.33301 -1 -7s-2 -5.66699 -4 -9c-7.33301 -10.667 -18.166 -25 -32.499 -43l-51.5 -65l-100 -127l-38 -49.5l-34.5 -45.5l-26.5 -37c-7.33301 -10.667 -12 -18 -14 -22s-3 -7.33301 -3 -10h317c4.66699 0 7 -2.33301 7 -7
s-2.33301 -7 -7 -7h-324z" />
    <glyph glyph-name="braceleft" unicode="{" horiz-adv-x="354" 
d="M128 205c0 16 -1.66602 28.666 -4.99902 37.999s-7.16602 16.5 -11.499 21.5s-8.5 8.16699 -12.5 9.5s-6.33301 2 -7 2c-4.66699 0 -7 2.33301 -7 7s2.33301 7 7 7c0.666992 0 3 0.5 7 1.5s8.16699 3.83301 12.5 8.5s8.16602 11.667 11.499 21s5 22 5 38v199
c0 18.667 3.83301 33.5 11.5 44.5s17.167 19.5 28.5 25.5s23.333 9.83301 36 11.5s24 2.5 34 2.5c12.667 0 21 -0.5 25 -1.5s6 -3.16699 6 -6.5c0 -4.66699 -2.33301 -7 -7 -7c-2 0 -4.66699 0.166992 -8 0.5s-8.66602 0.5 -15.999 0.5
c-9.33301 0 -19.5 -0.833008 -30.5 -2.5s-21.333 -5 -31 -10s-17.834 -12.167 -24.501 -21.5s-10 -21.333 -10 -36v-199c0 -24 -3.33301 -41.667 -10 -53s-13.667 -19.333 -21 -24c7.33301 -4.66699 14.333 -12.667 21 -24s10 -29 10 -53v-197
c0 -15.333 3.16699 -27.5 9.5 -36.5s14.333 -16.167 24 -21.5s20.167 -8.83301 31.5 -10.5s21.666 -2.5 30.999 -2.5c7.33301 0 12.833 0.333008 16.5 1s6.16699 1 7.5 1c4.66699 0 7 -2.33301 7 -7c0 -3.33301 -2 -5.66602 -6 -6.99902s-12.333 -2 -25 -2
c-10 0 -21.333 1 -34 3s-24.667 6 -36 12s-20.833 14.5 -28.5 25.5s-11.5 25.833 -11.5 44.5v197z" />
    <glyph glyph-name="bar" unicode="|" horiz-adv-x="224" 
d="M105 660c0 4.66699 2.33301 7 7 7s7 -2.33301 7 -7v-723c0 -4.66699 -2.33301 -7 -7 -7s-7 2.33301 -7 7v723z" />
    <glyph glyph-name="braceright" unicode="}" horiz-adv-x="354" 
d="M212 205c0 24 3.33398 41.668 10.001 53.001s13.667 19.333 21 24c-7.33301 4.66699 -14.333 12.667 -21 24s-10 29 -10 53v199c0 14.667 -3.33301 26.667 -10 36s-14.834 16.5 -24.501 21.5s-20 8.33301 -31 10s-21.167 2.5 -30.5 2.5
c-7.33301 0 -12.833 -0.166992 -16.5 -0.5s-6.16699 -0.5 -7.5 -0.5c-4.66699 0 -7 2.33301 -7 7c0 3.33301 2 5.5 6 6.5s12.333 1.5 25 1.5c10 0 21.333 -0.833008 34 -2.5s24.667 -5.5 36 -11.5s20.833 -14.5 28.5 -25.5s11.5 -25.833 11.5 -44.5v-199
c0 -16 1.66699 -28.667 5 -38s7.16602 -16.333 11.499 -21s8.5 -7.5 12.5 -8.5s6.33301 -1.5 7 -1.5c4.66699 0 7 -2.33301 7 -7s-2 -7 -6 -7c-0.666992 0 -3 -0.666992 -7 -2s-8.16699 -4.5 -12.5 -9.5s-8.33301 -12.167 -12 -21.5s-5.5 -22 -5.5 -38v-197
c0 -18.667 -3.83301 -33.5 -11.5 -44.5s-17.167 -19.5 -28.5 -25.5s-23.333 -10 -36 -12s-24 -3 -34 -3c-13.333 0 -21.833 0.666992 -25.5 2s-5.5 3.66602 -5.5 6.99902c0 4.66699 2.33301 7 7 7c1.33301 0 3.83301 -0.333008 7.5 -1s9.16699 -1 16.5 -1
c9.33301 0 19.5 1 30.5 3s21.333 5.5 31 10.5s17.834 12.167 24.501 21.5s10 21.333 10 36v197z" />
    <glyph glyph-name="asciitilde" unicode="~" horiz-adv-x="376" 
d="M303 451c-3.33301 -2 -7.66602 -4.33203 -12.999 -6.99902s-11.333 -5 -18 -7s-13.667 -3 -21 -3c-13.333 0 -24.833 1 -34.5 3s-19.167 4.66699 -28.5 8s-19 6.33301 -29 9s-21.333 4 -34 4c-12 0 -22.333 -2.66699 -31 -8s-14.334 -9 -17.001 -11
c-1.33301 -1.33301 -3 -2 -5 -2c-4.66699 0 -7 2.33301 -7 7c0 1.33301 1 3 3 5c2.66699 2 9.16699 6.16699 19.5 12.5s22.833 9.5 37.5 9.5c13.333 0 25.5 -1.33301 36.5 -4s21.167 -5.66699 30.5 -9c8.66699 -3.33301 17.5 -6 26.5 -8s19.833 -3 32.5 -3
c12 0 22.667 2.66699 32 8s15 8.66602 17 9.99902c1.33301 1.33301 3 2 5 2c4 0 6 -2 6 -6c0 -2 -1 -4 -3 -6z" />
    <glyph glyph-name="uni00A0" unicode="&#xa0;" horiz-adv-x="350" 
 />
    <glyph glyph-name="exclamdown" unicode="&#xa1;" horiz-adv-x="224" 
d="M105 304c0 4.66699 2.33301 7 7 7s7 -2.33301 7 -7v-481c0 -4.66699 -2.33301 -7 -7 -7s-7 2.33301 -7 7v481zM105 451c0 4.66699 2.33301 7 7 7s7 -2.33301 7 -7v-36c0 -4.66699 -2.33301 -7 -7 -7s-7 2.33301 -7 7v36z" />
    <glyph glyph-name="cent" unicode="&#xa2;" horiz-adv-x="620" 
d="M333 -6c-30 0 -57.168 5.5 -81.501 16.5s-45.166 26.5 -62.499 46.5s-30.666 44.167 -39.999 72.5s-14 59.5 -14 93.5c0 30 5 58 15 84s23.833 49 41.5 69s38.667 36.333 63 49s50.5 20.334 78.5 23.001v53c0 4.66699 2.33301 7 7 7s7 -2.33301 7 -7v-52h7
c21.333 0 42.166 -3.33301 62.499 -10s39.833 -16.334 58.5 -29.001c2 -1.33301 3 -3.33301 3 -6c0 -4.66699 -2 -7 -6 -7c-2 0 -3.33301 0.333008 -4 1c-16.667 12 -35 21.167 -55 27.5s-39.667 9.5 -59 9.5c-5.33301 0 -10.166 -0.166992 -14.499 -0.5
s-8.83301 -0.833008 -13.5 -1.5c-25.333 -3.33301 -48.833 -11 -70.5 -23s-40.334 -27.167 -56.001 -45.5s-28 -39.5 -37 -63.5s-13.5 -50 -13.5 -78c0 -26.667 3.5 -52.834 10.5 -78.501s18 -48.667 33 -69s34.167 -36.666 57.5 -48.999s51 -18.5 83 -18.5
c19.333 0 41.666 2.83301 66.999 8.5s48 14.5 68 26.5c3.33301 2 5.5 3.16699 6.5 3.5s2.16699 0.5 3.5 0.5c4.66699 0 7 -2.33301 7 -7c0 -3.33301 -1 -5.33301 -3 -6c-20 -12 -41.667 -21.333 -65 -28s-46.666 -10.667 -69.999 -12v-50c0 -4.66699 -2.33301 -7 -7 -7
s-7 2.33301 -7 7v50z" />
    <glyph glyph-name="sterling" unicode="&#xa3;" horiz-adv-x="664" 
d="M142 0c-4.66699 0 -7.00195 1.99902 -7.00195 5.99902c0 3.33301 1 5.66602 3 6.99902c18.667 12 34 23.833 46 35.5s21.5 23.5 28.5 35.5s11.833 24.333 14.5 37s4 26.667 4 42c0 20.667 -1.66699 41.167 -5 61.5s-6.66602 42.833 -9.99902 67.5h-71
c-4.66699 0 -7 2.33301 -7 7s2.33301 7 7 7h69c-1.33301 12 -2.5 24.333 -3.5 37s-1.5 26 -1.5 40c0 42 5 78.5 15 109.5s23.167 56.5 39.5 76.5s35 34.833 56 44.5s42.167 14.5 63.5 14.5c25.333 0 50.666 -4 75.999 -12c4 -1.33301 6 -3.66602 6 -6.99902
c0 -2.66699 -0.666992 -4.5 -2 -5.5s-2.66602 -1.5 -3.99902 -1.5s-4 0.666992 -8 2c-10 3.33301 -21.167 5.83301 -33.5 7.5s-23.833 2.5 -34.5 2.5c-20 0 -39.667 -4.5 -59 -13.5s-36.5 -23 -51.5 -42s-27 -43 -36 -72s-13.5 -63.5 -13.5 -103.5
c0 -14 0.5 -27.333 1.5 -40s2.16699 -25 3.5 -37h185c4.66699 0 7 -2.33301 7 -7s-2.33301 -7 -7 -7h-183c4.66699 -35.333 8.33398 -62.166 11.001 -80.499s4 -34.5 4 -48.5c0 -30 -5.66699 -56.5 -17 -79.5s-33 -46.167 -65 -69.5h359c4.66699 0 7 -2.33301 7 -7
s-2.33301 -7 -7 -7h-380z" />
    <glyph glyph-name="currency" unicode="&#xa4;" horiz-adv-x="567" 
d="M451 117c1.33301 -1.33301 2.00098 -3.00098 2.00098 -5.00098c0 -4.66699 -2.33301 -7 -7 -7c-2 0 -3.66699 0.666992 -5 2l-36 36c-16 -15.333 -34.333 -27.166 -55 -35.499s-42.667 -12.5 -66 -12.5s-45.5 4.16699 -66.5 12.5s-39.5 20.166 -55.5 35.499l-35 -36
c-1.33301 -1.33301 -3 -2 -5 -2c-4.66699 0 -7 2.33301 -7 7c0 2 0.666992 3.66699 2 5l36 35c-15.333 16 -27.166 34.5 -35.499 55.5s-12.5 43.167 -12.5 66.5s4.16699 45.333 12.5 66s20.166 39 35.499 55l-36 36c-1.33301 1.33301 -2 3.33301 -2 6c0 4 2.33301 6 7 6
c2 0 3.66699 -0.666992 5 -2l36 -36c16 14.667 34.333 26.167 55 34.5s42.667 12.5 66 12.5s45.333 -4.16699 66 -12.5s39 -20.166 55 -35.499l36 37c1.33301 1.33301 3 2 5 2c4.66699 0 7 -2.33301 7 -7c0 -2 -0.666992 -3.66699 -2 -5l-37 -36
c15.333 -16 27.166 -34.333 35.499 -55s12.5 -42.667 12.5 -66s-4.16699 -45.333 -12.5 -66s-19.833 -39 -34.5 -55zM284.001 108.999c22.667 0 44 4.33301 64 13s37.5 20.5 52.5 35.5s26.833 32.5 35.5 52.5s13 41.333 13 64s-4.33301 44 -13 64s-20.5 37.5 -35.5 52.5
s-32.5 26.833 -52.5 35.5s-41.333 13 -64 13s-44 -4.33301 -64 -13s-37.5 -20.5 -52.5 -35.5s-26.833 -32.5 -35.5 -52.5s-13 -41.333 -13 -64s4.33301 -44 13 -64s20.5 -37.5 35.5 -52.5s32.5 -26.833 52.5 -35.5s41.333 -13 64 -13z" />
    <glyph glyph-name="yen" unicode="&#xa5;" horiz-adv-x="661" 
d="M339 171l-0.000976562 -163.999c0 -4.66699 -2.33301 -7 -7 -7s-7 2.33301 -7 7v164h-193c-4.66699 0 -7 2.33301 -7 7s2.33301 7 7 7h193v81h-193c-4.66699 0 -7 2.33301 -7 7s2.33301 7 7 7h169l-87 174.5l-86 174.5c-0.666992 1.33301 -1 2.66602 -1 3.99902
s0.5 2.66602 1.5 3.99902s2.83301 2 5.5 2s4.66699 -1.33301 6 -4l57 -115l43.5 -87.5l31 -63l21.5 -42.5c13.333 -26.667 21.333 -42.334 24 -47.001h30c2.66699 4.66699 10.334 20.334 23.001 47.001l21 42.5l31.5 63l43 87.5l57.5 115c1.33301 2.66699 3.33301 4 6 4
c4.66699 0 7 -2 7 -6c0 -1.33301 -0.333008 -2.66602 -1 -3.99902l-86 -174.5l-87 -174.5h153c4.66699 0 7 -2.33301 7 -7s-2.33301 -7 -7 -7h-176v-81h176c4.66699 0 7 -2.33301 7 -7s-2.33301 -7 -7 -7h-176z" />
    <glyph glyph-name="brokenbar" unicode="&#xa6;" horiz-adv-x="224" 
d="M105 738c0 4.66699 2.33301 7 7 7s7 -2.33301 7 -7v-257c0 -4.66699 -2.33301 -7 -7 -7s-7 2.33301 -7 7v257zM105 263c0 4.66699 2.33301 7 7 7s7 -2.33301 7 -7v-256c0 -4.66699 -2.33301 -7 -7 -7s-7 2.33301 -7 7v256z" />
    <glyph glyph-name="section" unicode="&#xa7;" horiz-adv-x="619" 
d="M342 430c13.333 -6.66699 27.1709 -14.001 41.5039 -22.001s27.5 -17.5 39.5 -28.5s21.833 -24 29.5 -39s11.5 -32.833 11.5 -53.5c0 -18 -4.16699 -34.167 -12.5 -48.5s-18.5 -26.833 -30.5 -37.5s-24.333 -19.5 -37 -26.5s-23.334 -12.167 -32.001 -15.5
c12 -6 23.5 -12.5 34.5 -19.5s21 -15.667 30 -26s16.167 -22.666 21.5 -36.999s8 -31.5 8 -51.5c0 -17.333 -3.5 -33.5 -10.5 -48.5s-16.833 -28 -29.5 -39s-27.667 -19.5 -45 -25.5s-36.333 -9 -57 -9c-20 0 -38.5 2.16699 -55.5 6.5s-32 9 -45 14s-23.333 9.66699 -31 14
s-11.834 6.83301 -12.501 7.5c-2 0.666992 -3 2.66699 -3 6c0 4 2 6 6 6c2.66699 0 4.66699 -0.666992 6 -2s6 -4 14 -8s18 -8.16699 30 -12.5s25.833 -8.33301 41.5 -12s32.167 -5.5 49.5 -5.5c37.333 0 68 10 92 30s36 46 36 78c0 20 -2.83301 36.833 -8.5 50.5
s-13 25.167 -22 34.5s-19.5 17.166 -31.5 23.499l-36 18.5l-74 37l-36.5 19c-12.333 6.66699 -23.666 14.334 -33.999 23.001s-18.666 18.334 -24.999 29.001s-9.5 23 -9.5 37c0 22.667 5.16699 42.334 15.5 59.001s22.666 30.667 36.999 42s29.166 20.5 44.499 27.5
s28 12.167 38 15.5l-39 18.5c-13.333 6.33301 -25.333 14 -36 23s-19.5 20.167 -26.5 33.5s-10.5 30.333 -10.5 51c0 18 4.16699 33.833 12.5 47.5s19.166 24.834 32.499 33.501s28.333 15.167 45 19.5s33.334 6.5 50.001 6.5c16 0 30.833 -1.5 44.5 -4.5
s25.5 -6.33301 35.5 -10s18.333 -7.33398 25 -11.001s11 -6.16699 13 -7.5c2.66699 -2 4 -4.33301 4 -7c0 -4.66699 -2.33301 -7 -7 -7c-2.66699 0 -4.66699 0.666992 -6 2c-1.33301 0.666992 -5 2.83398 -11 6.50098s-13.833 7.16699 -23.5 10.5s-20.834 6.5 -33.501 9.5
s-26.334 4.5 -41.001 4.5c-15.333 0 -30.5 -1.83301 -45.5 -5.5s-28.5 -9.33398 -40.5 -17.001s-21.667 -17.334 -29 -29.001s-11 -25.5 -11 -41.5c0 -16.667 2.33301 -30.5 7 -41.5s11 -20.333 19 -28s17.333 -14.334 28 -20.001s21.667 -11.167 33 -16.5zM335.005 166.999
c4 1.33301 12.167 4.83301 24.5 10.5s25.333 13.5 39 23.5s25.667 22.167 36 36.5s15.5 30.833 15.5 49.5s-3.66699 34.834 -11 48.501s-17 25.834 -29 36.501s-25.833 20.167 -41.5 28.5l-48.5 25.5l-12 6l-29 -10c-14.667 -4.66699 -30.167 -12.334 -46.5 -23.001
s-31 -24.334 -44 -41.001s-19.5 -37 -19.5 -61c0 -12.667 3.33301 -24 10 -34s16 -19.333 28 -28s26 -17.167 42 -25.5l53 -26.5z" />
    <glyph glyph-name="dieresis" unicode="&#xa8;" horiz-adv-x="274" 
d="M65 587c0 4.66699 2.33301 7 7 7s7 -2.33301 7 -7v-36c0 -4.66699 -2.33301 -7 -7 -7s-7 2.33301 -7 7v36zM195 587c0 4.66699 2.33301 7 7 7s7 -2.33301 7 -7v-36c0 -4.66699 -2.33301 -7 -7 -7s-7 2.33301 -7 7v36z" />
    <glyph glyph-name="copyright" unicode="&#xa9;" horiz-adv-x="860" 
d="M525 554c-9.33301 6 -21.166 11.6611 -35.499 16.9941s-32.833 8 -55.5 8c-20 0 -38.333 -4 -55 -12s-31.167 -19.167 -43.5 -33.5s-22 -31.166 -29 -50.499s-10.5 -40.333 -10.5 -63c0 -23.333 3.33301 -44.666 10 -63.999s15.834 -36.166 27.501 -50.499
s25.5 -25.5 41.5 -33.5s33.667 -12 53 -12c17.333 0 33.333 2 48 6s29.667 10.333 45 19c1.33301 0.666992 2.66602 1 3.99902 1c4 0 6 -2.33301 6 -7c0 -3.33301 -1 -5.33301 -3 -6c-16.667 -9.33301 -32.834 -16.166 -48.501 -20.499s-32.834 -6.5 -51.501 -6.5
c-21.333 0 -40.833 4.33301 -58.5 13s-33 20.834 -46 36.501s-23.167 34 -30.5 55s-11 44.167 -11 69.5c0 24.667 3.83301 47.5 11.5 68.5s18.334 39.333 32.001 55s29.667 27.834 48 36.501s38.5 13 60.5 13c24 0 44.333 -3 61 -9s29 -12 37 -18c2 -2 3 -4 3 -6
c0 -4.66699 -2 -7 -6 -7c-2 0 -3.33301 0.333008 -4 1zM755 412.994c0 -44.667 -8.5 -86.667 -25.5 -126s-40.333 -73.833 -70 -103.5s-64.167 -53 -103.5 -70s-81.333 -25.5 -126 -25.5s-86.667 8.5 -126 25.5s-73.833 40.333 -103.5 70s-53 64.167 -70 103.5
s-25.5 81.333 -25.5 126s8.5 86.667 25.5 126s40.333 73.833 70 103.5s64.167 53 103.5 70s81.333 25.5 126 25.5s86.667 -8.5 126 -25.5s73.833 -40.333 103.5 -70s53 -64.167 70 -103.5s25.5 -81.333 25.5 -126zM741 412.994c0 42.667 -8.16699 82.834 -24.5 120.501
s-38.666 70.667 -66.999 99s-61.333 50.666 -99 66.999s-77.834 24.5 -120.501 24.5s-82.834 -8.16699 -120.501 -24.5s-70.667 -38.666 -99 -66.999s-50.666 -61.333 -66.999 -99s-24.5 -77.834 -24.5 -120.501s8.16699 -82.834 24.5 -120.501s38.666 -70.667 66.999 -99
s61.333 -50.666 99 -66.999s77.834 -24.5 120.501 -24.5s82.834 8.16699 120.501 24.5s70.667 38.666 99 66.999s50.666 61.333 66.999 99s24.5 77.834 24.5 120.501z" />
    <glyph glyph-name="ordfeminine" unicode="&#xaa;" horiz-adv-x="500" 
d="M335 553c0 24 -8.50195 43.6689 -25.502 59.002s-39.167 23 -66.5 23c-14.667 0 -27.834 -1.33301 -39.501 -4s-21.667 -5.5 -30 -8.5s-15 -5.66699 -20 -8s-8.16699 -3.5 -9.5 -3.5c-4.66699 0 -7 2 -7 6c0 2 1.33301 4 4 6c6.66699 5.33301 19.5 10.833 38.5 16.5
s40.167 8.5 63.5 8.5c24.667 0 44.167 -4.66699 58.5 -14s25 -19.833 32 -31.5s11.333 -22.5 13 -32.5s2.5 -15.667 2.5 -17v-188c0 -9.33301 1.16699 -16.333 3.5 -21s5 -8.33398 8 -11.001s5.83301 -4.16699 8.5 -4.5s4.33398 -0.5 5.00098 -0.5c4 0 6 -2.33301 6 -7
s-2.33301 -7 -7 -7c-0.666992 0 -2.5 0.166992 -5.5 0.5s-6.5 1.66602 -10.5 3.99902s-7.83301 5.83301 -11.5 10.5s-6.5 11 -8.5 19c-26.667 -26.667 -62 -40 -106 -40c-13.333 0 -26.666 1.83301 -39.999 5.5s-25.166 9.5 -35.499 17.5s-18.833 17.833 -25.5 29.5
s-10 25.5 -10 41.5c0 62.667 44.333 94 133 94h82v57zM334.998 483.002l-81.999 -0.000976562c-79.333 0 -119 -27 -119 -81c0 -14 2.83301 -26 8.5 -36s13.167 -18.167 22.5 -24.5s19.666 -11.166 30.999 -14.499s23 -5 35 -5c45.333 0 80 14.667 104 44v117z" />
    <glyph glyph-name="guillemotleft" unicode="&#xab;" horiz-adv-x="408" 
d="M76 215c-0.666992 1.33301 -1 2.66699 -1 4s0.333008 2.33301 1 3l106 155c0.666992 2 2.66699 3 6 3c4.66699 0 7 -2 7 -6c0 -2 -0.666992 -3.66699 -2 -5l-104 -150l104 -158c1.33301 -1.33301 2 -3 2 -5c0 -4 -2.33301 -6 -7 -6c-2.66699 0 -4.66699 1.33301 -6 4z
M214 215.001c-0.666992 1.33301 -1 2.66699 -1 4s0.333008 2.33301 1 3l106 155c0.666992 2 2.66699 3 6 3c4.66699 0 7 -2 7 -6c0 -2 -0.666992 -3.66699 -2 -5l-104 -150l104 -158c1.33301 -1.33301 2 -3 2 -5c0 -4 -2.33301 -6 -7 -6c-2.66699 0 -4.66699 1.33301 -6 4z
" />
    <glyph glyph-name="logicalnot" unicode="&#xac;" horiz-adv-x="600" 
d="M497 219h-401c-4.66699 0 -7 2.33301 -7 7s2.33301 7 7 7h408c4.66699 0 7 -2.33301 7 -7v-135c0 -4.66699 -2.33301 -7 -7 -7s-7 2.33301 -7 7v128z" />
    <glyph glyph-name="uni00AD" unicode="&#xad;" horiz-adv-x="426" 
d="M92 219c-4.66699 0 -7 2.33301 -7 7s2.33301 7 7 7h242c4.66699 0 7 -2.33301 7 -7s-2.33301 -7 -7 -7h-242z" />
    <glyph glyph-name="registered" unicode="&#xae;" horiz-adv-x="860" 
d="M337 585c0 4.66699 2.66602 7.00098 7.99902 7.00098h84c27.333 0 49.833 -8 67.5 -24s26.5 -36 26.5 -60c0 -30 -7.83301 -51.833 -23.5 -65.5s-33.167 -22.167 -52.5 -25.5c36 -22.667 67 -74.334 93 -155.001c0.666992 -2 1 -3.66699 1 -5c0 -4 -2.33301 -6 -7 -6
c-3.33301 0 -5.66602 1.66699 -6.99902 5c-15.333 50 -33.5 89 -54.5 117s-42.167 42 -63.5 42h-58v-157c0 -4.66699 -2.33301 -7 -7 -7s-7 2.33301 -7 7v327zM428.999 429.001c4.66699 0 11.499 0.667969 20.499 2.00098s17.833 4.66602 26.5 9.99902
s16.334 13.333 23.001 24s10 25 10 43c0 20.667 -7.5 37.5 -22.5 50.5s-34.167 19.5 -57.5 19.5h-78v-149h78zM429.998 88.002c-44.667 0 -86.667 8.5 -126 25.5s-73.833 40.333 -103.5 70s-53 64.167 -70 103.5s-25.5 81.333 -25.5 126s8.5 86.667 25.5 126
s40.333 73.833 70 103.5s64.167 53 103.5 70s81.333 25.5 126 25.5s86.667 -8.5 126 -25.5s73.833 -40.333 103.5 -70s53 -64.167 70 -103.5s25.5 -81.333 25.5 -126s-8.5 -86.667 -25.5 -126s-40.333 -73.833 -70 -103.5s-64.167 -53 -103.5 -70s-81.333 -25.5 -126 -25.5z
M740.998 413.002c0 42.667 -8.16699 82.834 -24.5 120.501s-38.666 70.667 -66.999 99s-61.333 50.666 -99 66.999s-77.834 24.5 -120.501 24.5s-82.834 -8.16699 -120.501 -24.5s-70.667 -38.666 -99 -66.999s-50.666 -61.333 -66.999 -99s-24.5 -77.834 -24.5 -120.501
s8.16699 -82.834 24.5 -120.501s38.666 -70.667 66.999 -99s61.333 -50.666 99 -66.999s77.834 -24.5 120.501 -24.5s82.834 8.16699 120.501 24.5s70.667 38.666 99 66.999s50.666 61.333 66.999 99s24.5 77.834 24.5 120.501z" />
    <glyph glyph-name="macron" unicode="&#xaf;" horiz-adv-x="386" 
d="M72 544c-4.66699 0 -7 2.33301 -7 7s2.33301 7 7 7h242c4.66699 0 7 -2.33301 7 -7s-2.33301 -7 -7 -7h-242z" />
    <glyph glyph-name="degree" unicode="&#xb0;" horiz-adv-x="439" 
d="M219 277c-42 0 -74.834 14.167 -98.501 42.5s-35.5 67.833 -35.5 118.5c0 50 12 90 36 120s56.667 45 98 45c40.667 0 73.334 -15 98.001 -45s37 -70 37 -120c0 -50.667 -12 -90.167 -36 -118.5s-57 -42.5 -99 -42.5zM218.999 290c38 0 67.833 13.001 89.5 39.001
s32.5 62.333 32.5 109c0 18.667 -2.5 37.167 -7.5 55.5s-12.5 34.666 -22.5 48.999s-22.667 25.833 -38 34.5s-33.333 13 -54 13c-22.667 0 -41.667 -4.66699 -57 -14s-27.833 -21.333 -37.5 -36s-16.5 -31 -20.5 -49s-6 -35.667 -6 -53c0 -46.667 10.667 -83 32 -109
s51 -39 89 -39z" />
    <glyph glyph-name="plusminus" unicode="&#xb1;" horiz-adv-x="600" 
d="M307 285v-185c0 -4.66699 -2.33301 -7 -7 -7s-7 2.33301 -7 7v185h-184c-4.66699 0 -7 2.33301 -7 7s2.33301 7 7 7h184v184c0 4.66699 2.33301 7 7 7s7 -2.33301 7 -7v-184h184c4.66699 0 7 -2.33301 7 -7s-2.33301 -7 -7 -7h-184zM109 0c-4.66699 0 -7 2.33301 -7 7
s2.33301 7 7 7h382c4.66699 0 7 -2.33301 7 -7s-2.33301 -7 -7 -7h-382z" />
    <glyph glyph-name="twosuperior" unicode="&#xb2;" horiz-adv-x="390" 
d="M110 306c-5.33301 0 -8.00098 2.33105 -8.00098 6.99805c0 18.667 8.66699 38.167 26 58.5s36.5 40.833 57.5 61.5s40.167 41.334 57.5 62.001s26 41 26 61c0 22 -6.33301 39.5 -19 52.5s-31.334 19.5 -56.001 19.5c-9.33301 0 -18.166 -1.16699 -26.499 -3.5
s-15.666 -5 -21.999 -8l-15.5 -7.5l-5 -3c-0.666992 -0.666992 -2 -1 -4 -1c-4.66699 0 -7 2.33301 -7 7c0 2 1 3.66699 3 5l6 4c4.66699 2.66699 10.5 5.5 17.5 8.5s15 5.83301 24 8.5s18.833 4 29.5 4c6.66699 0 15 -0.833008 25 -2.5s19.667 -5.5 29 -11.5
s17.5 -14.667 24.5 -26s10.5 -26.666 10.5 -45.999c0 -21.333 -8.16699 -42.333 -24.5 -63s-34.666 -41 -54.999 -61l-57 -58c-17.667 -18.667 -27.834 -36.667 -30.501 -54h162c4.66699 0 7 -2.33301 7 -7s-2.33301 -7 -7 -7h-168z" />
    <glyph glyph-name="threesuperior" unicode="&#xb3;" horiz-adv-x="396" 
d="M224 475c19.333 -6 35.6689 -14.998 49.002 -26.998s20 -31.333 20 -58c0 -12 -2.66699 -23.333 -8 -34s-12.5 -19.834 -21.5 -27.501s-19.5 -13.834 -31.5 -18.501s-24.667 -7 -38 -7c-25.333 0 -45.333 3.33301 -60 10s-24 11.667 -28 15c-2 2 -3 4 -3 6
c0 4.66699 2.33301 7 7 7c2 0 3.5 -0.333008 4.5 -1s2.16699 -1.66699 3.5 -3c4 -3.33301 12.5 -7.5 25.5 -12.5s29.833 -7.5 50.5 -7.5c10 0 20 1.66699 30 5s19 8.16602 27 14.499s14.667 14 20 23s8 19.167 8 30.5c0 16.667 -3.5 30 -10.5 40s-16 17.833 -27 23.5
s-22.833 9.33398 -35.5 11.001s-24.334 2.5 -35.001 2.5c-4.66699 0 -7 2.33301 -7 7s2.66699 7 8 7c10.667 0 22 1 34 3s23 5.66699 33 11s18.167 12.833 24.5 22.5s9.5 22.5 9.5 38.5c0 24.667 -7.66699 42.834 -23 54.501s-34.333 17.5 -57 17.5
c-17.333 0 -32.5 -3.33301 -45.5 -10s-20.5 -10.667 -22.5 -12c-0.666992 -0.666992 -2 -1 -4 -1c-4 0 -6 2 -6 6c0 2 0.666992 3.66699 2 5l6 4c4 3.33301 9.5 6.5 16.5 9.5s15 5.83301 24 8.5s18.833 4 29.5 4c5.33301 0 13.333 -0.833008 24 -2.5
s21.167 -5.33398 31.5 -11.001s19.333 -14.167 27 -25.5s11.5 -27 11.5 -47c0 -20.667 -5.83301 -38 -17.5 -52s-26.834 -23.667 -45.501 -29z" />
    <glyph glyph-name="acute" unicode="&#xb4;" horiz-adv-x="317" 
d="M79 546c-2.66699 -1.33301 -5 -2.00098 -7 -2.00098c-4.66699 0 -7 2 -7 6s2 6.66699 6 8l167 71c2.66699 1.33301 5 2 7 2c4.66699 0 7 -2 7 -6c0 -3.33301 -1.33301 -5.66602 -4 -6.99902z" />
    <glyph glyph-name="uni00B5" unicode="&#xb5;" horiz-adv-x="489" 
d="M390 436c0 4.66699 2.33398 7 7.00098 7s7 -2.33301 7 -7v-429c0 -4.66699 -2.33301 -7 -7 -7s-7 2.33301 -7 7v40c-6 -6 -14 -12.167 -24 -18.5s-21.333 -12 -34 -17s-26.167 -9.16699 -40.5 -12.5s-28.833 -5 -43.5 -5c-42.667 0 -76.834 6.33301 -102.501 19
s-41.167 31.667 -46.5 57v-180c0 -4.66699 -2.33301 -7 -7 -7s-7 2.33301 -7 7v546c0 4.66699 2.33301 7 7 7s7 -2.33301 7 -7v-298c0 -50 12.5 -84.167 37.5 -102.5s62.167 -27.5 111.5 -27.5c30 0 57.5 5.5 82.5 16.5s44.833 23.833 59.5 38.5v373z" />
    <glyph glyph-name="paragraph" unicode="&#xb6;" horiz-adv-x="582" 
d="M428 625l-73 0.000976562v-708c0 -4.66699 -2.33301 -7 -7 -7s-7 2.33301 -7 7v387h-84c-20 0 -40.167 3 -60.5 9s-38.833 16 -55.5 30s-30.167 32.167 -40.5 54.5s-15.5 49.833 -15.5 82.5c0 22.667 4.33301 43.667 13 63s20.667 36.166 36 50.499s33.5 25.5 54.5 33.5
s43.833 12 68.5 12h233c4.66699 0 7 -2.33301 7 -7s-2.33301 -7 -7 -7h-48v-708c0 -4.66699 -2.33301 -7 -7 -7s-7 2.33301 -7 7v708z" />
    <glyph glyph-name="periodcentered" unicode="&#xb7;" horiz-adv-x="204" 
d="M102 243c-11.333 0 -17 5.66699 -17 17s5.66699 17 17 17s17 -5.66699 17 -17s-5.66699 -17 -17 -17z" />
    <glyph glyph-name="cedilla" unicode="&#xb8;" horiz-adv-x="258" 
d="M85 2c1.33301 3.33301 3.3291 4.99805 5.99609 4.99805c4.66699 0 7 -2.66699 7 -8l-16 -72c5.33301 2 11.666 4.16699 18.999 6.5s16.666 3.5 27.999 3.5c16 0 30.667 -6.16699 44 -18.5s20 -30.166 20 -53.499c0 -13.333 -2.66699 -24.666 -8 -33.999
s-12 -17.333 -20 -24s-16.667 -11.5 -26 -14.5s-18 -4.5 -26 -4.5c-17.333 0 -28.833 2 -34.5 6s-8.5 7 -8.5 9c0 4.66699 2.33301 7 7 7c2.66699 0 5.83398 -1.33301 9.50098 -4s12.5 -4 26.5 -4c6.66699 0 13.834 1.33301 21.501 4s14.834 6.5 21.501 11.5
s12.167 11.5 16.5 19.5s6.5 17.333 6.5 28c0 20 -5.33301 34.667 -16 44s-22 14 -34 14c-9.33301 0 -18.666 -1 -27.999 -3s-17.666 -5.66699 -24.999 -11c-1.33301 -1.33301 -3 -2 -5 -2c-3.33301 0 -5.16602 0.833008 -5.49902 2.5s-0.5 3.16699 -0.5 4.5z" />
    <glyph glyph-name="onesuperior" unicode="&#xb9;" horiz-adv-x="254" 
d="M120 620l-44.001 -30c-3.33301 -2 -5.66602 -3 -6.99902 -3c-4 0 -6 2.33301 -6 7c0 2.66699 1 4.66699 3 6l57 38c0.666992 0.666992 2 1 4 1c4.66699 0 7 -2.33301 7 -7v-319c0 -4.66699 -2.33301 -7 -7 -7s-7 2.33301 -7 7v307z" />
    <glyph glyph-name="ordmasculine" unicode="&#xba;" horiz-adv-x="522" 
d="M261 308c-21.333 0 -40.501 4.00098 -57.501 12.001s-31.833 19.5 -44.5 34.5s-22.334 32.667 -29.001 53s-10 43.166 -10 68.499c0 26 3.33301 49.5 10 70.5s16.334 39 29.001 54s27.5 26.667 44.5 35s36.167 12.5 57.5 12.5c20.667 0 39.667 -4.16699 57 -12.5
s32.333 -20 45 -35s22.334 -33 29.001 -54s10 -44.5 10 -70.5c0 -52 -12.5 -93 -37.5 -123s-59.5 -45 -103.5 -45zM260.999 322.001c40 0 71.167 13.5 93.5 40.5s33.5 64.833 33.5 113.5c0 48 -11.5 86.333 -34.5 115s-53.833 43 -92.5 43c-38 0 -68.667 -14.333 -92 -43
s-35 -67 -35 -115c0 -47.333 11.5 -84.833 34.5 -112.5s53.833 -41.5 92.5 -41.5z" />
    <glyph glyph-name="guillemotright" unicode="&#xbb;" horiz-adv-x="408" 
d="M319 219l-104 149.999c-1.33301 1.33301 -2 3 -2 5c0 4 2.33301 6 7 6c2.66699 0 4.66699 -1 6 -3l106 -155c0.666992 -0.666992 1 -1.66699 1 -3s-0.333008 -2.66602 -1 -3.99902l-106 -161c-1.33301 -2.66699 -3.33301 -4 -6 -4c-4.66699 0 -7 2 -7 6
c0 2 0.666992 3.66699 2 5zM181 218.999l-104 149.999c-1.33301 1.33301 -2 3 -2 5c0 4 2.33301 6 7 6c2.66699 0 4.66699 -1 6 -3l106 -155c0.666992 -0.666992 1 -1.66699 1 -3s-0.333008 -2.66602 -1 -3.99902l-106 -161c-1.33301 -2.66699 -3.33301 -4 -6 -4
c-4.66699 0 -7 2 -7 6c0 2 0.666992 3.66699 2 5z" />
    <glyph glyph-name="onequarter" unicode="&#xbc;" horiz-adv-x="749" 
d="M556 89l-154 -0.000976562c-5.33301 0 -8 2.66699 -8 8c0 0.666992 0.666992 3 2 7c12 27.333 26 53.333 42 78s31.667 47 47 67s29.5 37 42.5 51s22.5 23.667 28.5 29c3.33301 3.33301 6 5 8 5c4.66699 0 7 -2 7 -6c0 -2.66699 -1.66699 -5.66699 -5 -9l-17 -18
c-10.667 -11.333 -24 -26.666 -40 -45.999s-32.833 -42 -50.5 -68s-33.5 -54 -47.5 -84h145v159c0 5.33301 2.33301 8 7 8s7 -2.66699 7 -8v-159h38c5.33301 0 8 -2.33301 8 -7s-2.66699 -7 -8 -7h-38v-81c0 -5.33301 -2.33301 -8 -7 -8s-7 2.66699 -7 8v81zM581 641.999
c0.666992 2 2.66699 3.00195 6 3.00195c4.66699 0 7 -2 7 -6c0 -0.666992 -0.666992 -2.33398 -2 -5.00098l-436 -632c-1.33301 -1.33301 -3 -2 -5 -2c-4.66699 0 -7 2 -7 6c0 1.33301 0.333008 2.66602 1 3.99902zM197 620.001l-44.001 -30
c-3.33301 -2 -5.66602 -3 -6.99902 -3c-4 0 -6 2.33301 -6 7c0 2.66699 1 4.66699 3 6l57 38c0.666992 0.666992 2 1 4 1c4.66699 0 7 -2.33301 7 -7v-319c0 -4.66699 -2.33301 -7 -7 -7s-7 2.33301 -7 7v307z" />
    <glyph glyph-name="onehalf" unicode="&#xbd;" horiz-adv-x="795" 
d="M581 642c0.666992 2 2.66699 3.00195 6 3.00195c4.66699 0 7 -2 7 -6c0 -0.666992 -0.666992 -2.33398 -2 -5.00098l-436 -632c-1.33301 -1.33301 -3 -2 -5 -2c-4.66699 0 -7 2 -7 6c0 1.33301 0.333008 2.66602 1 3.99902zM485 0.00195312
c-5.33301 0 -8.00098 2.33105 -8.00098 6.99805c0 18.667 8.66699 38.167 26 58.5s36.5 40.833 57.5 61.5s40.167 41.334 57.5 62.001s26 41 26 61c0 22 -6.33301 39.5 -19 52.5s-31.334 19.5 -56.001 19.5c-9.33301 0 -18.166 -1.16699 -26.499 -3.5s-15.666 -5 -21.999 -8
l-15.5 -7.5l-5 -3c-0.666992 -0.666992 -2 -1 -4 -1c-4.66699 0 -7 2.33301 -7 7c0 2 1 3.66699 3 5l6 4c4.66699 2.66699 10.5 5.5 17.5 8.5s15 5.83301 24 8.5s18.833 4 29.5 4c6.66699 0 15 -0.833008 25 -2.5s19.667 -5.5 29 -11.5s17.5 -14.667 24.5 -26
s10.5 -26.666 10.5 -45.999c0 -21.333 -8.16699 -42.333 -24.5 -63s-34.666 -41 -54.999 -61l-57 -58c-17.667 -18.667 -27.834 -36.667 -30.501 -54h162c4.66699 0 7 -2.33301 7 -7s-2.33301 -7 -7 -7h-168zM196.999 620l-44.001 -30c-3.33301 -2 -5.66602 -3 -6.99902 -3
c-4 0 -6 2.33301 -6 7c0 2.66699 1 4.66699 3 6l57 38c0.666992 0.666992 2 1 4 1c4.66699 0 7 -2.33301 7 -7v-319c0 -4.66699 -2.33301 -7 -7 -7s-7 2.33301 -7 7v307z" />
    <glyph glyph-name="threequarters" unicode="&#xbe;" horiz-adv-x="774" 
d="M586 89l-154 -0.000976562c-5.33301 0 -8 2.66699 -8 8c0 0.666992 0.666992 3 2 7c12 27.333 26 53.333 42 78s31.667 47 47 67s29.5 37 42.5 51s22.5 23.667 28.5 29c3.33301 3.33301 6 5 8 5c4.66699 0 7 -2 7 -6c0 -2.66699 -1.66699 -5.66699 -5 -9l-17 -18
c-10.667 -11.333 -24 -26.666 -40 -45.999s-32.833 -42 -50.5 -68s-33.5 -54 -47.5 -84h145v159c0 5.33301 2.33301 8 7 8s7 -2.66699 7 -8v-159h38c5.33301 0 8 -2.33301 8 -7s-2.66699 -7 -8 -7h-38v-81c0 -5.33301 -2.33301 -8 -7 -8s-7 2.66699 -7 8v81zM611 641.999
c0.666992 2 2.66699 3.00195 6 3.00195c4.66699 0 7 -2 7 -6c0 -0.666992 -0.666992 -2.33398 -2 -5.00098l-436 -632c-1.33301 -1.33301 -3 -2 -5 -2c-4.66699 0 -7 2 -7 6c0 1.33301 0.333008 2.66602 1 3.99902zM255 472.001c19.333 -6 35.167 -14.9971 47.5 -26.9971
s18.5 -30.667 18.5 -56c0 -12 -2.5 -23.333 -7.5 -34s-11.833 -19.834 -20.5 -27.501s-18.834 -13.834 -30.501 -18.501s-24.167 -7 -37.5 -7c-25.333 0 -45.166 3.33301 -59.499 10s-23.5 11.667 -27.5 15c-2 2 -3 4 -3 6c0 4.66699 2.33301 7 7 7
c2 0 3.5 -0.333008 4.5 -1s2.16699 -1.66699 3.5 -3c4 -3.33301 12.333 -7.5 25 -12.5s29.334 -7.5 50.001 -7.5c10 0 19.833 1.66699 29.5 5s18.334 8.16602 26.001 14.499s14 14 19 23s7.5 19.167 7.5 30.5c0 16 -3.33301 29 -10 39s-15.334 17.667 -26.001 23
s-22.167 8.83301 -34.5 10.5s-23.833 2.5 -34.5 2.5c-4.66699 0 -7 2.33301 -7 7s2.66699 7 8 7c10.667 0 21.834 1 33.501 3s22.5 5.5 32.5 10.5s18.167 12.167 24.5 21.5s9.5 21.666 9.5 36.999c0 24.667 -7.5 42.834 -22.5 54.501s-33.833 17.5 -56.5 17.5
c-18 0 -33.167 -3.33301 -45.5 -10s-19.5 -10.667 -21.5 -12c-0.666992 -0.666992 -2 -1 -4 -1c-4 0 -6 2 -6 6c0 2 0.666992 3.66699 2 5l6 4c4 3.33301 9.33301 6.5 16 9.5s14.5 5.83301 23.5 8.5s18.833 4 29.5 4c5.33301 0 13.166 -0.833008 23.499 -2.5
s20.666 -5.33398 30.999 -11.001s19.333 -14.167 27 -25.5s11.5 -27 11.5 -47c0 -19.333 -5.66699 -35.666 -17 -48.999s-26.333 -23 -45 -29z" />
    <glyph glyph-name="questiondown" unicode="&#xbf;" horiz-adv-x="504" 
d="M407 -135c-0.666992 -0.666992 -4.66895 -3.66602 -12.002 -8.99902s-17.5 -11 -30.5 -17s-28.167 -11.333 -45.5 -16s-36.333 -7 -57 -7c-24.667 0 -47.167 4.33301 -67.5 13s-37.833 20.834 -52.5 36.501s-26.167 34.167 -34.5 55.5s-12.5 44.666 -12.5 69.999
s4.66699 46.5 14 63.5s20.833 32 34.5 45s28.667 25.333 45 37s31.333 25 45 40s25.167 33 34.5 54s14 47.5 14 79.5c0 4.66699 2.33301 7 7 7s7 -2.33301 7 -7c0 -32.667 -4.66699 -60.167 -14 -82.5s-20.833 -41.333 -34.5 -57s-28.667 -29.5 -45 -41.5
s-31.333 -24.333 -45 -37s-25.167 -26.834 -34.5 -42.501s-14 -35.167 -14 -58.5s3.66699 -44.833 11 -64.5s17.833 -36.667 31.5 -51s29.834 -25.5 48.501 -33.5s39.334 -12 62.001 -12c19.333 0 37.333 2.33301 54 7s31.167 10 43.5 16s21.833 11.333 28.5 16l11 7
c0.666992 0.666992 1.66699 1 3 1c4.66699 0 7 -2.33301 7 -7c0 -2 -0.666992 -3.66699 -2 -5zM281.998 451.001c0 4.66699 2.33301 7 7 7s7 -2.33301 7 -7v-36c0 -4.66699 -2.33301 -7 -7 -7s-7 2.33301 -7 7v36z" />
    <glyph glyph-name="Agrave" unicode="&#xc0;" horiz-adv-x="568" 
d="M111 205l-22.999 -70.998l-19 -59l-13.5 -44l-7.5 -25c-1.33301 -4 -3.66602 -6 -6.99902 -6c-4 0 -6 2.33301 -6 7c0 1.33301 0.5 4 1.5 8s2.16699 7.66699 3.5 11c26.667 88.667 53.334 172 80.001 250l35 101.5l35.5 98.5c11.667 31.333 23.167 60.166 34.5 86.499
s21.666 48.166 30.999 65.499c4 7.33301 13 11 27 11c2.66699 0 7.16699 -0.5 13.5 -1.5s10.833 -4.16699 13.5 -9.5c11.333 -22.667 24.666 -53.167 39.999 -91.5l47.5 -124l47.5 -134.5l41.5 -123.5l30 -91.5c7.66699 -24 11.5 -36.333 11.5 -37
c1.33301 -3.33301 2.5 -7 3.5 -11s1.5 -6.66699 1.5 -8c0 -4.66699 -2 -7 -6 -7s-6.33301 2 -7 6c-2.66699 9.33301 -9.83398 31.833 -21.501 67.5l-43.5 131.5h-344zM450.001 219.002l-39 113.999l-41 113.5l-38.5 100.5c-12.333 30.667 -23.5 55.334 -33.5 74.001
c-1.33301 2.66699 -6.33301 4 -15 4s-13.667 -1.33301 -15 -4c-10 -18.667 -21.333 -43.334 -34 -74.001l-39.5 -100.5c-13.667 -36.333 -27.167 -74.166 -40.5 -113.499l-38 -114h334zM168.001 815.001c-6 2.66699 -8.99902 5.66602 -8.99902 8.99902
c0 4.66699 2.33301 7 7 7c2 0 4.33301 -0.666992 7 -2l169 -72c2 -1.33301 3 -3.66602 3 -6.99902c0 -2 -0.833008 -3.5 -2.5 -4.5s-3.16699 -1.5 -4.5 -1.5c-0.666992 0 -4.33398 1.33301 -11.001 4z" />
    <glyph glyph-name="Aacute" unicode="&#xc1;" horiz-adv-x="568" 
d="M111 205l-22.999 -70.998l-19 -59l-13.5 -44l-7.5 -25c-1.33301 -4 -3.66602 -6 -6.99902 -6c-4 0 -6 2.33301 -6 7c0 1.33301 0.5 4 1.5 8s2.16699 7.66699 3.5 11c26.667 88.667 53.334 172 80.001 250l35 101.5l35.5 98.5c11.667 31.333 23.167 60.166 34.5 86.499
s21.666 48.166 30.999 65.499c4 7.33301 13 11 27 11c2.66699 0 7.16699 -0.5 13.5 -1.5s10.833 -4.16699 13.5 -9.5c11.333 -22.667 24.666 -53.167 39.999 -91.5l47.5 -124l47.5 -134.5l41.5 -123.5l30 -91.5c7.66699 -24 11.5 -36.333 11.5 -37
c1.33301 -3.33301 2.5 -7 3.5 -11s1.5 -6.66699 1.5 -8c0 -4.66699 -2 -7 -6 -7s-6.33301 2 -7 6c-2.66699 9.33301 -9.83398 31.833 -21.501 67.5l-43.5 131.5h-344zM450.001 219.002l-39 113.999l-41 113.5l-38.5 100.5c-12.333 30.667 -23.5 55.334 -33.5 74.001
c-1.33301 2.66699 -6.33301 4 -15 4s-13.667 -1.33301 -15 -4c-10 -18.667 -21.333 -43.334 -34 -74.001l-39.5 -100.5c-13.667 -36.333 -27.167 -74.166 -40.5 -113.499l-38 -114h334zM233.001 746.001c-2.66699 -1.33301 -5 -2.00098 -7 -2.00098c-4.66699 0 -7 2 -7 6
s2 6.66699 6 8l167 71c2.66699 1.33301 5 2 7 2c4.66699 0 7 -2 7 -6c0 -3.33301 -1.33301 -5.66602 -4 -6.99902z" />
    <glyph glyph-name="Acircumflex" unicode="&#xc2;" horiz-adv-x="568" 
d="M111 205l-22.999 -70.998l-19 -59l-13.5 -44l-7.5 -25c-1.33301 -4 -3.66602 -6 -6.99902 -6c-4 0 -6 2.33301 -6 7c0 1.33301 0.5 4 1.5 8s2.16699 7.66699 3.5 11c26.667 88.667 53.334 172 80.001 250l35 101.5l35.5 98.5c11.667 31.333 23.167 60.166 34.5 86.499
s21.666 48.166 30.999 65.499c4 7.33301 13 11 27 11c2.66699 0 7.16699 -0.5 13.5 -1.5s10.833 -4.16699 13.5 -9.5c11.333 -22.667 24.666 -53.167 39.999 -91.5l47.5 -124l47.5 -134.5l41.5 -123.5l30 -91.5c7.66699 -24 11.5 -36.333 11.5 -37
c1.33301 -3.33301 2.5 -7 3.5 -11s1.5 -6.66699 1.5 -8c0 -4.66699 -2 -7 -6 -7s-6.33301 2 -7 6c-2.66699 9.33301 -9.83398 31.833 -21.501 67.5l-43.5 131.5h-344zM450.001 219.002l-39 113.999l-41 113.5l-38.5 100.5c-12.333 30.667 -23.5 55.334 -33.5 74.001
c-1.33301 2.66699 -6.33301 4 -15 4s-13.667 -1.33301 -15 -4c-10 -18.667 -21.333 -43.334 -34 -74.001l-39.5 -100.5c-13.667 -36.333 -27.167 -74.166 -40.5 -113.499l-38 -114h334zM284.001 811.001l-125.001 -63.999c-1.33301 -0.666992 -2.5 -1.33398 -3.5 -2.00098
s-2.16699 -1 -3.5 -1c-4 0 -6 2 -6 6c0 3.33301 1.66699 6 5 8l128 66c1.33301 0.666992 3 1 5 1s3.66699 -0.333008 5 -1l128 -67c2.66699 -1.33301 4 -3.33301 4 -6c0 -4.66699 -2 -7 -6 -7c-1.33301 0 -2.66602 0.333008 -3.99902 1z" />
    <glyph glyph-name="Atilde" unicode="&#xc3;" horiz-adv-x="568" 
d="M111 205l-22.999 -70.998l-19 -59l-13.5 -44l-7.5 -25c-1.33301 -4 -3.66602 -6 -6.99902 -6c-4 0 -6 2.33301 -6 7c0 1.33301 0.5 4 1.5 8s2.16699 7.66699 3.5 11c26.667 88.667 53.334 172 80.001 250l35 101.5l35.5 98.5c11.667 31.333 23.167 60.166 34.5 86.499
s21.666 48.166 30.999 65.499c4 7.33301 13 11 27 11c2.66699 0 7.16699 -0.5 13.5 -1.5s10.833 -4.16699 13.5 -9.5c11.333 -22.667 24.666 -53.167 39.999 -91.5l47.5 -124l47.5 -134.5l41.5 -123.5l30 -91.5c7.66699 -24 11.5 -36.333 11.5 -37
c1.33301 -3.33301 2.5 -7 3.5 -11s1.5 -6.66699 1.5 -8c0 -4.66699 -2 -7 -6 -7s-6.33301 2 -7 6c-2.66699 9.33301 -9.83398 31.833 -21.501 67.5l-43.5 131.5h-344zM450.001 219.002l-39 113.999l-41 113.5l-38.5 100.5c-12.333 30.667 -23.5 55.334 -33.5 74.001
c-1.33301 2.66699 -6.33301 4 -15 4s-13.667 -1.33301 -15 -4c-10 -18.667 -21.333 -43.334 -34 -74.001l-39.5 -100.5c-13.667 -36.333 -27.167 -74.166 -40.5 -113.499l-38 -114h334zM404.001 765.001c-4.66699 -3.33301 -12.1689 -7.66797 -22.502 -13.001
s-22.166 -8 -35.499 -8c-15.333 0 -27.5 1.16699 -36.5 3.5s-17.667 5 -26 8s-17.166 5.83301 -26.499 8.5s-21.333 4 -36 4c-12.667 0 -23.5 -2.66699 -32.5 -8s-14.167 -8.66602 -15.5 -9.99902s-3 -2 -5 -2c-4.66699 0 -7 2 -7 6c0 2 1 4 3 6
c0.666992 0.666992 2.5 2.16699 5.5 4.5s7 4.83301 12 7.5s10.833 5 17.5 7s14 3 22 3c14.667 0 26.667 -1.33301 36 -4s18.166 -5.5 26.499 -8.5s17 -5.66699 26 -8s21.167 -3.5 36.5 -3.5c13.333 0 24.833 3 34.5 9s14.834 9 15.501 9c1.33301 1.33301 3 2 5 2
c4 0 6 -2.33301 6 -7c0 -2 -1 -4 -3 -6z" />
    <glyph glyph-name="Adieresis" unicode="&#xc4;" horiz-adv-x="568" 
d="M111 205l-22.999 -70.998l-19 -59l-13.5 -44l-7.5 -25c-1.33301 -4 -3.66602 -6 -6.99902 -6c-4 0 -6 2.33301 -6 7c0 1.33301 0.5 4 1.5 8s2.16699 7.66699 3.5 11c26.667 88.667 53.334 172 80.001 250l35 101.5l35.5 98.5c11.667 31.333 23.167 60.166 34.5 86.499
s21.666 48.166 30.999 65.499c4 7.33301 13 11 27 11c2.66699 0 7.16699 -0.5 13.5 -1.5s10.833 -4.16699 13.5 -9.5c11.333 -22.667 24.666 -53.167 39.999 -91.5l47.5 -124l47.5 -134.5l41.5 -123.5l30 -91.5c7.66699 -24 11.5 -36.333 11.5 -37
c1.33301 -3.33301 2.5 -7 3.5 -11s1.5 -6.66699 1.5 -8c0 -4.66699 -2 -7 -6 -7s-6.33301 2 -7 6c-2.66699 9.33301 -9.83398 31.833 -21.501 67.5l-43.5 131.5h-344zM450.001 219.002l-39 113.999l-41 113.5l-38.5 100.5c-12.333 30.667 -23.5 55.334 -33.5 74.001
c-1.33301 2.66699 -6.33301 4 -15 4s-13.667 -1.33301 -15 -4c-10 -18.667 -21.333 -43.334 -34 -74.001l-39.5 -100.5c-13.667 -36.333 -27.167 -74.166 -40.5 -113.499l-38 -114h334zM210.001 787.001c0 4.66699 2.33301 7 7 7s7 -2.33301 7 -7v-36
c0 -4.66699 -2.33301 -7 -7 -7s-7 2.33301 -7 7v36zM340.001 787.001c0 4.66699 2.33301 7 7 7s7 -2.33301 7 -7v-36c0 -4.66699 -2.33301 -7 -7 -7s-7 2.33301 -7 7v36z" />
    <glyph glyph-name="Aring" unicode="&#xc5;" horiz-adv-x="568" 
d="M111 205l-22.999 -70.998l-19 -59l-13.5 -44l-7.5 -25c-1.33301 -4 -3.66602 -6 -6.99902 -6c-4 0 -6 2.33301 -6 7c0 1.33301 0.5 4 1.5 8s2.16699 7.66699 3.5 11c26.667 88.667 53.334 172 80.001 250l35 101.5l35.5 98.5c11.667 31.333 23.167 60.166 34.5 86.499
s21.666 48.166 30.999 65.499c4 7.33301 13 11 27 11c2.66699 0 7.16699 -0.5 13.5 -1.5s10.833 -4.16699 13.5 -9.5c11.333 -22.667 24.666 -53.167 39.999 -91.5l47.5 -124l47.5 -134.5l41.5 -123.5l30 -91.5c7.66699 -24 11.5 -36.333 11.5 -37
c1.33301 -3.33301 2.5 -7 3.5 -11s1.5 -6.66699 1.5 -8c0 -4.66699 -2 -7 -6 -7s-6.33301 2 -7 6c-2.66699 9.33301 -9.83398 31.833 -21.501 67.5l-43.5 131.5h-344zM450.001 219.002l-39 113.999l-41 113.5l-38.5 100.5c-12.333 30.667 -23.5 55.334 -33.5 74.001
c-1.33301 2.66699 -6.33301 4 -15 4s-13.667 -1.33301 -15 -4c-10 -18.667 -21.333 -43.334 -34 -74.001l-39.5 -100.5c-13.667 -36.333 -27.167 -74.166 -40.5 -113.499l-38 -114h334zM288.001 744.001c-18 0 -33.333 6.33301 -46 19s-19 28 -19 46s6.33301 33.333 19 46
s28 19 46 19s33.333 -6.33301 46 -19s19 -28 19 -46s-6.33301 -33.333 -19 -46s-28 -19 -46 -19zM339.001 809.001c0 14 -5 26 -15 36s-22 15 -36 15s-26 -5 -36 -15s-15 -22 -15 -36s5 -26 15 -36s22 -15 36 -15s26 5 36 15s15 22 15 36z" />
    <glyph glyph-name="AE" unicode="&#xc6;" horiz-adv-x="808" 
d="M471 0c-4.66699 0 -7.00195 2.33691 -7.00195 7.00391c0 13.333 -0.5 32.5 -1.5 57.5s-2.5 52.5 -4.5 82.5l-6.5 93c-2.33301 32 -4.83301 62 -7.5 90c-30.667 -0.666992 -59.667 -2.83398 -87 -6.50098s-53.333 -10.167 -78 -19.5s-48 -21.833 -70 -37.5
s-43 -35.5 -63 -59.5l-98 -203c-2 -2.66699 -4.33301 -4 -7 -4c-4 0 -6 2 -6 6c0 1.33301 1.66699 5.33301 5 12c4.66699 10.667 13.834 30.167 27.501 58.5l48 99.5l60 123l64 128.5l59.5 115.5c18.667 35.333 34.334 63.666 47.001 84.999
c4.66699 7.33301 12.667 11 24 11h336c4.66699 0 7 -2.33301 7 -7s-2.33301 -7 -7 -7h-293c10 -42.667 18.333 -88.167 25 -136.5s12.667 -96.5 18 -144.5h231c4.66699 0 7 -2.33301 7 -7s-2.33301 -7 -7 -7h-229c3.33301 -36.667 6.33301 -71.834 9 -105.501
s4.66699 -64.334 6 -92.001l3.5 -71.5c1 -20 1.5 -34.333 1.5 -43v-4h248c4.66699 0 7 -2.33301 7 -7s-2.33301 -7 -7 -7h-255zM369.998 625.004c-6 0 -10.334 -1.33203 -13.001 -3.99902c-9.33301 -16 -20.666 -36.5 -33.999 -61.5l-44.5 -86l-53 -105.5l-59.5 -120
c33.333 32 71.833 55.667 115.5 71s97.5 23.666 161.5 24.999c-5.33301 48 -11.5 96.167 -18.5 144.5s-15.5 93.833 -25.5 136.5h-29z" />
    <glyph glyph-name="Ccedilla" unicode="&#xc7;" horiz-adv-x="602" 
d="M296 -2c-34 5.33301 -65.167 16.998 -93.5 34.998s-52.666 41 -72.999 69s-36.166 60.5 -47.499 97.5s-17 76.833 -17 119.5c0 46 7.16699 89 21.5 129s34.166 74.5 59.499 103.5s55.333 51.833 90 68.5s72.334 25 113.001 25c26 0 49.333 -2 70 -6
s38.667 -8.66699 54 -14s27.833 -10.833 37.5 -16.5s17.167 -10.5 22.5 -14.5c2.66699 -2 4 -4.33301 4 -7c0 -4 -2.33301 -6 -7 -6c-2 0 -3.66699 0.666992 -5 2c-4.66699 4 -11.834 8.66699 -21.501 14s-21.667 10.5 -36 15.5s-31.333 9.33301 -51 13
s-42.167 5.5 -67.5 5.5c-38.667 0 -74.5 -8 -107.5 -24s-61.5 -38 -85.5 -66s-42.833 -61 -56.5 -99s-20.5 -79 -20.5 -123c0 -45.333 6.5 -87 19.5 -125s31 -70.667 54 -98s50.333 -48.833 82 -64.5s66.167 -23.5 103.5 -23.5c34 0 65 3.66699 93 11s57 19.333 87 36
c1.33301 0.666992 2.66602 1 3.99902 1c4.66699 0 7 -2.33301 7 -7c0 -2.66699 -1.33301 -4.66699 -4 -6c-30.667 -17.333 -60.834 -29.833 -90.501 -37.5s-61.834 -11.5 -96.501 -11.5c-5.33301 0 -10.333 0.166992 -15 0.5s-9.33398 0.833008 -14.001 1.5l-15 -69
c5.33301 2 11.666 4 18.999 6s16.666 3 27.999 3c15.333 0 29.666 -6 42.999 -18s20 -29.667 20 -53c0 -13.333 -2.66699 -24.666 -8 -33.999s-11.833 -17.166 -19.5 -23.499s-16.167 -11 -25.5 -14s-18 -4.5 -26 -4.5c-17.333 0 -28.833 1.83301 -34.5 5.5
s-8.5 6.5 -8.5 8.5c0 4.66699 2.33301 7 7 7c2.66699 0 5.83398 -1.33301 9.50098 -4s12.5 -4 26.5 -4c6.66699 0 13.834 1.33301 21.501 4s14.834 6.5 21.501 11.5s12.167 11.5 16.5 19.5s6.5 17.333 6.5 28c0 20 -5.33301 34.667 -16 44s-22 14 -34 14
c-9.33301 0 -18.666 -1 -27.999 -3s-17.666 -5.66699 -24.999 -11c-1.33301 -1.33301 -3 -2 -5 -2c-3.33301 0 -5.16602 0.833008 -5.49902 2.5s-0.5 3.16699 -0.5 4.5z" />
    <glyph glyph-name="Egrave" unicode="&#xc8;" horiz-adv-x="492" 
d="M112 0c-4.66699 0 -7 2.33301 -7 7v625c0 4.66699 2.33301 7 7 7h284c4.66699 0 7 -2.33301 7 -7s-2.33301 -7 -7 -7h-277v-281h258c4.66699 0 7 -2.33301 7 -7s-2.33301 -7 -7 -7h-258v-316h296c4.66699 0 7 -2.33301 7 -7s-2.33301 -7 -7 -7h-303zM156 815
c-6 2.66699 -8.99902 5.66602 -8.99902 8.99902c0 4.66699 2.33301 7 7 7c2 0 4.33301 -0.666992 7 -2l169 -72c2 -1.33301 3 -3.66602 3 -6.99902c0 -2 -0.833008 -3.5 -2.5 -4.5s-3.16699 -1.5 -4.5 -1.5c-0.666992 0 -4.33398 1.33301 -11.001 4z" />
    <glyph glyph-name="Eacute" unicode="&#xc9;" horiz-adv-x="492" 
d="M112 0c-4.66699 0 -7 2.33301 -7 7v625c0 4.66699 2.33301 7 7 7h284c4.66699 0 7 -2.33301 7 -7s-2.33301 -7 -7 -7h-277v-281h258c4.66699 0 7 -2.33301 7 -7s-2.33301 -7 -7 -7h-258v-316h296c4.66699 0 7 -2.33301 7 -7s-2.33301 -7 -7 -7h-303zM171 746
c-2.66699 -1.33301 -5 -2.00098 -7 -2.00098c-4.66699 0 -7 2 -7 6s2 6.66699 6 8l167 71c2.66699 1.33301 5 2 7 2c4.66699 0 7 -2 7 -6c0 -3.33301 -1.33301 -5.66602 -4 -6.99902z" />
    <glyph glyph-name="Ecircumflex" unicode="&#xca;" horiz-adv-x="492" 
d="M112 0c-4.66699 0 -7 2.33301 -7 7v625c0 4.66699 2.33301 7 7 7h284c4.66699 0 7 -2.33301 7 -7s-2.33301 -7 -7 -7h-277v-281h258c4.66699 0 7 -2.33301 7 -7s-2.33301 -7 -7 -7h-258v-316h296c4.66699 0 7 -2.33301 7 -7s-2.33301 -7 -7 -7h-303zM255 811
l-125.001 -63.999c-1.33301 -0.666992 -2.5 -1.33398 -3.5 -2.00098s-2.16699 -1 -3.5 -1c-4 0 -6 2 -6 6c0 3.33301 1.66699 6 5 8l128 66c1.33301 0.666992 3 1 5 1s3.66699 -0.333008 5 -1l128 -67c2.66699 -1.33301 4 -3.33301 4 -6c0 -4.66699 -2 -7 -6 -7
c-1.33301 0 -2.66602 0.333008 -3.99902 1z" />
    <glyph glyph-name="Edieresis" unicode="&#xcb;" horiz-adv-x="492" 
d="M112 0c-4.66699 0 -7 2.33301 -7 7v625c0 4.66699 2.33301 7 7 7h284c4.66699 0 7 -2.33301 7 -7s-2.33301 -7 -7 -7h-277v-281h258c4.66699 0 7 -2.33301 7 -7s-2.33301 -7 -7 -7h-258v-316h296c4.66699 0 7 -2.33301 7 -7s-2.33301 -7 -7 -7h-303zM180 787
c0 4.66699 2.33301 7 7 7s7 -2.33301 7 -7v-36c0 -4.66699 -2.33301 -7 -7 -7s-7 2.33301 -7 7v36zM310 787c0 4.66699 2.33301 7 7 7s7 -2.33301 7 -7v-36c0 -4.66699 -2.33301 -7 -7 -7s-7 2.33301 -7 7v36z" />
    <glyph glyph-name="Igrave" unicode="&#xcc;" horiz-adv-x="224" 
d="M105 632c0 4.66699 2.33301 7 7 7s7 -2.33301 7 -7v-625c0 -4.66699 -2.33301 -7 -7 -7s-7 2.33301 -7 7v625zM-2 815c-6 2.66699 -8.99902 5.66602 -8.99902 8.99902c0 4.66699 2.33301 7 7 7c2 0 4.33301 -0.666992 7 -2l169 -72c2 -1.33301 3 -3.66602 3 -6.99902
c0 -2 -0.833008 -3.5 -2.5 -4.5s-3.16699 -1.5 -4.5 -1.5c-0.666992 0 -4.33398 1.33301 -11.001 4z" />
    <glyph glyph-name="Iacute" unicode="&#xcd;" horiz-adv-x="224" 
d="M105 632c0 4.66699 2.33301 7 7 7s7 -2.33301 7 -7v-625c0 -4.66699 -2.33301 -7 -7 -7s-7 2.33301 -7 7v625zM64 746c-2.66699 -1.33301 -5 -2.00098 -7 -2.00098c-4.66699 0 -7 2 -7 6s2 6.66699 6 8l167 71c2.66699 1.33301 5 2 7 2c4.66699 0 7 -2 7 -6
c0 -3.33301 -1.33301 -5.66602 -4 -6.99902z" />
    <glyph glyph-name="Icircumflex" unicode="&#xce;" horiz-adv-x="224" 
d="M105 632c0 4.66699 2.33301 7 7 7s7 -2.33301 7 -7v-625c0 -4.66699 -2.33301 -7 -7 -7s-7 2.33301 -7 7v625zM113 811l-125.001 -63.999c-1.33301 -0.666992 -2.5 -1.33398 -3.5 -2.00098s-2.16699 -1 -3.5 -1c-4 0 -6 2 -6 6c0 3.33301 1.66699 6 5 8l128 66
c1.33301 0.666992 3 1 5 1s3.66699 -0.333008 5 -1l128 -67c2.66699 -1.33301 4 -3.33301 4 -6c0 -4.66699 -2 -7 -6 -7c-1.33301 0 -2.66602 0.333008 -3.99902 1z" />
    <glyph glyph-name="Idieresis" unicode="&#xcf;" horiz-adv-x="224" 
d="M105 632c0 4.66699 2.33301 7 7 7s7 -2.33301 7 -7v-625c0 -4.66699 -2.33301 -7 -7 -7s-7 2.33301 -7 7v625zM40 787c0 4.66699 2.33301 7 7 7s7 -2.33301 7 -7v-36c0 -4.66699 -2.33301 -7 -7 -7s-7 2.33301 -7 7v36zM170 787c0 4.66699 2.33301 7 7 7s7 -2.33301 7 -7
v-36c0 -4.66699 -2.33301 -7 -7 -7s-7 2.33301 -7 7v36z" />
    <glyph glyph-name="Eth" unicode="&#xd0;" horiz-adv-x="685" 
d="M153 0c-4 0 -5.99902 2.33398 -5.99902 7.00098v317h-85c-4.66699 0 -7 2.33301 -7 7s2.33301 7 7 7h85v294c0 4.66699 2 7 6 7h192c40.667 0 78 -8 112 -24s63.167 -38.333 87.5 -67s43.166 -62.667 56.499 -102s20 -82.333 20 -129s-6.66699 -89.334 -20 -128.001
s-32 -72 -56 -100s-53 -49.833 -87 -65.5s-71.667 -23.5 -113 -23.5h-192zM345.001 14.001c39.333 0 75.167 7.33203 107.5 21.999s60 35.334 83 62.001s40.667 58.667 53 96s18.5 78.333 18.5 123s-6.33301 85.834 -19 123.501s-30.5 70.167 -53.5 97.5
s-50.667 48.666 -83 63.999s-67.833 23 -106.5 23h-184v-287h198c4.66699 0 7 -2.33301 7 -7s-2.33301 -7 -7 -7h-198v-310h184z" />
    <glyph glyph-name="Ntilde" unicode="&#xd1;" horiz-adv-x="613" 
d="M489 0c-8.66699 0 -15.833 2 -21.5 6s-12.167 11.333 -19.5 22c-8.66699 12 -18.667 28.167 -30 48.5l-37 69l-41.5 83l-42.5 90.5l-50 105.5l-47 93.5c-14 28 -26.333 51 -37 69s-18.667 29 -24 33c-4 3.33301 -10.667 5 -20 5v-618c0 -4.66699 -2.33301 -7 -7 -7
s-7 2.33301 -7 7v625c0 4.66699 2.33301 7 7 7h12c3.33301 0 7.33301 -0.5 12 -1.5s8.66699 -3.16699 12 -6.5c8 -8 18.833 -23.5 32.5 -46.5s28 -49.333 43 -79l45 -92.5l40.5 -86l48 -101l46 -92c14.667 -28 28.167 -52 40.5 -72s22.5 -34 30.5 -42c4 -4 10.667 -6 20 -6
v618c0 4.66699 2.33301 7 7 7s7 -2.33301 7 -7v-625c0 -4.66699 -2.33301 -7 -7 -7h-12zM421.001 765c-4.66699 -3.33301 -12.1689 -7.66797 -22.502 -13.001s-22.166 -8 -35.499 -8c-15.333 0 -27.5 1.16699 -36.5 3.5s-17.667 5 -26 8s-17.166 5.83301 -26.499 8.5
s-21.333 4 -36 4c-12.667 0 -23.5 -2.66699 -32.5 -8s-14.167 -8.66602 -15.5 -9.99902s-3 -2 -5 -2c-4.66699 0 -7 2 -7 6c0 2 1 4 3 6c0.666992 0.666992 2.5 2.16699 5.5 4.5s7 4.83301 12 7.5s10.833 5 17.5 7s14 3 22 3c14.667 0 26.667 -1.33301 36 -4
s18.166 -5.5 26.499 -8.5s17 -5.66699 26 -8s21.167 -3.5 36.5 -3.5c13.333 0 24.833 3 34.5 9s14.834 9 15.501 9c1.33301 1.33301 3 2 5 2c4 0 6 -2.33301 6 -7c0 -2 -1 -4 -3 -6z" />
    <glyph glyph-name="Ograve" unicode="&#xd2;" horiz-adv-x="661" 
d="M331 -6c-38 0 -73.167 8.16504 -105.5 24.498s-60.333 39 -84 68s-42.334 63.333 -56.001 103s-20.5 82.5 -20.5 128.5s6.83301 89 20.5 129s32.334 74.667 56.001 104s51.667 52.333 84 69s67.5 25 105.5 25c38.667 0 74.167 -8.16699 106.5 -24.5
s60.166 -39.166 83.499 -68.499s41.666 -64 54.999 -104s20 -83.333 20 -130c0 -47.333 -6.66699 -90.666 -20 -129.999s-31.666 -73.5 -54.999 -102.5s-51.166 -51.5 -83.499 -67.5s-67.833 -24 -106.5 -24zM331 7.99805c36.667 0 70.334 7.66699 101.001 23
s57.167 36.833 79.5 64.5s39.666 60.334 51.999 98.001s18.5 79.167 18.5 124.5c0 44.667 -6.16699 86.167 -18.5 124.5s-29.666 71.5 -51.999 99.5s-48.833 49.833 -79.5 65.5s-64.334 23.5 -101.001 23.5c-36 0 -69.333 -8 -100 -24s-57.334 -38 -80.001 -66
s-40.334 -61.167 -53.001 -99.5s-19 -79.5 -19 -123.5s6.33301 -85 19 -123s30.334 -70.833 53.001 -98.5s49.334 -49.334 80.001 -65.001s64 -23.5 100 -23.5zM216 814.998c-6 2.66699 -8.99902 5.66602 -8.99902 8.99902c0 4.66699 2.33301 7 7 7
c2 0 4.33301 -0.666992 7 -2l169 -72c2 -1.33301 3 -3.66602 3 -6.99902c0 -2 -0.833008 -3.5 -2.5 -4.5s-3.16699 -1.5 -4.5 -1.5c-0.666992 0 -4.33398 1.33301 -11.001 4z" />
    <glyph glyph-name="Oacute" unicode="&#xd3;" horiz-adv-x="661" 
d="M331 -6c-38 0 -73.167 8.16504 -105.5 24.498s-60.333 39 -84 68s-42.334 63.333 -56.001 103s-20.5 82.5 -20.5 128.5s6.83301 89 20.5 129s32.334 74.667 56.001 104s51.667 52.333 84 69s67.5 25 105.5 25c38.667 0 74.167 -8.16699 106.5 -24.5
s60.166 -39.166 83.499 -68.499s41.666 -64 54.999 -104s20 -83.333 20 -130c0 -47.333 -6.66699 -90.666 -20 -129.999s-31.666 -73.5 -54.999 -102.5s-51.166 -51.5 -83.499 -67.5s-67.833 -24 -106.5 -24zM331 7.99805c36.667 0 70.334 7.66699 101.001 23
s57.167 36.833 79.5 64.5s39.666 60.334 51.999 98.001s18.5 79.167 18.5 124.5c0 44.667 -6.16699 86.167 -18.5 124.5s-29.666 71.5 -51.999 99.5s-48.833 49.833 -79.5 65.5s-64.334 23.5 -101.001 23.5c-36 0 -69.333 -8 -100 -24s-57.334 -38 -80.001 -66
s-40.334 -61.167 -53.001 -99.5s-19 -79.5 -19 -123.5s6.33301 -85 19 -123s30.334 -70.833 53.001 -98.5s49.334 -49.334 80.001 -65.001s64 -23.5 100 -23.5zM281 745.998c-2.66699 -1.33301 -5 -2.00098 -7 -2.00098c-4.66699 0 -7 2 -7 6s2 6.66699 6 8l167 71
c2.66699 1.33301 5 2 7 2c4.66699 0 7 -2 7 -6c0 -3.33301 -1.33301 -5.66602 -4 -6.99902z" />
    <glyph glyph-name="Ocircumflex" unicode="&#xd4;" horiz-adv-x="661" 
d="M331 -6c-38 0 -73.167 8.16504 -105.5 24.498s-60.333 39 -84 68s-42.334 63.333 -56.001 103s-20.5 82.5 -20.5 128.5s6.83301 89 20.5 129s32.334 74.667 56.001 104s51.667 52.333 84 69s67.5 25 105.5 25c38.667 0 74.167 -8.16699 106.5 -24.5
s60.166 -39.166 83.499 -68.499s41.666 -64 54.999 -104s20 -83.333 20 -130c0 -47.333 -6.66699 -90.666 -20 -129.999s-31.666 -73.5 -54.999 -102.5s-51.166 -51.5 -83.499 -67.5s-67.833 -24 -106.5 -24zM331 7.99805c36.667 0 70.334 7.66699 101.001 23
s57.167 36.833 79.5 64.5s39.666 60.334 51.999 98.001s18.5 79.167 18.5 124.5c0 44.667 -6.16699 86.167 -18.5 124.5s-29.666 71.5 -51.999 99.5s-48.833 49.833 -79.5 65.5s-64.334 23.5 -101.001 23.5c-36 0 -69.333 -8 -100 -24s-57.334 -38 -80.001 -66
s-40.334 -61.167 -53.001 -99.5s-19 -79.5 -19 -123.5s6.33301 -85 19 -123s30.334 -70.833 53.001 -98.5s49.334 -49.334 80.001 -65.001s64 -23.5 100 -23.5zM332 810.998l-125.001 -63.999c-1.33301 -0.666992 -2.5 -1.33398 -3.5 -2.00098s-2.16699 -1 -3.5 -1
c-4 0 -6 2 -6 6c0 3.33301 1.66699 6 5 8l128 66c1.33301 0.666992 3 1 5 1s3.66699 -0.333008 5 -1l128 -67c2.66699 -1.33301 4 -3.33301 4 -6c0 -4.66699 -2 -7 -6 -7c-1.33301 0 -2.66602 0.333008 -3.99902 1z" />
    <glyph glyph-name="Otilde" unicode="&#xd5;" horiz-adv-x="661" 
d="M331 -6c-38 0 -73.167 8.16504 -105.5 24.498s-60.333 39 -84 68s-42.334 63.333 -56.001 103s-20.5 82.5 -20.5 128.5s6.83301 89 20.5 129s32.334 74.667 56.001 104s51.667 52.333 84 69s67.5 25 105.5 25c38.667 0 74.167 -8.16699 106.5 -24.5
s60.166 -39.166 83.499 -68.499s41.666 -64 54.999 -104s20 -83.333 20 -130c0 -47.333 -6.66699 -90.666 -20 -129.999s-31.666 -73.5 -54.999 -102.5s-51.166 -51.5 -83.499 -67.5s-67.833 -24 -106.5 -24zM331 7.99805c36.667 0 70.334 7.66699 101.001 23
s57.167 36.833 79.5 64.5s39.666 60.334 51.999 98.001s18.5 79.167 18.5 124.5c0 44.667 -6.16699 86.167 -18.5 124.5s-29.666 71.5 -51.999 99.5s-48.833 49.833 -79.5 65.5s-64.334 23.5 -101.001 23.5c-36 0 -69.333 -8 -100 -24s-57.334 -38 -80.001 -66
s-40.334 -61.167 -53.001 -99.5s-19 -79.5 -19 -123.5s6.33301 -85 19 -123s30.334 -70.833 53.001 -98.5s49.334 -49.334 80.001 -65.001s64 -23.5 100 -23.5zM447 764.998c-4.66699 -3.33301 -12.1689 -7.66797 -22.502 -13.001s-22.166 -8 -35.499 -8
c-15.333 0 -27.5 1.16699 -36.5 3.5s-17.667 5 -26 8s-17.166 5.83301 -26.499 8.5s-21.333 4 -36 4c-12.667 0 -23.5 -2.66699 -32.5 -8s-14.167 -8.66602 -15.5 -9.99902s-3 -2 -5 -2c-4.66699 0 -7 2 -7 6c0 2 1 4 3 6c0.666992 0.666992 2.5 2.16699 5.5 4.5
s7 4.83301 12 7.5s10.833 5 17.5 7s14 3 22 3c14.667 0 26.667 -1.33301 36 -4s18.166 -5.5 26.499 -8.5s17 -5.66699 26 -8s21.167 -3.5 36.5 -3.5c13.333 0 24.833 3 34.5 9s14.834 9 15.501 9c1.33301 1.33301 3 2 5 2c4 0 6 -2.33301 6 -7c0 -2 -1 -4 -3 -6z" />
    <glyph glyph-name="Odieresis" unicode="&#xd6;" horiz-adv-x="661" 
d="M331 -6c-38 0 -73.167 8.16504 -105.5 24.498s-60.333 39 -84 68s-42.334 63.333 -56.001 103s-20.5 82.5 -20.5 128.5s6.83301 89 20.5 129s32.334 74.667 56.001 104s51.667 52.333 84 69s67.5 25 105.5 25c38.667 0 74.167 -8.16699 106.5 -24.5
s60.166 -39.166 83.499 -68.499s41.666 -64 54.999 -104s20 -83.333 20 -130c0 -47.333 -6.66699 -90.666 -20 -129.999s-31.666 -73.5 -54.999 -102.5s-51.166 -51.5 -83.499 -67.5s-67.833 -24 -106.5 -24zM331 7.99805c36.667 0 70.334 7.66699 101.001 23
s57.167 36.833 79.5 64.5s39.666 60.334 51.999 98.001s18.5 79.167 18.5 124.5c0 44.667 -6.16699 86.167 -18.5 124.5s-29.666 71.5 -51.999 99.5s-48.833 49.833 -79.5 65.5s-64.334 23.5 -101.001 23.5c-36 0 -69.333 -8 -100 -24s-57.334 -38 -80.001 -66
s-40.334 -61.167 -53.001 -99.5s-19 -79.5 -19 -123.5s6.33301 -85 19 -123s30.334 -70.833 53.001 -98.5s49.334 -49.334 80.001 -65.001s64 -23.5 100 -23.5zM253 786.998c0 4.66699 2.33301 7 7 7s7 -2.33301 7 -7v-36c0 -4.66699 -2.33301 -7 -7 -7s-7 2.33301 -7 7v36z
M383 786.998c0 4.66699 2.33301 7 7 7s7 -2.33301 7 -7v-36c0 -4.66699 -2.33301 -7 -7 -7s-7 2.33301 -7 7v36z" />
    <glyph glyph-name="multiply" unicode="&#xd7;" horiz-adv-x="600" 
d="M300 219l-174 -173c-1.33301 -1.33301 -3 -2 -5 -2c-4 0 -6 2 -6 6c0 2 0.666992 3.66699 2 5l173 174l-173 173c-2 2 -3 3.66699 -3 5c0 4.66699 2.33301 7 7 7c2 0 3.66699 -0.666992 5 -2l174 -174l173 174c1.33301 1.33301 3.33301 2 6 2c4 0 6 -2.33301 6 -7
c0 -2 -0.666992 -3.66699 -2 -5l-174 -173l172 -172c2.66699 -2.66699 4 -5 4 -7c0 -4 -2.33301 -6 -7 -6c-2 0 -4 1 -6 3z" />
    <glyph glyph-name="Oslash" unicode="&#xd8;" horiz-adv-x="662" 
d="M163 64c-30 29.333 -53.835 66.002 -71.502 110.002s-26.5 92.333 -26.5 145c0 46 6.83301 89 20.5 129s32.334 74.5 56.001 103.5s51.667 51.833 84 68.5s67.5 25 105.5 25c30 0 58.333 -5.33301 85 -16s50.667 -25.334 72 -44.001l33 52c0.666992 2 2.66699 3 6 3
c4 0 6 -2.33301 6 -7c0 -1.33301 -0.333008 -2.33301 -1 -3l-34 -54c30.667 -29.333 54.834 -66 72.501 -110s26.5 -93 26.5 -147c0 -47.333 -6.66699 -90.833 -20 -130.5s-31.833 -73.834 -55.5 -102.501s-51.667 -51.167 -84 -67.5s-67.833 -24.5 -106.5 -24.5
c-30 0 -58.333 5.33301 -85 16s-51 25.667 -73 45l-31 -50c-2 -3.33301 -4.33301 -5 -7 -5c-4.66699 0 -7 2 -7 6c0 2 0.666992 4 2 6zM480.998 573.002c-20.667 18 -43.498 32.167 -68.498 42.5s-52.167 15.5 -81.5 15.5c-36 0 -69.333 -8 -100 -24
s-57.334 -38 -80.001 -66s-40.334 -61 -53.001 -99s-19 -79 -19 -123c0 -50 8.16699 -96 24.5 -138s38.5 -77 66.5 -105zM180 67.002c20.667 -18.667 43.667 -33.167 69 -43.5s52.666 -15.5 81.999 -15.5c36.667 0 70.334 7.83301 101.001 23.5s57.167 37.167 79.5 64.5
s39.833 60 52.5 98s19 79.667 19 125c0 52 -8.16699 98.833 -24.5 140.5s-38.833 76.5 -67.5 104.5z" />
    <glyph glyph-name="Ugrave" unicode="&#xd9;" horiz-adv-x="596" 
d="M487 632c0 4.66699 2.33105 7 6.99805 7s7 -2.33301 7 -7v-433c0 -9.33301 -1 -20.833 -3 -34.5s-5.66699 -28 -11 -43s-12.666 -30.167 -21.999 -45.5s-21.5 -29 -36.5 -41s-33.167 -21.833 -54.5 -29.5s-46.666 -11.5 -75.999 -11.5s-54.666 3.83301 -75.999 11.5
s-39.5 17.5 -54.5 29.5s-27.167 25.667 -36.5 41s-16.666 30.5 -21.999 45.5s-9 29.333 -11 43s-3 25.167 -3 34.5v433c0 4.66699 2.33301 7 7 7s7 -2.33301 7 -7v-431c0 -12.667 2.16699 -29.834 6.5 -51.501s13.166 -43 26.499 -64s32.333 -39.167 57 -54.5
s57.667 -23 99 -23c40.667 0 73.5 7.66699 98.5 23s44.167 33.5 57.5 54.5s22.166 42.333 26.499 64s6.5 38.834 6.5 51.501v431zM183.998 815c-6 2.66699 -8.99902 5.66602 -8.99902 8.99902c0 4.66699 2.33301 7 7 7c2 0 4.33301 -0.666992 7 -2l169 -72
c2 -1.33301 3 -3.66602 3 -6.99902c0 -2 -0.833008 -3.5 -2.5 -4.5s-3.16699 -1.5 -4.5 -1.5c-0.666992 0 -4.33398 1.33301 -11.001 4z" />
    <glyph glyph-name="Uacute" unicode="&#xda;" horiz-adv-x="596" 
d="M487 632c0 4.66699 2.33105 7 6.99805 7s7 -2.33301 7 -7v-433c0 -9.33301 -1 -20.833 -3 -34.5s-5.66699 -28 -11 -43s-12.666 -30.167 -21.999 -45.5s-21.5 -29 -36.5 -41s-33.167 -21.833 -54.5 -29.5s-46.666 -11.5 -75.999 -11.5s-54.666 3.83301 -75.999 11.5
s-39.5 17.5 -54.5 29.5s-27.167 25.667 -36.5 41s-16.666 30.5 -21.999 45.5s-9 29.333 -11 43s-3 25.167 -3 34.5v433c0 4.66699 2.33301 7 7 7s7 -2.33301 7 -7v-431c0 -12.667 2.16699 -29.834 6.5 -51.501s13.166 -43 26.499 -64s32.333 -39.167 57 -54.5
s57.667 -23 99 -23c40.667 0 73.5 7.66699 98.5 23s44.167 33.5 57.5 54.5s22.166 42.333 26.499 64s6.5 38.834 6.5 51.501v431zM249.998 746c-2.66699 -1.33301 -5 -2.00098 -7 -2.00098c-4.66699 0 -7 2 -7 6s2 6.66699 6 8l167 71c2.66699 1.33301 5 2 7 2
c4.66699 0 7 -2 7 -6c0 -3.33301 -1.33301 -5.66602 -4 -6.99902z" />
    <glyph glyph-name="Ucircumflex" unicode="&#xdb;" horiz-adv-x="596" 
d="M487 632c0 4.66699 2.33105 7 6.99805 7s7 -2.33301 7 -7v-433c0 -9.33301 -1 -20.833 -3 -34.5s-5.66699 -28 -11 -43s-12.666 -30.167 -21.999 -45.5s-21.5 -29 -36.5 -41s-33.167 -21.833 -54.5 -29.5s-46.666 -11.5 -75.999 -11.5s-54.666 3.83301 -75.999 11.5
s-39.5 17.5 -54.5 29.5s-27.167 25.667 -36.5 41s-16.666 30.5 -21.999 45.5s-9 29.333 -11 43s-3 25.167 -3 34.5v433c0 4.66699 2.33301 7 7 7s7 -2.33301 7 -7v-431c0 -12.667 2.16699 -29.834 6.5 -51.501s13.166 -43 26.499 -64s32.333 -39.167 57 -54.5
s57.667 -23 99 -23c40.667 0 73.5 7.66699 98.5 23s44.167 33.5 57.5 54.5s22.166 42.333 26.499 64s6.5 38.834 6.5 51.501v431zM300.998 811l-125.001 -63.999c-1.33301 -0.666992 -2.5 -1.33398 -3.5 -2.00098s-2.16699 -1 -3.5 -1c-4 0 -6 2 -6 6
c0 3.33301 1.66699 6 5 8l128 66c1.33301 0.666992 3 1 5 1s3.66699 -0.333008 5 -1l128 -67c2.66699 -1.33301 4 -3.33301 4 -6c0 -4.66699 -2 -7 -6 -7c-1.33301 0 -2.66602 0.333008 -3.99902 1z" />
    <glyph glyph-name="Udieresis" unicode="&#xdc;" horiz-adv-x="596" 
d="M487 632c0 4.66699 2.33105 7 6.99805 7s7 -2.33301 7 -7v-433c0 -9.33301 -1 -20.833 -3 -34.5s-5.66699 -28 -11 -43s-12.666 -30.167 -21.999 -45.5s-21.5 -29 -36.5 -41s-33.167 -21.833 -54.5 -29.5s-46.666 -11.5 -75.999 -11.5s-54.666 3.83301 -75.999 11.5
s-39.5 17.5 -54.5 29.5s-27.167 25.667 -36.5 41s-16.666 30.5 -21.999 45.5s-9 29.333 -11 43s-3 25.167 -3 34.5v433c0 4.66699 2.33301 7 7 7s7 -2.33301 7 -7v-431c0 -12.667 2.16699 -29.834 6.5 -51.501s13.166 -43 26.499 -64s32.333 -39.167 57 -54.5
s57.667 -23 99 -23c40.667 0 73.5 7.66699 98.5 23s44.167 33.5 57.5 54.5s22.166 42.333 26.499 64s6.5 38.834 6.5 51.501v431zM238.998 787c0 4.66699 2.33301 7 7 7s7 -2.33301 7 -7v-36c0 -4.66699 -2.33301 -7 -7 -7s-7 2.33301 -7 7v36zM368.998 787
c0 4.66699 2.33301 7 7 7s7 -2.33301 7 -7v-36c0 -4.66699 -2.33301 -7 -7 -7s-7 2.33301 -7 7v36z" />
    <glyph glyph-name="Yacute" unicode="&#xdd;" horiz-adv-x="486" 
d="M236 264c-2.66699 0 -5.83008 0.833008 -9.49707 2.5s-7.16699 4.5 -10.5 8.5c-6 8 -13.667 20.333 -23 37l-31 57.5l-35.5 69.5l-35.5 72.5l-31 66l-23 49.5c-1.33301 2.66699 -2 4.66699 -2 6c0 4 2.33301 6 7 6c2.66699 0 4.66699 -1.66699 6 -5
c0.666992 -1.33301 4.16699 -9 10.5 -23l25 -53l34.5 -71.5l38.5 -78l38.5 -72.5c12.667 -22.667 23.667 -41 33 -55c2 -2.66699 7 -4 15 -4s13 1.33301 15 4c9.33301 14 20.166 32.333 32.499 55l38.5 72.5l39 78l34.5 71.5l25 53c6.33301 14 9.83301 21.667 10.5 23
c1.33301 3.33301 3.66602 5 6.99902 5c4 0 6 -2 6 -6c0 -1.33301 -0.333008 -2.33301 -1 -3l-1 -3l-23 -49.5l-31 -65.5l-35.5 -72l-35.5 -70l-31 -58c-9.33301 -16.667 -17 -29 -23 -37c-3.33301 -4 -6.83301 -6.83301 -10.5 -8.5s-6.83398 -2.5 -9.50098 -2.5v-257
c0 -4.66699 -2.33301 -7 -7 -7s-7 2.33301 -7 7v257zM155.004 746c-2.66699 -1.33301 -5 -2.00098 -7 -2.00098c-4.66699 0 -7 2 -7 6s2 6.66699 6 8l167 71c2.66699 1.33301 5 2 7 2c4.66699 0 7 -2 7 -6c0 -3.33301 -1.33301 -5.66602 -4 -6.99902z" />
    <glyph glyph-name="Thorn" unicode="&#xde;" horiz-adv-x="484" 
d="M99 139v-131.999c0 -4.66699 -2.33301 -7 -7 -7s-7 2.33301 -7 7v601c0 4.66699 2.33301 7 7 7s7 -2.33301 7 -7v-110h138c28 0 53.833 -4.5 77.5 -13.5s44 -21.5 61 -37.5s30.333 -35.167 40 -57.5s14.5 -46.5 14.5 -72.5s-4.83301 -50 -14.5 -72s-23 -40.833 -40 -56.5
s-37.333 -27.834 -61 -36.501s-49.5 -13 -77.5 -13h-138zM237 153.001c26 0 50 4 72 12s41 19.167 57 33.5s28.333 31.666 37 51.999s13 42.5 13 66.5s-4.5 46.333 -13.5 67s-21.333 38.334 -37 53.001s-34.5 26.167 -56.5 34.5s-46 12.5 -72 12.5h-138v-331h138z" />
    <glyph glyph-name="germandbls" unicode="&#xdf;" horiz-adv-x="495" 
d="M85 499c0 32 4.49805 59.1631 13.498 81.4961s20.5 40.333 34.5 54s29.667 23.5 47 29.5s34.333 9 51 9c18.667 0 37.167 -2.83301 55.5 -8.5s34.833 -14.334 49.5 -26.001s26.334 -26.667 35.001 -45s13 -40.166 13 -65.499c0 -26.667 -5.66699 -49 -17 -67
s-23.666 -33.833 -36.999 -47.5l-37 -38c-11.333 -11.667 -17 -24.5 -17 -38.5c0 -9.33301 4 -17.833 12 -25.5s18.167 -15.834 30.5 -24.501l39.5 -28c14 -10 27.167 -21.667 39.5 -35s22.5 -28.666 30.5 -45.999s12 -37.333 12 -60
c0 -43.333 -14.833 -76.833 -44.5 -100.5s-69.5 -35.5 -119.5 -35.5c-20 0 -36.667 1.83301 -50 5.5s-24 7.83398 -32 12.501s-13.833 9 -17.5 13s-5.5 6.33301 -5.5 7c-1.33301 1.33301 -2 3 -2 5c0 4 2 6 6 6c2 0 4 -1 6 -3c4 -4.66699 13 -11.167 27 -19.5
s36.667 -12.5 68 -12.5c46.667 0 83.334 10.667 110.001 32s40 51.333 40 90c0 22 -4 41 -12 57s-18.167 30.333 -30.5 43s-25.5 23.834 -39.5 33.501l-39.5 28c-12.333 9 -22.5 18 -30.5 27s-12 19.167 -12 30.5c0 16.667 5.66699 31.167 17 43.5l37 39
c13.333 13.667 25.666 28.834 36.999 45.501s17 37.667 17 63c0 24 -4.16699 44.333 -12.5 61s-19.166 30.167 -32.499 40.5s-28.333 17.833 -45 22.5s-33 7 -49 7c-15.333 0 -30.833 -2.83301 -46.5 -8.5s-29.834 -14.667 -42.501 -27s-23 -28.666 -31 -48.999
s-12 -45.5 -12 -75.5v-492c0 -4.66699 -2.33301 -7 -7 -7s-7 2.33301 -7 7v492z" />
    <glyph glyph-name="agrave" unicode="&#xe0;" horiz-adv-x="449" 
d="M348 322c0 11.333 -2.33203 23.5 -6.99902 36.5s-12 25.167 -22 36.5s-23.167 20.833 -39.5 28.5s-36.166 11.5 -59.499 11.5c-33.333 0 -60.666 -3.66699 -81.999 -11s-36.666 -13.666 -45.999 -18.999c-1.33301 -0.666992 -2.5 -1.33398 -3.5 -2.00098
s-2.16699 -1 -3.5 -1c-4 0 -6 2 -6 6c0 2.66699 1.33301 5 4 7c4.66699 2.66699 11.5 6 20.5 10s19.667 7.83301 32 11.5s25.666 6.66699 39.999 9s29.166 3.5 44.499 3.5c25.333 0 47 -4.16699 65 -12.5s32.667 -18.666 44 -30.999s19.666 -26 24.999 -41
s8 -29.167 8 -42.5v-255c0 -13.333 1.83301 -23.5 5.5 -30.5s7.66699 -12.167 12 -15.5s8.16602 -5.33301 11.499 -6l6 -1c4.66699 0 7 -2.33301 7 -7s-2.33301 -7 -7 -7c-0.666992 0 -3.16699 0.333008 -7.5 1s-9.33301 2.66699 -15 6s-11 8.16602 -16 14.499
s-8.16699 15.5 -9.5 27.5c-36 -36.667 -85 -55 -147 -55c-18 0 -35.667 2.5 -53 7.5s-33 12.5 -47 22.5s-25.333 22.833 -34 38.5s-13 34.167 -13 55.5c0 83.333 59.667 125 179 125h114v79zM348.001 229h-114.001c-110 0 -165 -37 -165 -111
c0 -19.333 3.83301 -35.833 11.5 -49.5s17.834 -25 30.501 -34s27 -15.667 43 -20s32 -6.5 48 -6.5c32 0 60.167 4.66699 84.5 14s44.833 24.333 61.5 45v162zM140 615c-6 2.66699 -8.99902 5.66602 -8.99902 8.99902c0 4.66699 2.33301 7 7 7c2 0 4.33301 -0.666992 7 -2
l169 -72c2 -1.33301 3 -3.66602 3 -6.99902c0 -2 -0.833008 -3.5 -2.5 -4.5s-3.16699 -1.5 -4.5 -1.5c-0.666992 0 -4.33398 1.33301 -11.001 4z" />
    <glyph glyph-name="aacute" unicode="&#xe1;" horiz-adv-x="449" 
d="M348 322c0 11.333 -2.33203 23.5 -6.99902 36.5s-12 25.167 -22 36.5s-23.167 20.833 -39.5 28.5s-36.166 11.5 -59.499 11.5c-33.333 0 -60.666 -3.66699 -81.999 -11s-36.666 -13.666 -45.999 -18.999c-1.33301 -0.666992 -2.5 -1.33398 -3.5 -2.00098
s-2.16699 -1 -3.5 -1c-4 0 -6 2 -6 6c0 2.66699 1.33301 5 4 7c4.66699 2.66699 11.5 6 20.5 10s19.667 7.83301 32 11.5s25.666 6.66699 39.999 9s29.166 3.5 44.499 3.5c25.333 0 47 -4.16699 65 -12.5s32.667 -18.666 44 -30.999s19.666 -26 24.999 -41
s8 -29.167 8 -42.5v-255c0 -13.333 1.83301 -23.5 5.5 -30.5s7.66699 -12.167 12 -15.5s8.16602 -5.33301 11.499 -6l6 -1c4.66699 0 7 -2.33301 7 -7s-2.33301 -7 -7 -7c-0.666992 0 -3.16699 0.333008 -7.5 1s-9.33301 2.66699 -15 6s-11 8.16602 -16 14.499
s-8.16699 15.5 -9.5 27.5c-36 -36.667 -85 -55 -147 -55c-18 0 -35.667 2.5 -53 7.5s-33 12.5 -47 22.5s-25.333 22.833 -34 38.5s-13 34.167 -13 55.5c0 83.333 59.667 125 179 125h114v79zM348.001 229h-114.001c-110 0 -165 -37 -165 -111
c0 -19.333 3.83301 -35.833 11.5 -49.5s17.834 -25 30.501 -34s27 -15.667 43 -20s32 -6.5 48 -6.5c32 0 60.167 4.66699 84.5 14s44.833 24.333 61.5 45v162zM145 546c-2.66699 -1.33301 -5 -2.00098 -7 -2.00098c-4.66699 0 -7 2 -7 6s2 6.66699 6 8l167 71
c2.66699 1.33301 5 2 7 2c4.66699 0 7 -2 7 -6c0 -3.33301 -1.33301 -5.66602 -4 -6.99902z" />
    <glyph glyph-name="acircumflex" unicode="&#xe2;" horiz-adv-x="449" 
d="M348 322c0 11.333 -2.33203 23.5 -6.99902 36.5s-12 25.167 -22 36.5s-23.167 20.833 -39.5 28.5s-36.166 11.5 -59.499 11.5c-33.333 0 -60.666 -3.66699 -81.999 -11s-36.666 -13.666 -45.999 -18.999c-1.33301 -0.666992 -2.5 -1.33398 -3.5 -2.00098
s-2.16699 -1 -3.5 -1c-4 0 -6 2 -6 6c0 2.66699 1.33301 5 4 7c4.66699 2.66699 11.5 6 20.5 10s19.667 7.83301 32 11.5s25.666 6.66699 39.999 9s29.166 3.5 44.499 3.5c25.333 0 47 -4.16699 65 -12.5s32.667 -18.666 44 -30.999s19.666 -26 24.999 -41
s8 -29.167 8 -42.5v-255c0 -13.333 1.83301 -23.5 5.5 -30.5s7.66699 -12.167 12 -15.5s8.16602 -5.33301 11.499 -6l6 -1c4.66699 0 7 -2.33301 7 -7s-2.33301 -7 -7 -7c-0.666992 0 -3.16699 0.333008 -7.5 1s-9.33301 2.66699 -15 6s-11 8.16602 -16 14.499
s-8.16699 15.5 -9.5 27.5c-36 -36.667 -85 -55 -147 -55c-18 0 -35.667 2.5 -53 7.5s-33 12.5 -47 22.5s-25.333 22.833 -34 38.5s-13 34.167 -13 55.5c0 83.333 59.667 125 179 125h114v79zM348.001 229h-114.001c-110 0 -165 -37 -165 -111
c0 -19.333 3.83301 -35.833 11.5 -49.5s17.834 -25 30.501 -34s27 -15.667 43 -20s32 -6.5 48 -6.5c32 0 60.167 4.66699 84.5 14s44.833 24.333 61.5 45v162zM229 611l-125.001 -63.999c-1.33301 -0.666992 -2.5 -1.33398 -3.5 -2.00098s-2.16699 -1 -3.5 -1
c-4 0 -6 2 -6 6c0 3.33301 1.66699 6 5 8l128 66c1.33301 0.666992 3 1 5 1s3.66699 -0.333008 5 -1l128 -67c2.66699 -1.33301 4 -3.33301 4 -6c0 -4.66699 -2 -7 -6 -7c-1.33301 0 -2.66602 0.333008 -3.99902 1z" />
    <glyph glyph-name="atilde" unicode="&#xe3;" horiz-adv-x="449" 
d="M348 322c0 11.333 -2.33203 23.5 -6.99902 36.5s-12 25.167 -22 36.5s-23.167 20.833 -39.5 28.5s-36.166 11.5 -59.499 11.5c-33.333 0 -60.666 -3.66699 -81.999 -11s-36.666 -13.666 -45.999 -18.999c-1.33301 -0.666992 -2.5 -1.33398 -3.5 -2.00098
s-2.16699 -1 -3.5 -1c-4 0 -6 2 -6 6c0 2.66699 1.33301 5 4 7c4.66699 2.66699 11.5 6 20.5 10s19.667 7.83301 32 11.5s25.666 6.66699 39.999 9s29.166 3.5 44.499 3.5c25.333 0 47 -4.16699 65 -12.5s32.667 -18.666 44 -30.999s19.666 -26 24.999 -41
s8 -29.167 8 -42.5v-255c0 -13.333 1.83301 -23.5 5.5 -30.5s7.66699 -12.167 12 -15.5s8.16602 -5.33301 11.499 -6l6 -1c4.66699 0 7 -2.33301 7 -7s-2.33301 -7 -7 -7c-0.666992 0 -3.16699 0.333008 -7.5 1s-9.33301 2.66699 -15 6s-11 8.16602 -16 14.499
s-8.16699 15.5 -9.5 27.5c-36 -36.667 -85 -55 -147 -55c-18 0 -35.667 2.5 -53 7.5s-33 12.5 -47 22.5s-25.333 22.833 -34 38.5s-13 34.167 -13 55.5c0 83.333 59.667 125 179 125h114v79zM348.001 229h-114.001c-110 0 -165 -37 -165 -111
c0 -19.333 3.83301 -35.833 11.5 -49.5s17.834 -25 30.501 -34s27 -15.667 43 -20s32 -6.5 48 -6.5c32 0 60.167 4.66699 84.5 14s44.833 24.333 61.5 45v162zM333 565c-4.66699 -3.33301 -12.1689 -7.66797 -22.502 -13.001s-22.166 -8 -35.499 -8
c-15.333 0 -27.5 1.16699 -36.5 3.5s-17.667 5 -26 8s-17.166 5.83301 -26.499 8.5s-21.333 4 -36 4c-12.667 0 -23.5 -2.66699 -32.5 -8s-14.167 -8.66602 -15.5 -9.99902s-3 -2 -5 -2c-4.66699 0 -7 2 -7 6c0 2 1 4 3 6c0.666992 0.666992 2.5 2.16699 5.5 4.5
s7 4.83301 12 7.5s10.833 5 17.5 7s14 3 22 3c14.667 0 26.667 -1.33301 36 -4s18.166 -5.5 26.499 -8.5s17 -5.66699 26 -8s21.167 -3.5 36.5 -3.5c13.333 0 24.833 3 34.5 9s14.834 9 15.501 9c1.33301 1.33301 3 2 5 2c4 0 6 -2.33301 6 -7c0 -2 -1 -4 -3 -6z" />
    <glyph glyph-name="adieresis" unicode="&#xe4;" horiz-adv-x="449" 
d="M348 322c0 11.333 -2.33203 23.5 -6.99902 36.5s-12 25.167 -22 36.5s-23.167 20.833 -39.5 28.5s-36.166 11.5 -59.499 11.5c-33.333 0 -60.666 -3.66699 -81.999 -11s-36.666 -13.666 -45.999 -18.999c-1.33301 -0.666992 -2.5 -1.33398 -3.5 -2.00098
s-2.16699 -1 -3.5 -1c-4 0 -6 2 -6 6c0 2.66699 1.33301 5 4 7c4.66699 2.66699 11.5 6 20.5 10s19.667 7.83301 32 11.5s25.666 6.66699 39.999 9s29.166 3.5 44.499 3.5c25.333 0 47 -4.16699 65 -12.5s32.667 -18.666 44 -30.999s19.666 -26 24.999 -41
s8 -29.167 8 -42.5v-255c0 -13.333 1.83301 -23.5 5.5 -30.5s7.66699 -12.167 12 -15.5s8.16602 -5.33301 11.499 -6l6 -1c4.66699 0 7 -2.33301 7 -7s-2.33301 -7 -7 -7c-0.666992 0 -3.16699 0.333008 -7.5 1s-9.33301 2.66699 -15 6s-11 8.16602 -16 14.499
s-8.16699 15.5 -9.5 27.5c-36 -36.667 -85 -55 -147 -55c-18 0 -35.667 2.5 -53 7.5s-33 12.5 -47 22.5s-25.333 22.833 -34 38.5s-13 34.167 -13 55.5c0 83.333 59.667 125 179 125h114v79zM348.001 229h-114.001c-110 0 -165 -37 -165 -111
c0 -19.333 3.83301 -35.833 11.5 -49.5s17.834 -25 30.501 -34s27 -15.667 43 -20s32 -6.5 48 -6.5c32 0 60.167 4.66699 84.5 14s44.833 24.333 61.5 45v162zM154 567c0 4.66699 2.33301 7 7 7s7 -2.33301 7 -7v-36c0 -4.66699 -2.33301 -7 -7 -7s-7 2.33301 -7 7v36z
M284 567c0 4.66699 2.33301 7 7 7s7 -2.33301 7 -7v-36c0 -4.66699 -2.33301 -7 -7 -7s-7 2.33301 -7 7v36z" />
    <glyph glyph-name="aring" unicode="&#xe5;" horiz-adv-x="449" 
d="M348 322c0 11.333 -2.33203 23.5 -6.99902 36.5s-12 25.167 -22 36.5s-23.167 20.833 -39.5 28.5s-36.166 11.5 -59.499 11.5c-33.333 0 -60.666 -3.66699 -81.999 -11s-36.666 -13.666 -45.999 -18.999c-1.33301 -0.666992 -2.5 -1.33398 -3.5 -2.00098
s-2.16699 -1 -3.5 -1c-4 0 -6 2 -6 6c0 2.66699 1.33301 5 4 7c4.66699 2.66699 11.5 6 20.5 10s19.667 7.83301 32 11.5s25.666 6.66699 39.999 9s29.166 3.5 44.499 3.5c25.333 0 47 -4.16699 65 -12.5s32.667 -18.666 44 -30.999s19.666 -26 24.999 -41
s8 -29.167 8 -42.5v-255c0 -13.333 1.83301 -23.5 5.5 -30.5s7.66699 -12.167 12 -15.5s8.16602 -5.33301 11.499 -6l6 -1c4.66699 0 7 -2.33301 7 -7s-2.33301 -7 -7 -7c-0.666992 0 -3.16699 0.333008 -7.5 1s-9.33301 2.66699 -15 6s-11 8.16602 -16 14.499
s-8.16699 15.5 -9.5 27.5c-36 -36.667 -85 -55 -147 -55c-18 0 -35.667 2.5 -53 7.5s-33 12.5 -47 22.5s-25.333 22.833 -34 38.5s-13 34.167 -13 55.5c0 83.333 59.667 125 179 125h114v79zM348.001 229h-114.001c-110 0 -165 -37 -165 -111
c0 -19.333 3.83301 -35.833 11.5 -49.5s17.834 -25 30.501 -34s27 -15.667 43 -20s32 -6.5 48 -6.5c32 0 60.167 4.66699 84.5 14s44.833 24.333 61.5 45v162zM230 544c-18 0 -33.333 6.33301 -46 19s-19 28 -19 46s6.33301 33.333 19 46s28 19 46 19
s33.333 -6.33301 46 -19s19 -28 19 -46s-6.33301 -33.333 -19 -46s-28 -19 -46 -19zM281 609c0 14 -5 26 -15 36s-22 15 -36 15s-26 -5 -36 -15s-15 -22 -15 -36s5 -26 15 -36s22 -15 36 -15s26 5 36 15s15 22 15 36z" />
    <glyph glyph-name="ae" unicode="&#xe6;" horiz-adv-x="725" 
d="M363 82c31.333 -49.333 80.998 -74.001 148.998 -74.001c18.667 0 35.834 2 51.501 6s29.334 8.33301 41.001 13s20.834 9 27.501 13l10 6c0.666992 0.666992 2 1 4 1c4 0 6 -2 6 -6c0 -3.33301 -1 -5.33301 -3 -6c-0.666992 -0.666992 -4.5 -3.16699 -11.5 -7.5
s-16.5 -9 -28.5 -14s-26.167 -9.5 -42.5 -13.5s-34.5 -6 -54.5 -6c-14 0 -27.333 1 -40 3c-25.333 4 -47.833 12.333 -67.5 25s-36.167 28.667 -49.5 48c-16.667 -19.333 -35 -35.166 -55 -47.499s-41 -20.833 -63 -25.5c-11.333 -2 -22.333 -3 -33 -3
c-18 0 -35.833 2.5 -53.5 7.5s-33.5 12.667 -47.5 23s-25.5 23.333 -34.5 39s-13.5 34.167 -13.5 55.5c0 24 4.5 44.167 13.5 60.5s21.5 29.5 37.5 39.5s35 17 57 21s46 6 72 6h114v74c0 8.66699 -2 19.667 -6 33s-11 26 -21 38s-23.167 22.333 -39.5 31
s-36.833 13 -61.5 13c-26.667 0 -50.334 -3 -71.001 -9s-37.667 -12.333 -51 -19c-4 -2 -6.83301 -3.5 -8.5 -4.5s-3.5 -1.5 -5.5 -1.5c-4 0 -6 2.33301 -6 7c0 2.66699 1.33301 5 4 7c12 6 29.333 13.167 52 21.5s51.334 12.5 86.001 12.5
c22.667 0 42.167 -3.33301 58.5 -10s30 -15.167 41 -25.5s19.667 -21.666 26 -33.999s10.5 -23.833 12.5 -34.5c14 27.333 32.167 49.5 54.5 66.5s47.5 28.167 75.5 33.5c5.33301 1.33301 10.833 2.33301 16.5 3s11.5 1 17.5 1c24 0 45 -3.83301 63 -11.5
s33.333 -17.167 46 -28.5s22.167 -23.833 28.5 -37.5s9.5 -26.834 9.5 -39.501c0 -22.667 -5.83301 -40.5 -17.5 -53.5s-29.834 -23 -54.501 -30s-56.5 -11.5 -95.5 -13.5s-85.5 -3 -139.5 -3v-150zM348.998 231.999l-113.999 0.000976562
c-110.667 0 -166 -37.667 -166 -113c0 -19.333 4 -36 12 -50s18.333 -25.5 31 -34.5s27.167 -15.667 43.5 -20s32.5 -6.5 48.5 -6.5c26.667 0 52.667 6.66699 78 20s47.666 31.666 66.999 54.999v149zM362.999 246c52 0 96.5 0.666992 133.5 2s67.333 4.83301 91 10.5
s41 14.167 52 25.5s16.5 27.333 16.5 48c0 11.333 -2.83301 23 -8.5 35s-14.167 23 -25.5 33s-25.333 18.333 -42 25s-35.667 10 -57 10c-36 0 -68.167 -10.333 -96.5 -31s-49.5 -49 -63.5 -85v-73z" />
    <glyph glyph-name="ccedilla" unicode="&#xe7;" horiz-adv-x="460" 
d="M228 -4c-26 2.66699 -49.6689 9.99805 -71.002 21.998s-39.5 27.833 -54.5 47.5s-26.667 42.834 -35 69.501s-12.5 56 -12.5 88s5.66699 61.833 17 89.5s26.833 51.5 46.5 71.5s42.834 35.833 69.501 47.5s55.334 17.5 86.001 17.5c21.333 0 42.166 -3.33301 62.499 -10
s39.833 -16.334 58.5 -29.001c2 -1.33301 3 -3.33301 3 -6c0 -4.66699 -2.33301 -7 -7 -7c-1.33301 0 -2.33301 0.333008 -3 1c-36 24.667 -74 37 -114 37c-29.333 0 -56.333 -5.33301 -81 -16s-46.334 -25.5 -65.001 -44.5s-33.167 -41.5 -43.5 -67.5s-15.5 -54 -15.5 -84
c0 -26.667 3.5 -52.834 10.5 -78.501s18 -48.667 33 -69s34.167 -36.666 57.5 -48.999s51 -18.5 83 -18.5c24.667 0 49.167 3.33301 73.5 10s47.166 16 68.499 28c0.666992 0.666992 2 1 4 1c4 0 6 -2.33301 6 -7c0 -3.33301 -1 -5.33301 -3 -6
c-22 -13.333 -45.833 -23.333 -71.5 -30s-51.5 -10 -77.5 -10h-11l-15 -67c5.33301 2 11.666 4 18.999 6s16.666 3 27.999 3c15.333 0 29.666 -6 42.999 -18s20 -29.667 20 -53c0 -13.333 -2.66699 -24.666 -8 -33.999s-11.833 -17.166 -19.5 -23.499s-16.167 -11 -25.5 -14
s-18 -4.5 -26 -4.5c-17.333 0 -28.833 1.83301 -34.5 5.5s-8.5 6.5 -8.5 8.5c0 4.66699 2.33301 7 7 7c2.66699 0 5.83398 -1.33301 9.50098 -4s12.5 -4 26.5 -4c6.66699 0 13.834 1.33301 21.501 4s14.834 6.5 21.501 11.5s12.167 11.5 16.5 19.5s6.5 17.333 6.5 28
c0 20 -5.33301 34.667 -16 44s-22 14 -34 14c-9.33301 0 -18.666 -1 -27.999 -3s-17.666 -5.66699 -24.999 -11c-1.33301 -1.33301 -3 -2 -5 -2c-3.33301 0 -5.16602 0.833008 -5.49902 2.5s-0.5 3.16699 -0.5 4.5z" />
    <glyph glyph-name="egrave" unicode="&#xe8;" horiz-adv-x="460" 
d="M70 206c0 -26.667 3.99609 -52.0039 11.9961 -76.0039s19.5 -45 34.5 -63s33.333 -32.333 55 -43s45.834 -16 72.501 -16c19.333 0 38 2 56 6s34 8.33301 48 13s25.333 9 34 13l13 6c1.33301 0.666992 2.66602 1 3.99902 1c4 0 6 -2 6 -6c0 -2.66699 -1 -4.66699 -3 -6
c-0.666992 -0.666992 -5.5 -3.16699 -14.5 -7.5s-20.667 -9 -35 -14s-31 -9.5 -50 -13.5s-38.5 -6 -58.5 -6c-28 0 -53.667 5.5 -77 16.5s-43.333 26.333 -60 46s-29.5 43.334 -38.5 71.001s-13.5 58.5 -13.5 92.5c0 35.333 4.66699 67.166 14 95.499s22.5 52.333 39.5 72
s37.5 34.834 61.5 45.501s50.667 16 80 16c24.667 0 46.334 -3.66699 65.001 -11s34.334 -16.666 47.001 -27.999s22.334 -23.833 29.001 -37.5s10 -27.167 10 -40.5c0 -26 -7.66699 -47.167 -23 -63.5s-37.166 -29.166 -65.499 -38.499s-63 -15.666 -104 -18.999
s-87.167 -5 -138.5 -5zM68.9961 218.996c58 0 107.169 2.16699 147.502 6.5s73.166 11 98.499 20s43.666 20.667 54.999 35s17 31.5 17 51.5c0 11.333 -3 23 -9 35s-14.667 23 -26 33s-25.5 18.333 -42.5 25s-36.833 10 -59.5 10c-26 0 -50.167 -4.5 -72.5 -13.5
s-41.5 -22.5 -57.5 -40.5s-28.5 -40.5 -37.5 -67.5s-13.5 -58.5 -13.5 -94.5zM175.998 614.996c-6 2.66699 -8.99902 5.66602 -8.99902 8.99902c0 4.66699 2.33301 7 7 7c2 0 4.33301 -0.666992 7 -2l169 -72c2 -1.33301 3 -3.66602 3 -6.99902
c0 -2 -0.833008 -3.5 -2.5 -4.5s-3.16699 -1.5 -4.5 -1.5c-0.666992 0 -4.33398 1.33301 -11.001 4z" />
    <glyph glyph-name="eacute" unicode="&#xe9;" horiz-adv-x="460" 
d="M70 206c0 -26.667 3.99609 -52.0039 11.9961 -76.0039s19.5 -45 34.5 -63s33.333 -32.333 55 -43s45.834 -16 72.501 -16c19.333 0 38 2 56 6s34 8.33301 48 13s25.333 9 34 13l13 6c1.33301 0.666992 2.66602 1 3.99902 1c4 0 6 -2 6 -6c0 -2.66699 -1 -4.66699 -3 -6
c-0.666992 -0.666992 -5.5 -3.16699 -14.5 -7.5s-20.667 -9 -35 -14s-31 -9.5 -50 -13.5s-38.5 -6 -58.5 -6c-28 0 -53.667 5.5 -77 16.5s-43.333 26.333 -60 46s-29.5 43.334 -38.5 71.001s-13.5 58.5 -13.5 92.5c0 35.333 4.66699 67.166 14 95.499s22.5 52.333 39.5 72
s37.5 34.834 61.5 45.501s50.667 16 80 16c24.667 0 46.334 -3.66699 65.001 -11s34.334 -16.666 47.001 -27.999s22.334 -23.833 29.001 -37.5s10 -27.167 10 -40.5c0 -26 -7.66699 -47.167 -23 -63.5s-37.166 -29.166 -65.499 -38.499s-63 -15.666 -104 -18.999
s-87.167 -5 -138.5 -5zM68.9961 218.996c58 0 107.169 2.16699 147.502 6.5s73.166 11 98.499 20s43.666 20.667 54.999 35s17 31.5 17 51.5c0 11.333 -3 23 -9 35s-14.667 23 -26 33s-25.5 18.333 -42.5 25s-36.833 10 -59.5 10c-26 0 -50.167 -4.5 -72.5 -13.5
s-41.5 -22.5 -57.5 -40.5s-28.5 -40.5 -37.5 -67.5s-13.5 -58.5 -13.5 -94.5zM180.998 545.996c-2.66699 -1.33301 -5 -2.00098 -7 -2.00098c-4.66699 0 -7 2 -7 6s2 6.66699 6 8l167 71c2.66699 1.33301 5 2 7 2c4.66699 0 7 -2 7 -6
c0 -3.33301 -1.33301 -5.66602 -4 -6.99902z" />
    <glyph glyph-name="ecircumflex" unicode="&#xea;" horiz-adv-x="460" 
d="M70 206c0 -26.667 3.99609 -52.0039 11.9961 -76.0039s19.5 -45 34.5 -63s33.333 -32.333 55 -43s45.834 -16 72.501 -16c19.333 0 38 2 56 6s34 8.33301 48 13s25.333 9 34 13l13 6c1.33301 0.666992 2.66602 1 3.99902 1c4 0 6 -2 6 -6c0 -2.66699 -1 -4.66699 -3 -6
c-0.666992 -0.666992 -5.5 -3.16699 -14.5 -7.5s-20.667 -9 -35 -14s-31 -9.5 -50 -13.5s-38.5 -6 -58.5 -6c-28 0 -53.667 5.5 -77 16.5s-43.333 26.333 -60 46s-29.5 43.334 -38.5 71.001s-13.5 58.5 -13.5 92.5c0 35.333 4.66699 67.166 14 95.499s22.5 52.333 39.5 72
s37.5 34.834 61.5 45.501s50.667 16 80 16c24.667 0 46.334 -3.66699 65.001 -11s34.334 -16.666 47.001 -27.999s22.334 -23.833 29.001 -37.5s10 -27.167 10 -40.5c0 -26 -7.66699 -47.167 -23 -63.5s-37.166 -29.166 -65.499 -38.499s-63 -15.666 -104 -18.999
s-87.167 -5 -138.5 -5zM68.9961 218.996c58 0 107.169 2.16699 147.502 6.5s73.166 11 98.499 20s43.666 20.667 54.999 35s17 31.5 17 51.5c0 11.333 -3 23 -9 35s-14.667 23 -26 33s-25.5 18.333 -42.5 25s-36.833 10 -59.5 10c-26 0 -50.167 -4.5 -72.5 -13.5
s-41.5 -22.5 -57.5 -40.5s-28.5 -40.5 -37.5 -67.5s-13.5 -58.5 -13.5 -94.5zM264.998 610.996l-125.001 -63.999c-1.33301 -0.666992 -2.5 -1.33398 -3.5 -2.00098s-2.16699 -1 -3.5 -1c-4 0 -6 2 -6 6c0 3.33301 1.66699 6 5 8l128 66c1.33301 0.666992 3 1 5 1
s3.66699 -0.333008 5 -1l128 -67c2.66699 -1.33301 4 -3.33301 4 -6c0 -4.66699 -2 -7 -6 -7c-1.33301 0 -2.66602 0.333008 -3.99902 1z" />
    <glyph glyph-name="edieresis" unicode="&#xeb;" horiz-adv-x="460" 
d="M70 206c0 -26.667 3.99609 -52.0039 11.9961 -76.0039s19.5 -45 34.5 -63s33.333 -32.333 55 -43s45.834 -16 72.501 -16c19.333 0 38 2 56 6s34 8.33301 48 13s25.333 9 34 13l13 6c1.33301 0.666992 2.66602 1 3.99902 1c4 0 6 -2 6 -6c0 -2.66699 -1 -4.66699 -3 -6
c-0.666992 -0.666992 -5.5 -3.16699 -14.5 -7.5s-20.667 -9 -35 -14s-31 -9.5 -50 -13.5s-38.5 -6 -58.5 -6c-28 0 -53.667 5.5 -77 16.5s-43.333 26.333 -60 46s-29.5 43.334 -38.5 71.001s-13.5 58.5 -13.5 92.5c0 35.333 4.66699 67.166 14 95.499s22.5 52.333 39.5 72
s37.5 34.834 61.5 45.501s50.667 16 80 16c24.667 0 46.334 -3.66699 65.001 -11s34.334 -16.666 47.001 -27.999s22.334 -23.833 29.001 -37.5s10 -27.167 10 -40.5c0 -26 -7.66699 -47.167 -23 -63.5s-37.166 -29.166 -65.499 -38.499s-63 -15.666 -104 -18.999
s-87.167 -5 -138.5 -5zM68.9961 218.996c58 0 107.169 2.16699 147.502 6.5s73.166 11 98.499 20s43.666 20.667 54.999 35s17 31.5 17 51.5c0 11.333 -3 23 -9 35s-14.667 23 -26 33s-25.5 18.333 -42.5 25s-36.833 10 -59.5 10c-26 0 -50.167 -4.5 -72.5 -13.5
s-41.5 -22.5 -57.5 -40.5s-28.5 -40.5 -37.5 -67.5s-13.5 -58.5 -13.5 -94.5zM189.998 566.996c0 4.66699 2.33301 7 7 7s7 -2.33301 7 -7v-36c0 -4.66699 -2.33301 -7 -7 -7s-7 2.33301 -7 7v36zM319.998 566.996c0 4.66699 2.33301 7 7 7s7 -2.33301 7 -7v-36
c0 -4.66699 -2.33301 -7 -7 -7s-7 2.33301 -7 7v36z" />
    <glyph glyph-name="igrave" unicode="&#xec;" horiz-adv-x="184" 
d="M85 436c0 4.66699 2.33301 7 7 7s7 -2.33301 7 -7v-429c0 -4.66699 -2.33301 -7 -7 -7s-7 2.33301 -7 7v429zM7 618c-6 2.66699 -8.99902 5.66602 -8.99902 8.99902c0 4.66699 2.33301 7 7 7c2 0 4.33301 -0.666992 7 -2l169 -72c2 -1.33301 3 -3.66602 3 -6.99902
c0 -2 -0.833008 -3.5 -2.5 -4.5s-3.16699 -1.5 -4.5 -1.5c-0.666992 0 -4.33398 1.33301 -11.001 4z" />
    <glyph glyph-name="iacute" unicode="&#xed;" horiz-adv-x="184" 
d="M85 436c0 4.66699 2.33301 7 7 7s7 -2.33301 7 -7v-429c0 -4.66699 -2.33301 -7 -7 -7s-7 2.33301 -7 7v429zM13 546c-2.66699 -1.33301 -5 -2.00098 -7 -2.00098c-4.66699 0 -7 2 -7 6s2 6.66699 6 8l167 71c2.66699 1.33301 5 2 7 2c4.66699 0 7 -2 7 -6
c0 -3.33301 -1.33301 -5.66602 -4 -6.99902z" />
    <glyph glyph-name="icircumflex" unicode="&#xee;" horiz-adv-x="184" 
d="M85 436c0 4.66699 2.33301 7 7 7s7 -2.33301 7 -7v-429c0 -4.66699 -2.33301 -7 -7 -7s-7 2.33301 -7 7v429zM88 611l-125.001 -63.999c-1.33301 -0.666992 -2.5 -1.33398 -3.5 -2.00098s-2.16699 -1 -3.5 -1c-4 0 -6 2 -6 6c0 3.33301 1.66699 6 5 8l128 66
c1.33301 0.666992 3 1 5 1s3.66699 -0.333008 5 -1l128 -67c2.66699 -1.33301 4 -3.33301 4 -6c0 -4.66699 -2 -7 -6 -7c-1.33301 0 -2.66602 0.333008 -3.99902 1z" />
    <glyph glyph-name="idieresis" unicode="&#xef;" horiz-adv-x="184" 
d="M85 436c0 4.66699 2.33301 7 7 7s7 -2.33301 7 -7v-429c0 -4.66699 -2.33301 -7 -7 -7s-7 2.33301 -7 7v429zM19 567c0 4.66699 2.33301 7 7 7s7 -2.33301 7 -7v-36c0 -4.66699 -2.33301 -7 -7 -7s-7 2.33301 -7 7v36zM149 567c0 4.66699 2.33301 7 7 7s7 -2.33301 7 -7
v-36c0 -4.66699 -2.33301 -7 -7 -7s-7 2.33301 -7 7v36z" />
    <glyph glyph-name="eth" unicode="&#xf0;" horiz-adv-x="477" 
d="M423 343c0 -113.333 -16.168 -199.828 -48.501 -259.495s-78.833 -89.5 -139.5 -89.5c-26 0 -48.667 4 -68 12s-35.666 18.667 -48.999 32s-24.166 28.5 -32.499 45.5s-14.833 34.667 -19.5 53s-7.83398 36.666 -9.50098 54.999s-2.5 35.166 -2.5 50.499
c0 24 3.33301 48.167 10 72.5s17.167 46.5 31.5 66.5s33.333 36.333 57 49s52.5 19 86.5 19c17.333 0 33.833 -2.33301 49.5 -7s30.667 -10.834 45 -18.501s27.666 -16.334 39.999 -26.001s23.833 -19.5 34.5 -29.5c-2.66699 62.667 -14.167 114.834 -34.5 156.501
s-44.5 74.5 -72.5 98.5l-110 -54c-2.66699 -1.33301 -4.66699 -2 -6 -2c-4 0 -6 2.33301 -6 7c0 2.66699 1.66699 5 5 7l105 51c-27.333 21.333 -58.666 35.333 -93.999 42s-72 10 -110 10h-5c-4.66699 0 -7 2.33301 -7 7s2.33301 7 7 7h19c14.667 0 30.667 -0.666992 48 -2
s35 -4 53 -8s36 -9.83301 54 -17.5s35 -17.834 51 -30.501l77 38c0.666992 0.666992 2 1 4 1c4 0 6 -2.33301 6 -7c0 -3.33301 -1.33301 -5.33301 -4 -6l-72 -37c30 -26 55 -61.833 75 -107.5s30.667 -102.834 32 -171.501v-7zM408.999 347.005
c-10 10 -21.333 20.1729 -34 30.5059s-26.167 19.833 -40.5 28.5s-29.666 15.667 -45.999 21s-32.833 8 -49.5 8c-31.333 0 -58 -5.83301 -80 -17.5s-39.667 -26.834 -53 -45.501s-23 -39.334 -29 -62.001s-9 -45.334 -9 -68.001c0 -26.667 2.16699 -53.834 6.5 -81.501
s12.666 -52.834 24.999 -75.501s29.333 -41.167 51 -55.5s49.834 -21.5 84.501 -21.5c57.333 0 100.666 29.167 129.999 87.5s44 142.166 44 251.499z" />
    <glyph glyph-name="ntilde" unicode="&#xf1;" 
d="M389 281c0 30 -2.50098 54.833 -7.50098 74.5s-13.167 35.5 -24.5 47.5s-26.5 20.333 -45.5 25s-42.5 7 -70.5 7c-12.667 0 -25.667 -1.16699 -39 -3.5s-26.333 -5.5 -39 -9.5s-24.5 -8.5 -35.5 -13.5s-20.5 -10.167 -28.5 -15.5v-386c0 -4.66699 -2.33301 -7 -7 -7
s-7 2.33301 -7 7v429c0 4.66699 2.33301 7 7 7s7 -2.33301 7 -7v-27c18.667 10.667 40.667 20 66 28s50.666 12 75.999 12c30.667 0 56.334 -2.83301 77.001 -8.5s37.334 -15 50.001 -28s21.667 -30.167 27 -51.5s8 -48 8 -80v-274c0 -4.66699 -2.33301 -7 -7 -7
s-7 2.33301 -7 7v274zM354.999 565c-4.66699 -3.33301 -12.1689 -7.66797 -22.502 -13.001s-22.166 -8 -35.499 -8c-15.333 0 -27.5 1.16699 -36.5 3.5s-17.667 5 -26 8s-17.166 5.83301 -26.499 8.5s-21.333 4 -36 4c-12.667 0 -23.5 -2.66699 -32.5 -8
s-14.167 -8.66602 -15.5 -9.99902s-3 -2 -5 -2c-4.66699 0 -7 2 -7 6c0 2 1 4 3 6c0.666992 0.666992 2.5 2.16699 5.5 4.5s7 4.83301 12 7.5s10.833 5 17.5 7s14 3 22 3c14.667 0 26.667 -1.33301 36 -4s18.166 -5.5 26.499 -8.5s17 -5.66699 26 -8s21.167 -3.5 36.5 -3.5
c13.333 0 24.833 3 34.5 9s14.834 9 15.501 9c1.33301 1.33301 3 2 5 2c4 0 6 -2.33301 6 -7c0 -2 -1 -4 -3 -6z" />
    <glyph glyph-name="ograve" unicode="&#xf2;" 
d="M244 -6c-28 0 -53.666 5.49902 -76.999 16.499s-43.333 26.333 -60 46s-29.5 43.334 -38.5 71.001s-13.5 58.5 -13.5 92.5c0 34.667 4.5 66.167 13.5 94.5s21.833 52.5 38.5 72.5s36.667 35.333 60 46s49 16 77 16s53.667 -5.33301 77 -16s43.333 -26 60 -46
s29.5 -44.167 38.5 -72.5s13.5 -59.833 13.5 -94.5c0 -70 -16.833 -125.167 -50.5 -165.5s-79.834 -60.5 -138.501 -60.5zM244.001 7.99902c55.333 0 98.3311 18.668 128.998 56.001s46 89.333 46 156s-15.667 119.167 -47 157.5s-74 57.5 -128 57.5
c-26 0 -49.833 -5 -71.5 -15s-40.167 -24.333 -55.5 -43s-27.166 -41.334 -35.499 -68.001s-12.5 -56.334 -12.5 -89.001c0 -32 4.16699 -61.167 12.5 -87.5s20 -48.666 35 -66.999s33.333 -32.5 55 -42.5s45.834 -15 72.501 -15zM157.999 615
c-6 2.66699 -8.99902 5.66602 -8.99902 8.99902c0 4.66699 2.33301 7 7 7c2 0 4.33301 -0.666992 7 -2l169 -72c2 -1.33301 3 -3.66602 3 -6.99902c0 -2 -0.833008 -3.5 -2.5 -4.5s-3.16699 -1.5 -4.5 -1.5c-0.666992 0 -4.33398 1.33301 -11.001 4z" />
    <glyph glyph-name="oacute" unicode="&#xf3;" 
d="M244 -6c-28 0 -53.666 5.49902 -76.999 16.499s-43.333 26.333 -60 46s-29.5 43.334 -38.5 71.001s-13.5 58.5 -13.5 92.5c0 34.667 4.5 66.167 13.5 94.5s21.833 52.5 38.5 72.5s36.667 35.333 60 46s49 16 77 16s53.667 -5.33301 77 -16s43.333 -26 60 -46
s29.5 -44.167 38.5 -72.5s13.5 -59.833 13.5 -94.5c0 -70 -16.833 -125.167 -50.5 -165.5s-79.834 -60.5 -138.501 -60.5zM244.001 7.99902c55.333 0 98.3311 18.668 128.998 56.001s46 89.333 46 156s-15.667 119.167 -47 157.5s-74 57.5 -128 57.5
c-26 0 -49.833 -5 -71.5 -15s-40.167 -24.333 -55.5 -43s-27.166 -41.334 -35.499 -68.001s-12.5 -56.334 -12.5 -89.001c0 -32 4.16699 -61.167 12.5 -87.5s20 -48.666 35 -66.999s33.333 -32.5 55 -42.5s45.834 -15 72.501 -15zM162.999 546
c-2.66699 -1.33301 -5 -2.00098 -7 -2.00098c-4.66699 0 -7 2 -7 6s2 6.66699 6 8l167 71c2.66699 1.33301 5 2 7 2c4.66699 0 7 -2 7 -6c0 -3.33301 -1.33301 -5.66602 -4 -6.99902z" />
    <glyph glyph-name="ocircumflex" unicode="&#xf4;" 
d="M244 -6c-28 0 -53.666 5.49902 -76.999 16.499s-43.333 26.333 -60 46s-29.5 43.334 -38.5 71.001s-13.5 58.5 -13.5 92.5c0 34.667 4.5 66.167 13.5 94.5s21.833 52.5 38.5 72.5s36.667 35.333 60 46s49 16 77 16s53.667 -5.33301 77 -16s43.333 -26 60 -46
s29.5 -44.167 38.5 -72.5s13.5 -59.833 13.5 -94.5c0 -70 -16.833 -125.167 -50.5 -165.5s-79.834 -60.5 -138.501 -60.5zM244.001 7.99902c55.333 0 98.3311 18.668 128.998 56.001s46 89.333 46 156s-15.667 119.167 -47 157.5s-74 57.5 -128 57.5
c-26 0 -49.833 -5 -71.5 -15s-40.167 -24.333 -55.5 -43s-27.166 -41.334 -35.499 -68.001s-12.5 -56.334 -12.5 -89.001c0 -32 4.16699 -61.167 12.5 -87.5s20 -48.666 35 -66.999s33.333 -32.5 55 -42.5s45.834 -15 72.501 -15zM246.999 611l-125.001 -63.999
c-1.33301 -0.666992 -2.5 -1.33398 -3.5 -2.00098s-2.16699 -1 -3.5 -1c-4 0 -6 2 -6 6c0 3.33301 1.66699 6 5 8l128 66c1.33301 0.666992 3 1 5 1s3.66699 -0.333008 5 -1l128 -67c2.66699 -1.33301 4 -3.33301 4 -6c0 -4.66699 -2 -7 -6 -7
c-1.33301 0 -2.66602 0.333008 -3.99902 1z" />
    <glyph glyph-name="otilde" unicode="&#xf5;" 
d="M244 -6c-28 0 -53.666 5.49902 -76.999 16.499s-43.333 26.333 -60 46s-29.5 43.334 -38.5 71.001s-13.5 58.5 -13.5 92.5c0 34.667 4.5 66.167 13.5 94.5s21.833 52.5 38.5 72.5s36.667 35.333 60 46s49 16 77 16s53.667 -5.33301 77 -16s43.333 -26 60 -46
s29.5 -44.167 38.5 -72.5s13.5 -59.833 13.5 -94.5c0 -70 -16.833 -125.167 -50.5 -165.5s-79.834 -60.5 -138.501 -60.5zM244.001 7.99902c55.333 0 98.3311 18.668 128.998 56.001s46 89.333 46 156s-15.667 119.167 -47 157.5s-74 57.5 -128 57.5
c-26 0 -49.833 -5 -71.5 -15s-40.167 -24.333 -55.5 -43s-27.166 -41.334 -35.499 -68.001s-12.5 -56.334 -12.5 -89.001c0 -32 4.16699 -61.167 12.5 -87.5s20 -48.666 35 -66.999s33.333 -32.5 55 -42.5s45.834 -15 72.501 -15zM363.999 565
c-4.66699 -3.33301 -12.1689 -7.66797 -22.502 -13.001s-22.166 -8 -35.499 -8c-15.333 0 -27.5 1.16699 -36.5 3.5s-17.667 5 -26 8s-17.166 5.83301 -26.499 8.5s-21.333 4 -36 4c-12.667 0 -23.5 -2.66699 -32.5 -8s-14.167 -8.66602 -15.5 -9.99902s-3 -2 -5 -2
c-4.66699 0 -7 2 -7 6c0 2 1 4 3 6c0.666992 0.666992 2.5 2.16699 5.5 4.5s7 4.83301 12 7.5s10.833 5 17.5 7s14 3 22 3c14.667 0 26.667 -1.33301 36 -4s18.166 -5.5 26.499 -8.5s17 -5.66699 26 -8s21.167 -3.5 36.5 -3.5c13.333 0 24.833 3 34.5 9s14.834 9 15.501 9
c1.33301 1.33301 3 2 5 2c4 0 6 -2.33301 6 -7c0 -2 -1 -4 -3 -6z" />
    <glyph glyph-name="odieresis" unicode="&#xf6;" 
d="M244 -6c-28 0 -53.666 5.49902 -76.999 16.499s-43.333 26.333 -60 46s-29.5 43.334 -38.5 71.001s-13.5 58.5 -13.5 92.5c0 34.667 4.5 66.167 13.5 94.5s21.833 52.5 38.5 72.5s36.667 35.333 60 46s49 16 77 16s53.667 -5.33301 77 -16s43.333 -26 60 -46
s29.5 -44.167 38.5 -72.5s13.5 -59.833 13.5 -94.5c0 -70 -16.833 -125.167 -50.5 -165.5s-79.834 -60.5 -138.501 -60.5zM244.001 7.99902c55.333 0 98.3311 18.668 128.998 56.001s46 89.333 46 156s-15.667 119.167 -47 157.5s-74 57.5 -128 57.5
c-26 0 -49.833 -5 -71.5 -15s-40.167 -24.333 -55.5 -43s-27.166 -41.334 -35.499 -68.001s-12.5 -56.334 -12.5 -89.001c0 -32 4.16699 -61.167 12.5 -87.5s20 -48.666 35 -66.999s33.333 -32.5 55 -42.5s45.834 -15 72.501 -15zM171.999 567c0 4.66699 2.33301 7 7 7
s7 -2.33301 7 -7v-36c0 -4.66699 -2.33301 -7 -7 -7s-7 2.33301 -7 7v36zM301.999 567c0 4.66699 2.33301 7 7 7s7 -2.33301 7 -7v-36c0 -4.66699 -2.33301 -7 -7 -7s-7 2.33301 -7 7v36z" />
    <glyph glyph-name="divide" unicode="&#xf7;" horiz-adv-x="600" 
d="M96 219c-4.66699 0 -7 2.33301 -7 7s2.33301 7 7 7h408c4.66699 0 7 -2.33301 7 -7s-2.33301 -7 -7 -7h-408zM307 9c0 -4.66699 -2.33301 -7 -7 -7s-7 2.33301 -7 7v36c0 4.66699 2.33301 7 7 7s7 -2.33301 7 -7v-36zM307 412c0 -4.66699 -2.33301 -7 -7 -7
s-7 2.33301 -7 7v36c0 4.66699 2.33301 7 7 7s7 -2.33301 7 -7v-36z" />
    <glyph glyph-name="oslash" unicode="&#xf8;" horiz-adv-x="489" 
d="M368 401c20.667 -20.667 36.668 -46.167 48.001 -76.5s17 -65.166 17 -104.499c0 -70 -16.833 -125.167 -50.5 -165.5s-79.834 -60.5 -138.501 -60.5c-41.333 0 -77.333 11.667 -108 35l-17 -26c-1.33301 -2 -3.33301 -3 -6 -3c-4 0 -6 2 -6 6c0 2 0.666992 4 2 6l16 26
c-22 19.333 -39.167 44.5 -51.5 75.5s-18.5 66.5 -18.5 106.5c0 34.667 4.5 66.167 13.5 94.5s21.833 52.5 38.5 72.5s36.667 35.333 60 46s49 16 77 16c44.667 0 82.667 -13 114 -39l19 29c1.33301 2.66699 3.33301 4 6 4c4.66699 0 7 -2 7 -6
c0 -0.666992 -0.666992 -2.33398 -2 -5.00098zM351.001 398c-14 12.667 -30.001 22.0029 -48.001 28.0029s-37.667 9 -59 9c-26 0 -49.833 -5 -71.5 -15s-40.167 -24.333 -55.5 -43s-27.166 -41.334 -35.499 -68.001s-12.5 -56.334 -12.5 -89.001
c0 -38 5.5 -71.333 16.5 -100s26.5 -52.334 46.5 -71.001zM143 40.0029c28.667 -21.333 62.333 -31.999 101 -31.999c55.333 0 98.333 18.667 129 56s46 89.333 46 156c0 26.667 -2.33301 49.667 -7 69c-8.66699 41.333 -25.667 74.666 -51 99.999z" />
    <glyph glyph-name="ugrave" unicode="&#xf9;" 
d="M99 162c0 -27.333 1.66602 -50.8311 4.99902 -70.498s10 -35.834 20 -48.501s24.167 -21.834 42.5 -27.501s42.5 -8.5 72.5 -8.5c31.333 0 59.5 6.16699 84.5 18.5s46.833 27.833 65.5 46.5v364c0 4.66699 2.33301 7 7 7s7 -2.33301 7 -7v-429
c0 -4.66699 -2.33301 -7 -7 -7s-7 2.33301 -7 7v47c-17.333 -16 -39 -30 -65 -42s-55 -18 -87 -18c-29.333 0 -53.666 2.66699 -72.999 8s-34.833 14.5 -46.5 27.5s-20 30.167 -25 51.5s-7.5 48.333 -7.5 81v274c0 4.66699 2.33301 7 7 7s7 -2.33301 7 -7v-274z
M153.999 615.002c-6 2.66699 -8.99902 5.66602 -8.99902 8.99902c0 4.66699 2.33301 7 7 7c2 0 4.33301 -0.666992 7 -2l169 -72c2 -1.33301 3 -3.66602 3 -6.99902c0 -2 -0.833008 -3.5 -2.5 -4.5s-3.16699 -1.5 -4.5 -1.5c-0.666992 0 -4.33398 1.33301 -11.001 4z" />
    <glyph glyph-name="uacute" unicode="&#xfa;" 
d="M99 162c0 -27.333 1.66602 -50.8311 4.99902 -70.498s10 -35.834 20 -48.501s24.167 -21.834 42.5 -27.501s42.5 -8.5 72.5 -8.5c31.333 0 59.5 6.16699 84.5 18.5s46.833 27.833 65.5 46.5v364c0 4.66699 2.33301 7 7 7s7 -2.33301 7 -7v-429
c0 -4.66699 -2.33301 -7 -7 -7s-7 2.33301 -7 7v47c-17.333 -16 -39 -30 -65 -42s-55 -18 -87 -18c-29.333 0 -53.666 2.66699 -72.999 8s-34.833 14.5 -46.5 27.5s-20 30.167 -25 51.5s-7.5 48.333 -7.5 81v274c0 4.66699 2.33301 7 7 7s7 -2.33301 7 -7v-274z
M158.999 546.002c-2.66699 -1.33301 -5 -2.00098 -7 -2.00098c-4.66699 0 -7 2 -7 6s2 6.66699 6 8l167 71c2.66699 1.33301 5 2 7 2c4.66699 0 7 -2 7 -6c0 -3.33301 -1.33301 -5.66602 -4 -6.99902z" />
    <glyph glyph-name="ucircumflex" unicode="&#xfb;" 
d="M99 162c0 -27.333 1.66602 -50.8311 4.99902 -70.498s10 -35.834 20 -48.501s24.167 -21.834 42.5 -27.501s42.5 -8.5 72.5 -8.5c31.333 0 59.5 6.16699 84.5 18.5s46.833 27.833 65.5 46.5v364c0 4.66699 2.33301 7 7 7s7 -2.33301 7 -7v-429
c0 -4.66699 -2.33301 -7 -7 -7s-7 2.33301 -7 7v47c-17.333 -16 -39 -30 -65 -42s-55 -18 -87 -18c-29.333 0 -53.666 2.66699 -72.999 8s-34.833 14.5 -46.5 27.5s-20 30.167 -25 51.5s-7.5 48.333 -7.5 81v274c0 4.66699 2.33301 7 7 7s7 -2.33301 7 -7v-274z
M242.999 611.002l-125.001 -63.999c-1.33301 -0.666992 -2.5 -1.33398 -3.5 -2.00098s-2.16699 -1 -3.5 -1c-4 0 -6 2 -6 6c0 3.33301 1.66699 6 5 8l128 66c1.33301 0.666992 3 1 5 1s3.66699 -0.333008 5 -1l128 -67c2.66699 -1.33301 4 -3.33301 4 -6
c0 -4.66699 -2 -7 -6 -7c-1.33301 0 -2.66602 0.333008 -3.99902 1z" />
    <glyph glyph-name="udieresis" unicode="&#xfc;" 
d="M99 162c0 -27.333 1.66602 -50.8311 4.99902 -70.498s10 -35.834 20 -48.501s24.167 -21.834 42.5 -27.501s42.5 -8.5 72.5 -8.5c31.333 0 59.5 6.16699 84.5 18.5s46.833 27.833 65.5 46.5v364c0 4.66699 2.33301 7 7 7s7 -2.33301 7 -7v-429
c0 -4.66699 -2.33301 -7 -7 -7s-7 2.33301 -7 7v47c-17.333 -16 -39 -30 -65 -42s-55 -18 -87 -18c-29.333 0 -53.666 2.66699 -72.999 8s-34.833 14.5 -46.5 27.5s-20 30.167 -25 51.5s-7.5 48.333 -7.5 81v274c0 4.66699 2.33301 7 7 7s7 -2.33301 7 -7v-274z
M167.999 567.002c0 4.66699 2.33301 7 7 7s7 -2.33301 7 -7v-36c0 -4.66699 -2.33301 -7 -7 -7s-7 2.33301 -7 7v36zM297.999 567.002c0 4.66699 2.33301 7 7 7s7 -2.33301 7 -7v-36c0 -4.66699 -2.33301 -7 -7 -7s-7 2.33301 -7 7v36z" />
    <glyph glyph-name="yacute" unicode="&#xfd;" horiz-adv-x="420" 
d="M249 31c-19.333 -54 -37.666 -97.499 -54.999 -130.499s-34.833 -58.5 -52.5 -76.5s-36 -30 -55 -36s-39.833 -9 -62.5 -9c-16 0 -30 1.16699 -42 3.5s-22.833 5.5 -32.5 9.5s-18.5 8.83301 -26.5 14.5l-25 18.5c-2 2 -3 4 -3 6c0 4.66699 2.33301 7 7 7c2 0 4 -1 6 -3
l18.5 -14.5c6.33301 -5 13.833 -9.5 22.5 -13.5s19 -7.33301 31 -10s26.667 -4 44 -4c20 0 38.333 2.66699 55 8s33 15.5 49 30.5s31.667 36 47 63s31.333 62.5 48 106.5c-4.66699 1.33301 -8.33398 3.66602 -11.001 6.99902c-10 14.667 -21.167 35.167 -33.5 61.5l-38 85
l-38 93l-33.5 87l-24.5 65.5c-6.33301 17.333 -9.83301 27.333 -10.5 30c-1.33301 4 -2 6.33301 -2 7c0 4 2.66699 6 8 6c2.66699 0 4.66699 -1.66699 6 -5c0 -0.666992 3.16699 -9.5 9.5 -26.5l24 -65l33.5 -88l38.5 -95c13 -31 25.667 -59.667 38 -86
s23.5 -46.833 33.5 -61.5c1.33301 -1.33301 3 -2 5 -2l58 159l25 68.5l25.5 70.5l24 67l21.5 59c1.33301 3.33301 3.33301 5 6 5c4.66699 0 7 -2 7 -6c0 -2 -2 -8.33301 -6 -19zM129 546.001c-2.66699 -1.33301 -5 -2.00098 -7 -2.00098c-4.66699 0 -7 2 -7 6s2 6.66699 6 8
l167 71c2.66699 1.33301 5 2 7 2c4.66699 0 7 -2 7 -6c0 -3.33301 -1.33301 -5.66602 -4 -6.99902z" />
    <glyph glyph-name="thorn" unicode="&#xfe;" horiz-adv-x="492" 
d="M85 663c0 4.66699 2.33203 6.99902 6.99902 6.99902s7 -2.33301 7 -7v-250c20.667 12.667 42.834 21.834 66.501 27.501s47.834 8.5 72.501 8.5c30 0 57.167 -5.33301 81.5 -16s45.166 -25.667 62.499 -45s30.833 -42.833 40.5 -70.5s14.5 -58.5 14.5 -92.5
c0 -32.667 -5.66699 -63 -17 -91s-27 -52.333 -47 -73s-43.333 -37 -70 -49s-55.334 -18 -86.001 -18c-23.333 0 -45.666 4.66699 -66.999 14s-38.333 18 -51 26v-228c0 -4.66699 -2.33301 -7 -7 -7s-7 2.33301 -7 7v857zM98.999 49.999l20.5 -12.5
c8.33301 -5 17.833 -9.66699 28.5 -14s21.834 -8 33.501 -11s23.5 -4.5 35.5 -4.5c28.667 0 55.667 5.5 81 16.5s47.166 26.333 65.499 46s32.833 42.667 43.5 69s16 54.833 16 85.5c0 32 -4.5 61 -13.5 87s-21.5 48 -37.5 66s-35.333 32 -58 42s-48 15 -76 15
c-25.333 0 -49.833 -2.83301 -73.5 -8.5s-45.5 -15.167 -65.5 -28.5v-348z" />
    <glyph glyph-name="ydieresis" unicode="&#xff;" horiz-adv-x="420" 
d="M249 31c-19.333 -54 -37.666 -97.499 -54.999 -130.499s-34.833 -58.5 -52.5 -76.5s-36 -30 -55 -36s-39.833 -9 -62.5 -9c-16 0 -30 1.16699 -42 3.5s-22.833 5.5 -32.5 9.5s-18.5 8.83301 -26.5 14.5l-25 18.5c-2 2 -3 4 -3 6c0 4.66699 2.33301 7 7 7c2 0 4 -1 6 -3
l18.5 -14.5c6.33301 -5 13.833 -9.5 22.5 -13.5s19 -7.33301 31 -10s26.667 -4 44 -4c20 0 38.333 2.66699 55 8s33 15.5 49 30.5s31.667 36 47 63s31.333 62.5 48 106.5c-4.66699 1.33301 -8.33398 3.66602 -11.001 6.99902c-10 14.667 -21.167 35.167 -33.5 61.5l-38 85
l-38 93l-33.5 87l-24.5 65.5c-6.33301 17.333 -9.83301 27.333 -10.5 30c-1.33301 4 -2 6.33301 -2 7c0 4 2.66699 6 8 6c2.66699 0 4.66699 -1.66699 6 -5c0 -0.666992 3.16699 -9.5 9.5 -26.5l24 -65l33.5 -88l38.5 -95c13 -31 25.667 -59.667 38 -86
s23.5 -46.833 33.5 -61.5c1.33301 -1.33301 3 -2 5 -2l58 159l25 68.5l25.5 70.5l24 67l21.5 59c1.33301 3.33301 3.33301 5 6 5c4.66699 0 7 -2 7 -6c0 -2 -2 -8.33301 -6 -19zM138 587.001c0 4.66699 2.33301 7 7 7s7 -2.33301 7 -7v-36c0 -4.66699 -2.33301 -7 -7 -7
s-7 2.33301 -7 7v36zM268 587.001c0 4.66699 2.33301 7 7 7s7 -2.33301 7 -7v-36c0 -4.66699 -2.33301 -7 -7 -7s-7 2.33301 -7 7v36z" />
    <glyph glyph-name="dotlessi" unicode="&#x131;" horiz-adv-x="184" 
d="M85 436c0 4.66699 2.33301 7 7 7s7 -2.33301 7 -7v-429c0 -4.66699 -2.33301 -7 -7 -7s-7 2.33301 -7 7v429z" />
    <glyph glyph-name="Lslash" unicode="&#x141;" horiz-adv-x="537" 
d="M191 0c-4.66699 0 -7 2.33203 -7 6.99902v287l-88 -61c-0.666992 -0.666992 -2.33398 -1 -5.00098 -1c-4 0 -6 2.33301 -6 7c0 2.66699 1 4.66699 3 6l96 67v320c0 4.66699 2.33301 7 7 7s7 -2.33301 7 -7v-311l118 81c1.33301 0.666992 3.33301 1 6 1
c3.33301 0 5 -2 5 -6c0 -1.33301 -0.166992 -2.66602 -0.5 -3.99902s-1.16602 -2.33301 -2.49902 -3l-126 -87v-289h297c4.66699 0 7 -2.33301 7 -7s-2.33301 -7 -7 -7h-304z" />
    <glyph glyph-name="lslash" unicode="&#x142;" horiz-adv-x="215" 
d="M85 363l-80.002 -56c-0.666992 -0.666992 -2 -1 -4 -1c-4.66699 0 -7 2 -7 6c0 3.33301 1 5.66602 3 6.99902l88 62v300c0 4.66699 2.33301 7 7 7s7 -2.33301 7 -7v-290l105 74c0.666992 0.666992 1.66699 1 3 1c4.66699 0 7 -2 7 -6
c0 -1.33301 -0.166992 -2.66602 -0.5 -3.99902s-1.16602 -2.33301 -2.49902 -3l-112 -80v-218c0 -28 1.33301 -51 4 -69s7.16699 -32.333 13.5 -43s14.833 -18.167 25.5 -22.5s24.334 -6.5 41.001 -6.5c4.66699 0 7 -2.33301 7 -7s-2.33301 -7 -7 -7
c-18.667 0 -34.334 2.5 -47.001 7.5s-22.667 13.5 -30 25.5s-12.666 27.833 -15.999 47.5s-5 44.5 -5 74.5v208z" />
    <glyph glyph-name="OE" unicode="&#x152;" horiz-adv-x="851" 
d="M303 0c-36 0 -68.666 7.83203 -97.999 23.499s-54.333 37.5 -75 65.5s-36.667 61.333 -48 100s-17 81.334 -17 128.001s5.66699 89.667 17 129s27.5 73.333 48.5 102s46.167 51 75.5 67s61.666 24 96.999 24h447c4.66699 0 7 -2.33301 7 -7s-2.33301 -7 -7 -7h-277v-281
h258c4.66699 0 7 -2.33301 7 -7s-2.33301 -7 -7 -7h-258v-316h296c4.66699 0 7 -2.33301 7 -7s-2.33301 -7 -7 -7h-466zM459.001 624.999l-155.998 0.000976562c-33.333 0 -63.833 -7.66699 -91.5 -23s-51.334 -36.666 -71.001 -63.999s-34.834 -59.833 -45.501 -97.5
s-16 -78.834 -16 -123.501s5.33301 -85.667 16 -123s25.667 -69.333 45 -96s42.833 -47.334 70.5 -62.001s58.5 -22 92.5 -22h156v611z" />
    <glyph glyph-name="oe" unicode="&#x153;" horiz-adv-x="825" 
d="M434 206c2.66699 -40.667 10.1631 -73.835 22.4961 -99.502s27.5 -45.834 45.5 -60.501s37.833 -24.667 59.5 -30s42.834 -8 63.501 -8c20 0 38 2 54 6s30 8.5 42 13.5s21.5 9.5 28.5 13.5s11.5 6 13.5 6c4.66699 0 7 -2 7 -6c0 -3.33301 -1 -5.33301 -3 -6
c-0.666992 -0.666992 -4.66699 -3.16699 -12 -7.5s-17.166 -9 -29.499 -14s-27.166 -9.5 -44.499 -13.5s-36 -6 -56 -6c-17.333 0 -36 2 -56 6s-39.5 11.833 -58.5 23.5s-36 28.167 -51 49.5s-25.833 49.666 -32.5 84.999c-8.66699 -52 -29.167 -92.333 -61.5 -121
s-72.833 -43 -121.5 -43c-28 0 -53.667 5.5 -77 16.5s-43.333 26.333 -60 46s-29.5 43.334 -38.5 71.001s-13.5 58.5 -13.5 92.5c0 34.667 4.5 66.167 13.5 94.5s21.833 52.5 38.5 72.5s36.667 35.333 60 46s49 16 77 16c48 0 88 -14.167 120 -42.5s52.667 -67.5 62 -117.5
c8 38.667 24 71.167 48 97.5s53 44.5 87 54.5c18 5.33301 36 8 54 8c24.667 0 46.334 -3.66699 65.001 -11s34.5 -16.666 47.5 -27.999s22.833 -23.833 29.5 -37.5s10 -27.167 10 -40.5c0 -26 -7.66699 -47.167 -23 -63.5s-37.5 -29.166 -66.5 -38.499
s-64 -15.666 -105 -18.999s-87.167 -5 -138.5 -5zM419.996 229.999c-2 64 -18.835 114.168 -50.502 150.501s-73.5 54.5 -125.5 54.5c-26 0 -49.833 -5 -71.5 -15s-40.167 -24.333 -55.5 -43s-27.166 -41.334 -35.499 -68.001s-12.5 -56.334 -12.5 -89.001
c0 -32 4.16699 -61.167 12.5 -87.5s20 -48.666 35 -66.999s33.333 -32.5 55 -42.5s45.834 -15 72.501 -15c55.333 0 98.5 18.667 129.5 56s46.5 89.333 46.5 156v10zM433.994 220c58 0 107.167 2.16895 147.5 6.50195s73.333 10.833 99 19.5s44.167 20.167 55.5 34.5
s17 31.5 17 51.5c0 11.333 -3 23 -9 35s-14.833 23 -26.5 33s-26 18.333 -43 25s-36.833 10 -59.5 10c-26 0 -50 -5 -72 -15s-41.167 -23.833 -57.5 -41.5s-29 -38.834 -38 -63.501s-13.5 -51.334 -13.5 -80.001v-15z" />
    <glyph glyph-name="Scaron" unicode="&#x160;" horiz-adv-x="484" 
d="M419 161c0 -50.667 -17.0029 -91.166 -51.0029 -121.499s-79.333 -45.5 -136 -45.5c-20 0 -38.333 2.16699 -55 6.5s-31.834 9.83301 -45.501 16.5s-25.667 13.5 -36 20.5s-19.166 13.5 -26.499 19.5c-2.66699 2 -4 4 -4 6c0 4.66699 2.33301 7 7 7
c0.666992 0 3 -1.33301 7 -4c7.33301 -5.33301 16 -11.333 26 -18s21.333 -13 34 -19s26.834 -11 42.501 -15s32.5 -6 50.5 -6c54 0 96.333 13.667 127 41s46 64.666 46 111.999c0 30.667 -7.83301 55.834 -23.5 75.501s-35.334 36.5 -59.001 50.5
s-49.334 26.667 -77.001 38s-53.334 24.166 -77.001 38.499s-43.334 32 -59.001 53s-23.5 48.167 -23.5 81.5c0 22 4.66699 42.167 14 60.5s21.833 33.833 37.5 46.5s33.5 22.5 53.5 29.5s41 10.5 63 10.5c16.667 0 32.167 -1.66699 46.5 -5s27.666 -7.66602 39.999 -12.999
s23.5 -11.166 33.5 -17.499s19 -12.5 27 -18.5c2.66699 -2 4 -4 4 -6c0 -5.33301 -2.66699 -8 -8 -8c-1.33301 0 -2.66602 0.666992 -3.99902 2c-14.667 11.333 -33.667 22.833 -57 34.5s-50.666 17.5 -81.999 17.5c-20 0 -39.167 -3.16699 -57.5 -9.5
s-34.666 -15.333 -48.999 -27s-25.833 -25.667 -34.5 -42s-13 -34.5 -13 -54.5c0 -30.667 7.83301 -55.834 23.5 -75.501s35.334 -36.334 59.001 -50.001s49.334 -26.167 77.001 -37.5s53.334 -24.333 77.001 -39s43.334 -32.5 59.001 -53.5s23.5 -48.167 23.5 -81.5z
M261.997 746.001c-2.66699 -1.33301 -4.99805 -2 -6.99805 -2s-4.33301 0.666992 -7 2l-132 66c-2.66699 1.33301 -4 3.33301 -4 6c0 4.66699 2 7 6 7c1.33301 0 2.66602 -0.333008 3.99902 -1l133 -66l123 66c1.33301 0.666992 2.66602 1 3.99902 1c4 0 6 -2.33301 6 -7
c0 -2.66699 -1.33301 -4.66699 -4 -6z" />
    <glyph glyph-name="scaron" unicode="&#x161;" horiz-adv-x="399" 
d="M344 116c0 -17.333 -3.49707 -33.5 -10.4971 -48.5s-16.833 -28 -29.5 -39s-27.667 -19.5 -45 -25.5s-36.333 -9 -57 -9c-20 0 -38.5 2.16699 -55.5 6.5s-31.833 9 -44.5 14s-22.834 9.66699 -30.501 14s-11.834 6.83301 -12.501 7.5c-2.66699 2 -4 4 -4 6
c0 4.66699 2.33301 7 7 7c1.33301 0 3.66602 -1 6.99902 -3c0.666992 -0.666992 4.66699 -3 12 -7s17 -8.33301 29 -13s25.833 -8.83398 41.5 -12.501s32.5 -5.5 50.5 -5.5c37.333 0 68 10 92 30s36 46 36 78c0 18 -6.16699 33.333 -18.5 46s-27.833 24 -46.5 34
s-39 19.5 -61 28.5s-42.333 18.833 -61 29.5s-34.167 22.834 -46.5 36.501s-18.5 30.834 -18.5 51.501c0 18 4 33.833 12 47.5s18.5 24.834 31.5 33.501s27.833 15.167 44.5 19.5s33.334 6.5 50.001 6.5c26.667 0 49.667 -3.66699 69 -11s32.333 -12.666 39 -15.999
c3.33301 -2 5 -4.33301 5 -7c0 -4.66699 -2.33301 -7 -7 -7c-1.33301 0 -4 1 -8 3c-10.667 5.33301 -24.5 10.666 -41.5 15.999s-35.833 8 -56.5 8c-14.667 0 -29.334 -1.83301 -44.001 -5.5s-28 -9.33398 -40 -17.001s-21.667 -17.334 -29 -29.001s-11 -25.5 -11 -41.5
c0 -18 6.16699 -33.333 18.5 -46s27.833 -24 46.5 -34s39 -19.5 61 -28.5s42.333 -18.833 61 -29.5s34.167 -23 46.5 -37s18.5 -31 18.5 -51zM213.003 546c-2.66699 -1.33301 -4.99805 -2 -6.99805 -2s-4.33301 0.666992 -7 2l-132 66c-2.66699 1.33301 -4 3.33301 -4 6
c0 4.66699 2 7 6 7c1.33301 0 2.66602 -0.333008 3.99902 -1l133 -66l123 66c1.33301 0.666992 2.66602 1 3.99902 1c4 0 6 -2.33301 6 -7c0 -2.66699 -1.33301 -4.66699 -4 -6z" />
    <glyph glyph-name="Ydieresis" unicode="&#x178;" horiz-adv-x="486" 
d="M236 264c-2.66699 0 -5.83008 0.833008 -9.49707 2.5s-7.16699 4.5 -10.5 8.5c-6 8 -13.667 20.333 -23 37l-31 57.5l-35.5 69.5l-35.5 72.5l-31 66l-23 49.5c-1.33301 2.66699 -2 4.66699 -2 6c0 4 2.33301 6 7 6c2.66699 0 4.66699 -1.66699 6 -5
c0.666992 -1.33301 4.16699 -9 10.5 -23l25 -53l34.5 -71.5l38.5 -78l38.5 -72.5c12.667 -22.667 23.667 -41 33 -55c2 -2.66699 7 -4 15 -4s13 1.33301 15 4c9.33301 14 20.166 32.333 32.499 55l38.5 72.5l39 78l34.5 71.5l25 53c6.33301 14 9.83301 21.667 10.5 23
c1.33301 3.33301 3.66602 5 6.99902 5c4 0 6 -2 6 -6c0 -1.33301 -0.333008 -2.33301 -1 -3l-1 -3l-23 -49.5l-31 -65.5l-35.5 -72l-35.5 -70l-31 -58c-9.33301 -16.667 -17 -29 -23 -37c-3.33301 -4 -6.83301 -6.83301 -10.5 -8.5s-6.83398 -2.5 -9.50098 -2.5v-257
c0 -4.66699 -2.33301 -7 -7 -7s-7 2.33301 -7 7v257zM174.004 787c0 4.66699 2.33301 7 7 7s7 -2.33301 7 -7v-36c0 -4.66699 -2.33301 -7 -7 -7s-7 2.33301 -7 7v36zM304.004 787c0 4.66699 2.33301 7 7 7s7 -2.33301 7 -7v-36c0 -4.66699 -2.33301 -7 -7 -7
s-7 2.33301 -7 7v36z" />
    <glyph glyph-name="Zcaron" unicode="&#x17d;" horiz-adv-x="465" 
d="M42 0c-4.66699 0 -7 2.33496 -7 7.00195v11c0 6.66699 2 13.667 6 21c8 15.333 21.167 38.333 39.5 69l63 103.5l74.5 120l74.5 118l63 97.5c18.333 28 31.5 47.667 39.5 59c0.666992 1.33301 1.66699 3.16602 3 5.49902s2 5.16602 2 8.49902v5h-358
c-4.66699 0 -7 2.33301 -7 7s2.33301 7 7 7h365c4.66699 0 7 -2.33301 7 -7v-12c0 -8 -2.33301 -15.333 -7 -22c-8.66699 -12 -22.5 -32.667 -41.5 -62l-65 -100.5l-76 -119.5l-74 -120l-61 -101c-17.667 -29.333 -29.5 -50 -35.5 -62c-3.33301 -6.66699 -5 -11.667 -5 -15
v-4h374c4.66699 0 7 -2.33301 7 -7s-2.33301 -7 -7 -7h-381zM245 746.002c-2.66699 -1.33301 -4.99805 -2 -6.99805 -2s-4.33301 0.666992 -7 2l-132 66c-2.66699 1.33301 -4 3.33301 -4 6c0 4.66699 2 7 6 7c1.33301 0 2.66602 -0.333008 3.99902 -1l133 -66l123 66
c1.33301 0.666992 2.66602 1 3.99902 1c4 0 6 -2.33301 6 -7c0 -2.66699 -1.33301 -4.66699 -4 -6z" />
    <glyph glyph-name="zcaron" unicode="&#x17e;" horiz-adv-x="447" 
d="M61 0c-4 0 -6.00098 2.33105 -6.00098 6.99805c0 10 1.33301 17.667 4 23c4.66699 8.66699 14.5 23.334 29.5 44.001l53 71l65 84l66.5 84l50 63c14.667 18.667 25.667 33.334 33 44.001c2 2.66699 3 5.66699 3 9h-296c-4.66699 0 -7 2.33301 -7 7s2.33301 7 7 7h304
c4 0 6 -2 6 -6v-8c0 -2 -0.333008 -4.33301 -1 -7s-2 -5.66699 -4 -9c-7.33301 -10.667 -18.166 -25 -32.499 -43l-51.5 -65l-100 -127l-38 -49.5l-34.5 -45.5l-26.5 -37c-7.33301 -10.667 -12 -18 -14 -22s-3 -7.33301 -3 -10h317c4.66699 0 7 -2.33301 7 -7
s-2.33301 -7 -7 -7h-324zM236.999 545.998c-2.66699 -1.33301 -4.99805 -2 -6.99805 -2s-4.33301 0.666992 -7 2l-132 66c-2.66699 1.33301 -4 3.33301 -4 6c0 4.66699 2 7 6 7c1.33301 0 2.66602 -0.333008 3.99902 -1l133 -66l123 66
c1.33301 0.666992 2.66602 1 3.99902 1c4 0 6 -2.33301 6 -7c0 -2.66699 -1.33301 -4.66699 -4 -6z" />
    <glyph glyph-name="florin" unicode="&#x192;" horiz-adv-x="654" 
d="M337 380h-117.001c-4.66699 0 -7 2.33301 -7 7s2.33301 7 7 7h120l29 145c12.667 66 29.834 113 51.501 141s50.167 42 85.5 42c14.667 0 27.5 -1.33301 38.5 -4s20.333 -5.83398 28 -9.50098s13.5 -7.16699 17.5 -10.5l6 -4c2 -2 3 -4 3 -6
c0 -4.66699 -2.33301 -7 -7 -7c-2 0 -3.66699 0.666992 -5 2c-3.33301 2.66699 -11.166 7.5 -23.499 14.5s-31.5 10.5 -57.5 10.5c-31.333 0 -56.5 -13 -75.5 -39s-34.833 -70 -47.5 -132l-28 -143h140c4.66699 0 7 -2.33301 7 -7s-2.33301 -7 -7 -7h-143l-66 -327
c-8 -39.333 -17.833 -71 -29.5 -95s-23.834 -42.5 -36.501 -55.5s-25.334 -21.5 -38.001 -25.5s-23.667 -6 -33 -6c-14.667 0 -27.667 1.33301 -39 4s-20.833 5.83398 -28.5 9.50098s-13.5 7.16699 -17.5 10.5l-6 4c-2 2 -3 4 -3 6c0 4.66699 2.33301 7 7 7
c2 0 3.66699 -0.666992 5 -2c0.666992 -0.666992 3 -2.5 7 -5.5s9.5 -6 16.5 -9s15.333 -5.66699 25 -8s20.834 -3.5 33.501 -3.5c29.333 0 54.333 15 75 45s36.667 72.333 48 127z" />
    <glyph glyph-name="circumflex" unicode="&#x2c6;" horiz-adv-x="405" 
d="M203 611l-125.001 -63.999c-1.33301 -0.666992 -2.5 -1.33398 -3.5 -2.00098s-2.16699 -1 -3.5 -1c-4 0 -6 2 -6 6c0 3.33301 1.66699 6 5 8l128 66c1.33301 0.666992 3 1 5 1s3.66699 -0.333008 5 -1l128 -67c2.66699 -1.33301 4 -3.33301 4 -6c0 -4.66699 -2 -7 -6 -7
c-1.33301 0 -2.66602 0.333008 -3.99902 1z" />
    <glyph glyph-name="caron" unicode="&#x2c7;" horiz-adv-x="406" 
d="M215 546c-2.66699 -1.33301 -4.99805 -2 -6.99805 -2s-4.33301 0.666992 -7 2l-132 66c-2.66699 1.33301 -4 3.33301 -4 6c0 4.66699 2 7 6 7c1.33301 0 2.66602 -0.333008 3.99902 -1l133 -66l123 66c1.33301 0.666992 2.66602 1 3.99902 1c4 0 6 -2.33301 6 -7
c0 -2.66699 -1.33301 -4.66699 -4 -6z" />
    <glyph glyph-name="breve" unicode="&#x2d8;" horiz-adv-x="350" 
d="M282 609c-2 -8 -6.83496 -16.833 -14.502 -26.5s-18.834 -18.5 -33.501 -26.5s-34.667 -12 -60 -12s-45.166 4 -59.499 12s-25.166 16.833 -32.499 26.5s-12 18.5 -14 26.5l-3 13c0 4.66699 2.33301 7 7 7s7 -2 7 -6c0 -0.666992 0.833008 -4.5 2.5 -11.5
s5.66699 -14.5 12 -22.5s15.833 -15.167 28.5 -21.5s30 -9.5 52 -9.5s39.5 3.16699 52.5 9.5s22.833 13.5 29.5 21.5s10.834 15.5 12.501 22.5s2.5 10.833 2.5 11.5c0 4 2.66699 6 8 6c4 0 6 -2.33301 6 -7z" />
    <glyph glyph-name="dotaccent" unicode="&#x2d9;" horiz-adv-x="164" 
d="M82 544c-11.333 0 -17 5.66699 -17 17s5.66699 17 17 17s17 -5.66699 17 -17s-5.66699 -17 -17 -17z" />
    <glyph glyph-name="ring" unicode="&#x2da;" horiz-adv-x="259" 
d="M130 544c-18 0 -33.333 6.33301 -46 19s-19 28 -19 46s6.33301 33.333 19 46s28 19 46 19s33.333 -6.33301 46 -19s19 -28 19 -46s-6.33301 -33.333 -19 -46s-28 -19 -46 -19zM181 609c0 14 -5 26 -15 36s-22 15 -36 15s-26 -5 -36 -15s-15 -22 -15 -36s5 -26 15 -36
s22 -15 36 -15s26 5 36 15s15 22 15 36z" />
    <glyph glyph-name="ogonek" unicode="&#x2db;" horiz-adv-x="297" 
d="M227 -163c-0.666992 -0.666992 -3.16504 -2.00195 -7.49805 -4.00195s-9.83301 -4.16699 -16.5 -6.5s-14.167 -4.5 -22.5 -6.5s-16.833 -3 -25.5 -3c-28 0 -50 7.83301 -66 23.5s-24 36.834 -24 63.501c0 15.333 2 28.333 6 39s8.83301 19.834 14.5 27.501
s11.667 13.667 18 18l16.5 11.5c0.666992 0.666992 2.33398 1 5.00098 1c4 0 6 -2 6 -6c0 -3.33301 -1 -5.33301 -3 -6c-4 -2.66699 -8.83301 -6.16699 -14.5 -10.5s-11 -9.83301 -16 -16.5s-9.33301 -14.667 -13 -24s-5.5 -20.666 -5.5 -33.999
c0 -17.333 3.16699 -30.833 9.5 -40.5s13.666 -16.834 21.999 -21.501s16.666 -7.66699 24.999 -9s14.833 -2 19.5 -2c14.667 0 28.5 2.66699 41.5 8s21.5 9 25.5 11c1.33301 0.666992 2.66602 1 3.99902 1c4 0 6 -2.33301 6 -7c0 -2.66699 -1.66699 -5 -5 -7z" />
    <glyph glyph-name="tilde" unicode="&#x2dc;" horiz-adv-x="376" 
d="M308 565c-4.66699 -3.33301 -12.1689 -7.66797 -22.502 -13.001s-22.166 -8 -35.499 -8c-15.333 0 -27.5 1.16699 -36.5 3.5s-17.667 5 -26 8s-17.166 5.83301 -26.499 8.5s-21.333 4 -36 4c-12.667 0 -23.5 -2.66699 -32.5 -8s-14.167 -8.66602 -15.5 -9.99902
s-3 -2 -5 -2c-4.66699 0 -7 2 -7 6c0 2 1 4 3 6c0.666992 0.666992 2.5 2.16699 5.5 4.5s7 4.83301 12 7.5s10.833 5 17.5 7s14 3 22 3c14.667 0 26.667 -1.33301 36 -4s18.166 -5.5 26.499 -8.5s17 -5.66699 26 -8s21.167 -3.5 36.5 -3.5c13.333 0 24.833 3 34.5 9
s14.834 9 15.501 9c1.33301 1.33301 3 2 5 2c4 0 6 -2.33301 6 -7c0 -2 -1 -4 -3 -6z" />
    <glyph glyph-name="hungarumlaut" unicode="&#x2dd;" horiz-adv-x="313" 
d="M126 709c1.33301 2.66699 3.33203 3.99902 5.99902 3.99902c4.66699 0 7 -2.33301 7 -7c0 -1.33301 -0.333008 -2.66602 -1 -3.99902l-60 -154c-1.33301 -2.66699 -3.66602 -4 -6.99902 -4c-4 0 -6 2 -6 6c0 2 0.333008 3.66699 1 5zM234.999 708.999
c1.33301 2.66699 3.33203 3.99902 5.99902 3.99902c4.66699 0 7 -2.33301 7 -7c0 -1.33301 -0.333008 -2.66602 -1 -3.99902l-60 -154c-1.33301 -2.66699 -3.66602 -4 -6.99902 -4c-4 0 -6 2 -6 6c0 2 0.333008 3.66699 1 5z" />
    <glyph glyph-name="Delta" unicode="&#x394;" horiz-adv-x="607" 
d="M91 0c-4 0 -6 1.99902 -6 5.99902c0 2.66699 0.666992 5.33398 2 8.00098l212 519c1.33301 3.33301 3.33301 5 6 5s4.66699 -1.66699 6 -5l210 -521c0.666992 -1.33301 1 -3 1 -5c0 -4.66699 -2 -7 -6 -7h-425zM305 511.999l-203 -498h403z" />
    <glyph glyph-name="Omega" unicode="&#x3a9;" horiz-adv-x="774" 
d="M463 0c-4.66699 0 -6.99902 2.33105 -6.99902 6.99805s2 7 6 7c2 0 7.83301 2.66699 17.5 8s21 13.333 34 24s26.833 24 41.5 40s28.167 34.833 40.5 56.5s22.5 46.167 30.5 73.5s12 57.666 12 90.999c0 44.667 -6.16699 85.667 -18.5 123s-29.666 69.666 -51.999 96.999
s-48.833 48.666 -79.5 63.999s-64.334 23 -101.001 23s-70.334 -7.66699 -101.001 -23s-57.167 -36.666 -79.5 -63.999s-39.833 -59.666 -52.5 -96.999s-19 -78.333 -19 -123c0 -31.333 4 -60.333 12 -87s18 -51 30 -73s25.167 -41.167 39.5 -57.5s28 -30.166 41 -41.499
s24.5 -19.833 34.5 -25.5s16.333 -8.5 19 -8.5c4 0 6 -2.33301 6 -7s-2 -7 -6 -7h-199c-4.66699 0 -7 2.33301 -7 7s2.33301 7 7 7h168c-14 8.66699 -30.167 21.667 -48.5 39s-35.666 38.333 -51.999 63s-30.166 53 -41.499 85s-17 67.333 -17 106
c0 46.667 6.66699 89.5 20 128.5s31.833 72.833 55.5 101.5s51.667 51 84 67s67.833 24 106.5 24s74.167 -8 106.5 -24s60.166 -38.333 83.499 -67s41.666 -62.5 54.999 -101.5s20 -81.833 20 -128.5c0 -40.667 -5.83301 -77.167 -17.5 -109.5
s-25.834 -60.666 -42.501 -84.999s-34.167 -44.666 -52.5 -60.999s-34.166 -28.833 -47.499 -37.5h170c4.66699 0 7 -2.33301 7 -7s-2.33301 -7 -7 -7h-199z" />
    <glyph glyph-name="mu" unicode="&#x3bc;" horiz-adv-x="489" 
d="M390 436c0 4.66699 2.33398 7 7.00098 7s7 -2.33301 7 -7v-429c0 -4.66699 -2.33301 -7 -7 -7s-7 2.33301 -7 7v40c-6 -6 -14 -12.167 -24 -18.5s-21.333 -12 -34 -17s-26.167 -9.16699 -40.5 -12.5s-28.833 -5 -43.5 -5c-42.667 0 -76.834 6.33301 -102.501 19
s-41.167 31.667 -46.5 57v-180c0 -4.66699 -2.33301 -7 -7 -7s-7 2.33301 -7 7v546c0 4.66699 2.33301 7 7 7s7 -2.33301 7 -7v-298c0 -50 12.5 -84.167 37.5 -102.5s62.167 -27.5 111.5 -27.5c30 0 57.5 5.5 82.5 16.5s44.833 23.833 59.5 38.5v373z" />
    <glyph glyph-name="pi" unicode="&#x3c0;" horiz-adv-x="624" 
d="M386 429l-232.001 0.00195312v-422c0 -4.66699 -2.33301 -7 -7 -7s-7 2.33301 -7 7v422h-58c-4.66699 0 -7 2.33301 -7 7s2.33301 7 7 7h397c4.66699 0 7 -2.33301 7 -7s-2.33301 -7 -7 -7h-79v-272c0 -34 2.83301 -61 8.5 -81s13.167 -35 22.5 -45
s19.666 -16.333 30.999 -19s23 -4 35 -4c10 0 18.667 2 26 6s12.333 7 15 9c1.33301 1.33301 3 2 5 2c4 0 6 -2.33301 6 -7c0 -2 -1 -4 -3 -6c-3.33301 -2.66699 -9.33301 -6.33398 -18 -11.001s-19 -7 -31 -7c-14 0 -27.667 1.66699 -41 5s-25.166 10.666 -35.499 21.999
s-18.666 27.833 -24.999 49.5s-9.5 50.5 -9.5 86.5v272z" />
    <glyph glyph-name="endash" unicode="&#x2013;" horiz-adv-x="527" 
d="M112 218c-4.66699 0 -7 2.33301 -7 7s2.33301 7 7 7h303c4.66699 0 7 -2.33301 7 -7s-2.33301 -7 -7 -7h-303z" />
    <glyph glyph-name="emdash" unicode="&#x2014;" horiz-adv-x="647" 
d="M112 218c-4.66699 0 -7 2.33301 -7 7s2.33301 7 7 7h423c4.66699 0 7 -2.33301 7 -7s-2.33301 -7 -7 -7h-423z" />
    <glyph glyph-name="quoteleft" unicode="&#x2018;" horiz-adv-x="206" 
d="M75 632c0 4.66699 2.33301 7 7 7s7 -2.33301 7 -7v-4c0 -27.333 3.33301 -53.166 10 -77.499s16.667 -42.5 30 -54.5c1.33301 -1.33301 2 -3 2 -5c0 -4.66699 -2.33301 -7 -7 -7c-2 0 -3.66699 0.666992 -5 2c-8.66699 8.66699 -15.834 18.667 -21.501 30
s-10.167 23.166 -13.5 35.499s-5.66602 25 -6.99902 38s-2 25.833 -2 38.5v4z" />
    <glyph glyph-name="quoteright" unicode="&#x2019;" horiz-adv-x="206" 
d="M131 628c0 -25.333 -3.16699 -50.999 -9.5 -76.999s-17.833 -47.667 -34.5 -65c-1.33301 -1.33301 -3 -2 -5 -2c-4.66699 0 -7 2.33301 -7 7c0 2 0.666992 3.66699 2 5c13.333 12 23.333 30.167 30 54.5s10 50.166 10 77.499v4c0 4.66699 2.33301 7 7 7s7 -2.33301 7 -7
v-4z" />
    <glyph glyph-name="quotesinglbase" unicode="&#x201a;" horiz-adv-x="206" 
d="M131 17c0 -25.333 -3.16699 -50.999 -9.5 -76.999s-17.833 -47.667 -34.5 -65c-1.33301 -1.33301 -3.33301 -2 -6 -2c-4 0 -6 2.33301 -6 7c0 2 0.666992 3.66699 2 5c13.333 12 23.333 30.167 30 54.5s10 50.166 10 77.499v4c0 4.66699 2.33301 7 7 7s7 -2.33301 7 -7
v-4z" />
    <glyph glyph-name="quotedblleft" unicode="&#x201c;" horiz-adv-x="320" 
d="M75 632c0 4.66699 2.33301 7 7 7s7 -2.33301 7 -7v-4c0 -27.333 3.33301 -53.166 10 -77.499s16.667 -42.5 30 -54.5c1.33301 -1.33301 2 -3 2 -5c0 -4.66699 -2.33301 -7 -7 -7c-2 0 -3.66699 0.666992 -5 2c-8.66699 8.66699 -15.834 18.667 -21.501 30
s-10.167 23.166 -13.5 35.499s-5.66602 25 -6.99902 38s-2 25.833 -2 38.5v4zM189 632c0 4.66699 2.33301 7.00098 7 7.00098s7 -2.33301 7 -7v-4c0 -27.333 3.33301 -52.833 10 -76.5s16.667 -42.167 30 -55.5c1.33301 -1.33301 2 -3 2 -5c0 -4.66699 -2.33301 -7 -7 -7
c-2 0 -3.66699 0.666992 -5 2c-8.66699 8.66699 -15.834 18.667 -21.501 30s-10.167 23.166 -13.5 35.499s-5.66602 25 -6.99902 38s-2 25.833 -2 38.5v4z" />
    <glyph glyph-name="quotedblright" unicode="&#x201d;" horiz-adv-x="320" 
d="M245 628c0 -25.333 -3.16699 -50.999 -9.5 -76.999s-17.833 -47.667 -34.5 -65c-1.33301 -1.33301 -3 -2 -5 -2c-4.66699 0 -7 2.33301 -7 7c0 2 0.666992 3.66699 2 5c13.333 12 23.333 30.167 30 54.5s10 50.166 10 77.499v4c0 4.66699 2.33301 7 7 7s7 -2.33301 7 -7
v-4zM131 628.001c0 -25.333 -3.16699 -50.999 -9.5 -76.999s-17.833 -47.667 -34.5 -65c-1.33301 -1.33301 -3 -2 -5 -2c-4.66699 0 -7 2.33301 -7 7c0 2 0.666992 3.66699 2 5c13.333 12 23.333 30.167 30 54.5s10 50.166 10 77.499v4c0 4.66699 2.33301 7 7 7
s7 -2.33301 7 -7v-4z" />
    <glyph glyph-name="quotedblbase" unicode="&#x201e;" horiz-adv-x="320" 
d="M245 17c0 -25.333 -3.16699 -50.999 -9.5 -76.999s-17.833 -47.667 -34.5 -65c-1.33301 -1.33301 -3 -2 -5 -2c-4.66699 0 -7 2.33301 -7 7c0 2 0.666992 3.66699 2 5c13.333 12 23.333 30.167 30 54.5s10 50.166 10 77.499v4c0 4.66699 2.33301 7 7 7s7 -2.33301 7 -7
v-4zM131 17.001c0 -25.333 -3.16699 -50.999 -9.5 -76.999s-17.833 -47.667 -34.5 -65c-1.33301 -1.33301 -3 -2 -5 -2c-4.66699 0 -7 2.33301 -7 7c0 2 0.666992 3.66699 2 5c13.333 12 23.333 30.167 30 54.5s10 50.166 10 77.499v4c0 4.66699 2.33301 7 7 7
s7 -2.33301 7 -7v-4z" />
    <glyph glyph-name="dagger" unicode="&#x2020;" horiz-adv-x="546" 
d="M266 429h-184c-4.66699 0 -7 2.33301 -7 7s2.33301 7 7 7h184v211c0 4.66699 2.33301 7 7 7s7 -2.33301 7 -7v-211h184c4.66699 0 7 -2.33301 7 -7s-2.33301 -7 -7 -7h-184v-492c0 -4.66699 -2.33301 -7 -7 -7s-7 2.33301 -7 7v492z" />
    <glyph glyph-name="daggerdbl" unicode="&#x2021;" horiz-adv-x="547" 
d="M266 308h-184c-4.66699 0 -7 2.33301 -7 7s2.33301 7 7 7h184v107h-184c-4.66699 0 -7 2.33301 -7 7s2.33301 7 7 7h184v211c0 4.66699 2.33301 7 7 7s7 -2.33301 7 -7v-211h184c4.66699 0 7 -2.33301 7 -7s-2.33301 -7 -7 -7h-184v-107h185c4.66699 0 7 -2.33301 7 -7
s-2.33301 -7 -7 -7h-185v-371c0 -4.66699 -2.33301 -7 -7 -7s-7 2.33301 -7 7v371z" />
    <glyph glyph-name="bullet" unicode="&#x2022;" horiz-adv-x="219" 
d="M110 219c-9.33301 0 -17.5 3.33301 -24.5 10s-10.5 14.667 -10.5 24s3.5 17.5 10.5 24.5s15.167 10.5 24.5 10.5s17.333 -3.5 24 -10.5s10 -15.167 10 -24.5s-3.33301 -17.333 -10 -24s-14.667 -10 -24 -10z" />
    <glyph glyph-name="ellipsis" unicode="&#x2026;" horiz-adv-x="324" 
d="M75 37c0 4.66699 2.33301 7 7 7s7 -2.33301 7 -7v-36c0 -4.66699 -2.33301 -7 -7 -7s-7 2.33301 -7 7v36zM155 37c0 4.66699 2.33301 7 7 7s7 -2.33301 7 -7v-36c0 -4.66699 -2.33301 -7 -7 -7s-7 2.33301 -7 7v36zM235 37c0 4.66699 2.33301 7 7 7s7 -2.33301 7 -7v-36
c0 -4.66699 -2.33301 -7 -7 -7s-7 2.33301 -7 7v36z" />
    <glyph glyph-name="perthousand" unicode="&#x2030;" horiz-adv-x="1016" 
d="M572 642c0.666992 2 2.66699 3.00195 6 3.00195c4.66699 0 7 -2 7 -6c0 -0.666992 -0.666992 -2.33398 -2 -5.00098l-436 -632c-1.33301 -1.33301 -3 -2 -5 -2c-4.66699 0 -7 2 -7 6c0 1.33301 0.333008 2.66602 1 3.99902zM166 301.002
c-36 0 -64.001 14.833 -84.001 44.5s-30 71.167 -30 124.5c0 52 10.333 93.667 31 125s48.334 47 83.001 47c16.667 0 32 -4.16699 46 -12.5s26 -20 36 -35s17.833 -33 23.5 -54s8.5 -44.5 8.5 -70.5c0 -53.333 -10 -94.833 -30 -124.5s-48 -44.5 -84 -44.5z
M165.999 315.002c31.333 0 55.833 13.833 73.5 41.5s26.5 65.5 26.5 113.5c0 20 -2 39.333 -6 58s-10 35.5 -18 50.5s-18.333 27 -31 36s-27.667 13.5 -45 13.5c-30.667 0 -55 -14.333 -73 -43s-27 -67 -27 -115s8.83301 -85.833 26.5 -113.5s42.167 -41.5 73.5 -41.5z
M535.999 -2.99805c-36 0 -64.001 14.833 -84.001 44.5s-30 71.167 -30 124.5c0 52 10.333 93.667 31 125s48.334 47 83.001 47c16.667 0 32 -4.16699 46 -12.5s26 -20 36 -35s17.833 -33 23.5 -54s8.5 -44.5 8.5 -70.5c0 -53.333 -10 -94.833 -30 -124.5
s-48 -44.5 -84 -44.5zM535.998 11.002c31.333 0 55.833 13.833 73.5 41.5s26.5 65.5 26.5 113.5c0 20 -2 39.333 -6 58s-10 35.5 -18 50.5s-18.333 27 -31 36s-27.667 13.5 -45 13.5c-30.667 0 -55 -14.333 -73 -43s-27 -67 -27 -115s8.83301 -85.833 26.5 -113.5
s42.167 -41.5 73.5 -41.5zM836.998 -2.99805c-36 0 -64.001 14.833 -84.001 44.5s-30 71.167 -30 124.5c0 52 10.333 93.667 31 125s48.334 47 83.001 47c16.667 0 32 -4.16699 46 -12.5s26 -20 36 -35s17.833 -33 23.5 -54s8.5 -44.5 8.5 -70.5
c0 -53.333 -10 -94.833 -30 -124.5s-48 -44.5 -84 -44.5zM836.997 11.002c31.333 0 55.833 13.833 73.5 41.5s26.5 65.5 26.5 113.5c0 20 -2 39.333 -6 58s-10 35.5 -18 50.5s-18.333 27 -31 36s-27.667 13.5 -45 13.5c-30.667 0 -55 -14.333 -73 -43s-27 -67 -27 -115
s8.83301 -85.833 26.5 -113.5s42.167 -41.5 73.5 -41.5z" />
    <glyph glyph-name="guilsinglleft" unicode="&#x2039;" horiz-adv-x="269" 
d="M78 213c-1.33301 2.66699 -2 4.66602 -2 5.99902c0 2 0.666992 4 2 6l104 152c0.666992 2 2.66699 3 6 3c4 0 6 -2 6 -6c0 -2 -0.333008 -3.66699 -1 -5l-104 -150l104 -158c0.666992 -1.33301 1 -2.66602 1 -3.99902c0 -4 -2 -6 -6 -6c-3.33301 0 -5.33301 1 -6 3z" />
    <glyph glyph-name="guilsinglright" unicode="&#x203a;" horiz-adv-x="270" 
d="M181 219l-104 150.001c-0.666992 1.33301 -1 3 -1 5c0 4 2 6 6 6c2.66699 0 4.66699 -1 6 -3l104 -152c1.33301 -2 2 -4 2 -6c0 -1.33301 -0.666992 -3.33301 -2 -6l-104 -159c-1.33301 -2 -3.33301 -3 -6 -3c-4 0 -6 2 -6 6c0 1.33301 0.333008 2.66602 1 3.99902z" />
    <glyph glyph-name="fraction" unicode="&#x2044;" horiz-adv-x="196" 
d="M324 657c0.666992 2 2.66699 3 6 3c2 0 3.5 -0.666992 4.5 -2s1.5 -2.66602 1.5 -3.99902c0 -2 -0.333008 -3.33301 -1 -4l-437 -648c-1.33301 -2 -3.33301 -3 -6 -3c-4 0 -6 2 -6 6c0 1.33301 0.333008 2.66602 1 3.99902z" />
    <glyph glyph-name="Euro" unicode="&#x20ac;" horiz-adv-x="575" 
d="M148 266c4 -38 11.6641 -72.8311 22.9971 -104.498s25.833 -58.834 43.5 -81.501s37.834 -40.334 60.501 -53.001s47.334 -19 74.001 -19c26 0 50.167 3.5 72.5 10.5s45.166 18.833 68.499 35.5c0.666992 0.666992 2 1 4 1c4 0 6 -2.33301 6 -7
c0 -2 -0.666992 -3.66699 -2 -5c-24.667 -17.333 -48.667 -29.833 -72 -37.5s-49 -11.5 -77 -11.5c-28.667 0 -55.167 6.66699 -79.5 20s-45.833 32 -64.5 56s-34 52.667 -46 86s-20 70 -24 110h-53c-4.66699 0 -7 2.33301 -7 7s2.33301 7 7 7h52
c-0.666992 6 -1.16699 12.167 -1.5 18.5s-0.5 12.833 -0.5 19.5c0 18 1 35 3 51h-53c-4.66699 0 -7 2.33301 -7 7s2.33301 7 7 7h54c4.66699 38 13.667 73 27 105s29.666 59.667 48.999 83s41.5 41.5 66.5 54.5s51.5 19.5 79.5 19.5c30 0 54.833 -3.83301 74.5 -11.5
s35.5 -15.167 47.5 -22.5c2 -1.33301 3 -3.33301 3 -6c0 -4.66699 -2.33301 -7 -7 -7c-1.33301 0 -2.66602 0.5 -3.99902 1.5s-2.66602 1.83301 -3.99902 2.5c-10.667 6 -24.667 12.333 -42 19s-40 10 -68 10c-26.667 0 -51.5 -6.16699 -74.5 -18.5s-43.667 -29.5 -62 -51.5
s-33.666 -48.167 -45.999 -78.5s-20.833 -63.5 -25.5 -99.5h265c4.66699 0 7 -2.33301 7 -7s-2.33301 -7 -7 -7h-267c-2 -16 -3 -33 -3 -51c0 -6.66699 0.166992 -13.167 0.5 -19.5s0.833008 -12.5 1.5 -18.5h268c4.66699 0 7 -2.33301 7 -7s-2.33301 -7 -7 -7h-267z" />
    <glyph glyph-name="trademark" unicode="&#x2122;" horiz-adv-x="743" 
d="M181 725h-99c-4.66699 0 -7 2 -7 6c0 4.66699 2.33301 7 7 7h215c4.66699 0 7 -2.33301 7 -7c0 -4 -2.33301 -6 -7 -6h-102v-315c0 -4.66699 -2.33301 -7 -7 -7s-7 2.33301 -7 7v315zM620 725l-8.99902 0.000976562c-2 -4.66699 -6.66699 -19 -14 -43l-30.5 -95
l-56.5 -179c-1.33301 -3.33301 -3.33301 -5 -6 -5h-16c-2.66699 0 -4.66699 1.66699 -6 5l-97 317h-9l-36 -316c0 -4 -2.33301 -6 -7 -6s-7 2.66699 -7 8l37 321c0 4 2.33301 6 7 6h20c2.66699 0 4.66699 -1.66699 6 -5l97 -316h6l100 316
c1.33301 3.33301 3.66602 5 6.99902 5h20c4 0 6 -2 6 -6l36 -321c0 -4.66699 -1.66699 -7.33398 -5 -8.00098c-5.33301 0 -8 2 -8 6z" />
    <glyph glyph-name="uni2126" unicode="&#x2126;" horiz-adv-x="774" 
d="M463 0c-4.66699 0 -6.99902 2.33105 -6.99902 6.99805s2 7 6 7c2 0 7.83301 2.66699 17.5 8s21 13.333 34 24s26.833 24 41.5 40s28.167 34.833 40.5 56.5s22.5 46.167 30.5 73.5s12 57.666 12 90.999c0 44.667 -6.16699 85.667 -18.5 123s-29.666 69.666 -51.999 96.999
s-48.833 48.666 -79.5 63.999s-64.334 23 -101.001 23s-70.334 -7.66699 -101.001 -23s-57.167 -36.666 -79.5 -63.999s-39.833 -59.666 -52.5 -96.999s-19 -78.333 -19 -123c0 -31.333 4 -60.333 12 -87s18 -51 30 -73s25.167 -41.167 39.5 -57.5s28 -30.166 41 -41.499
s24.5 -19.833 34.5 -25.5s16.333 -8.5 19 -8.5c4 0 6 -2.33301 6 -7s-2 -7 -6 -7h-199c-4.66699 0 -7 2.33301 -7 7s2.33301 7 7 7h168c-14 8.66699 -30.167 21.667 -48.5 39s-35.666 38.333 -51.999 63s-30.166 53 -41.499 85s-17 67.333 -17 106
c0 46.667 6.66699 89.5 20 128.5s31.833 72.833 55.5 101.5s51.667 51 84 67s67.833 24 106.5 24s74.167 -8 106.5 -24s60.166 -38.333 83.499 -67s41.666 -62.5 54.999 -101.5s20 -81.833 20 -128.5c0 -40.667 -5.83301 -77.167 -17.5 -109.5
s-25.834 -60.666 -42.501 -84.999s-34.167 -44.666 -52.5 -60.999s-34.166 -28.833 -47.499 -37.5h170c4.66699 0 7 -2.33301 7 -7s-2.33301 -7 -7 -7h-199z" />
    <glyph glyph-name="partialdiff" unicode="&#x2202;" horiz-adv-x="478" 
d="M408 366c-2 52 -9.50098 97.168 -22.501 135.501s-29 69.833 -48 94.5s-39.5 43 -61.5 55s-43 18 -63 18c-28.667 0 -52.5 -2.33301 -71.5 -7s-33.167 -9 -42.5 -13c-6 -2.66699 -10.333 -4.83398 -13 -6.50098s-5 -2.5 -7 -2.5c-4.66699 0 -7 2 -7 6
c0 2.66699 1.66699 5 5 7l8 5c6 3.33301 14.667 6.83301 26 10.5s25.5 7 42.5 10s36.833 4.5 59.5 4.5c22 0 45.333 -6.5 70 -19.5s47.334 -33.167 68.001 -60.5s37.834 -62.5 51.501 -105.5s20.5 -94.5 20.5 -154.5c0 -113.333 -16.167 -199.833 -48.5 -259.5
s-78.833 -89.5 -139.5 -89.5c-39.333 0 -70.833 8.66699 -94.5 26s-41.834 38.5 -54.501 63.5s-21 51.833 -25 80.5s-6 54.667 -6 78c0 24 3.16699 47.833 9.5 71.5s16.833 45.167 31.5 64.5s33.667 35 57 47s52 18 86 18s65.333 -8 94 -24s53.667 -33.667 75 -53z
M407.999 347.001c-10 10 -21.1689 19.833 -33.502 29.5s-25.833 18.5 -40.5 26.5s-30 14.333 -46 19s-32.333 7 -49 7c-31.333 0 -57.833 -5.33301 -79.5 -16s-39.167 -24.834 -52.5 -42.501s-23 -37.667 -29 -60s-9 -45.166 -9 -68.499
c0 -26.667 2.16699 -53.834 6.5 -81.501s12.5 -52.834 24.5 -75.501s28.833 -41.167 50.5 -55.5s49.834 -21.5 84.501 -21.5c56.667 0 99.834 28.5 129.501 85.5s44.5 140.167 44.5 249.5c0 0.666992 -0.166992 1.33398 -0.5 2.00098s-0.5 1.33398 -0.5 2.00098z" />
    <glyph glyph-name="uni2206" unicode="&#x2206;" horiz-adv-x="607" 
d="M91 0c-4 0 -6 1.99902 -6 5.99902c0 2.66699 0.666992 5.33398 2 8.00098l212 519c1.33301 3.33301 3.33301 5 6 5s4.66699 -1.66699 6 -5l210 -521c0.666992 -1.33301 1 -3 1 -5c0 -4.66699 -2 -7 -6 -7h-425zM305 511.999l-203 -498h403z" />
    <glyph glyph-name="product" unicode="&#x220f;" horiz-adv-x="718" 
d="M565 -241c0 -4.66699 -2.33301 -7 -7 -7s-7 2.33301 -7 7v866h-384v-866c0 -4.66699 -2.33301 -7 -7 -7s-7 2.33301 -7 7v866h-71c-4.66699 0 -7 2.33301 -7 7s2.33301 7 7 7h551c4.66699 0 7 -2.33301 7 -7s-2.33301 -7 -7 -7h-68v-866z" />
    <glyph glyph-name="summation" unicode="&#x2211;" horiz-adv-x="490" 
d="M82 -248c-4.66699 0 -7 2.00293 -7 6.00293c0 1.33301 0.333008 2.66602 1 3.99902l216 432l-216 419c-0.666992 1.33301 -1 2.66602 -1 3.99902c0 4 2.33301 6 7 6h331c4.66699 0 7 -2.33301 7 -7s-2.33301 -7 -7 -7h-318l211 -409
c1.33301 -2.66699 2 -4.33398 2 -5.00098c0 -1.33301 -0.666992 -3.33301 -2 -6l-212 -423h319c4.66699 0 7 -2.66699 7 -8c0 -4 -2.33301 -6 -7 -6h-331z" />
    <glyph glyph-name="radical" unicode="&#x221a;" horiz-adv-x="685" 
d="M186 415l-97 -34c-2.66699 -1.33301 -5.33398 -2 -8.00098 -2c-4 0 -6 2 -6 6s1.33301 6.33301 4 7l103 36c4 1.33301 7 2 9 2c2.66699 0 4.66699 -1.33301 6 -4l158 -400l242 644c0.666992 2.66699 3 4 7 4s6 -2 6 -6c0 -2 -0.333008 -4 -1 -6l-247 -657
c-1.33301 -3.33301 -3.66602 -5 -6.99902 -5c-2.66699 0 -4.66699 1.66699 -6 5z" />
    <glyph glyph-name="infinity" unicode="&#x221e;" horiz-adv-x="821" 
d="M414 248c-5.33301 -6 -14.3301 -15.3271 -26.9971 -27.9941s-27.5 -25.167 -44.5 -37.5s-35.667 -23.166 -56 -32.499s-40.833 -14 -61.5 -14c-16.667 0 -32.167 3.16699 -46.5 9.5s-27 15.166 -38 26.499s-19.667 24.333 -26 39s-9.5 30.667 -9.5 48s3 33.666 9 48.999
s14.5 28.5 25.5 39.5s23.667 19.667 38 26s30.166 9.5 47.499 9.5c21.333 0 42.166 -4.83301 62.499 -14.5s39 -21 56 -34s31.667 -25.667 44 -38s21.166 -21.5 26.499 -27.5c4.66699 5.33301 13.334 14.166 26.001 26.499s27.167 24.666 43.5 36.999s34 23.166 53 32.499
s37.5 14 55.5 14c17.333 0 33.666 -3 48.999 -9s28.5 -14.5 39.5 -25.5s19.667 -23.833 26 -38.5s9.5 -30.334 9.5 -47.001c0 -17.333 -3.16699 -33.333 -9.5 -48s-15 -27.334 -26 -38.001s-24 -19 -39 -25s-31.5 -9 -49.5 -9c-20 0 -39.5 4.5 -58.5 13.5
s-36.5 19.5 -52.5 31.5s-29.833 24.167 -41.5 36.5zM405.003 259.006c-4 4.66699 -11.999 13 -23.999 25s-26.333 24.333 -43 37s-34.667 23.834 -54 33.501s-39 14.5 -59 14.5c-30.667 0 -56 -10.333 -76 -31s-30 -47 -30 -79c0 -15.333 2.83301 -29.666 8.5 -42.999
s13.167 -24.833 22.5 -34.5s20.5 -17.334 33.5 -23.001s26.833 -8.5 41.5 -8.5c19.333 0 38.666 4.66699 57.999 14s37.333 20.166 54 32.499s31 24.5 43 36.5s20.333 20.667 25 26zM423.004 258.006c4.66699 -5.33301 12.501 -13.832 23.501 -25.499
s24.167 -23.334 39.5 -35.001s32.166 -22 50.499 -31s36.833 -13.5 55.5 -13.5c32 0 58.333 9.83301 79 29.5s31 45.167 31 76.5c0 30.667 -10.333 56 -31 76s-47 30 -79 30c-16.667 0 -34 -4.66699 -52 -14s-35 -20.166 -51 -32.499s-30 -24.333 -42 -36
s-20 -19.834 -24 -24.501z" />
    <glyph glyph-name="integral" unicode="&#x222b;" horiz-adv-x="597" 
d="M292 602c0 36 4.66406 65.835 13.9971 89.502s21 42.5 35 56.5s28.833 23.833 44.5 29.5s29.834 8.5 42.501 8.5c14.667 0 27.667 -1.33301 39 -4s20.833 -5.83398 28.5 -9.50098s13.5 -7.16699 17.5 -10.5l6 -4c2 -2 3 -4 3 -6c0 -4 -2 -6 -6 -6
c-2.66699 0 -4.66699 0.666992 -6 2c-2 1.33301 -9.83301 5.66602 -23.5 12.999s-33.167 11 -58.5 11c-11.333 0 -24.166 -2.5 -38.499 -7.5s-27.666 -14 -39.999 -27s-22.666 -30.5 -30.999 -52.5s-12.5 -49.667 -12.5 -83v-541c0 -36 -4.66699 -65.833 -14 -89.5
s-21 -42.5 -35 -56.5s-29 -23.833 -45 -29.5s-30.333 -8.5 -43 -8.5c-14.667 0 -27.667 1.33301 -39 4s-20.833 5.83398 -28.5 9.50098s-13.5 7.16699 -17.5 10.5l-6 4c-2 2 -3 4 -3 6c0 4.66699 2.33301 7 7 7c2 0 3.66699 -0.666992 5 -2
c0.666992 -0.666992 3 -2.33398 7 -5.00098s9.5 -5.5 16.5 -8.5s15.333 -5.66699 25 -8s20.834 -3.5 33.501 -3.5c11.333 0 24.166 2.5 38.499 7.5s27.666 14 39.999 27s22.833 30.5 31.5 52.5s13 49.667 13 83v541z" />
    <glyph glyph-name="approxequal" unicode="&#x2248;" horiz-adv-x="600" 
d="M480 303c-0.666992 -0.666992 -3.16699 -3 -7.5 -7s-9.83301 -8.16699 -16.5 -12.5s-14.667 -8.16602 -24 -11.499s-19.333 -5 -30 -5c-20 0 -38.5 3 -55.5 9s-33.5 12.5 -49.5 19.5s-32.167 13.5 -48.5 19.5s-33.5 9 -51.5 9c-7.33301 0 -14.333 -1 -21 -3
s-12.834 -4.5 -18.501 -7.5s-10.5 -6 -14.5 -9s-7 -5.5 -9 -7.5c-3.33301 -3.33301 -6.66602 -5 -9.99902 -5c-4 0 -6 2 -6 6c0 2 1 4 3 6l6 5c4 4 9.5 8.16699 16.5 12.5s15 8.16602 24 11.499s18.833 5 29.5 5c18.667 0 36.667 -3 54 -9s34.166 -12.5 50.499 -19.5
s32.833 -13.5 49.5 -19.5s33.667 -9 51 -9c9.33301 0 18 1.5 26 4.5s15 6.5 21 10.5s10.833 7.66699 14.5 11s5.83398 5.33301 6.50098 6c1.33301 1.33301 3 2 5 2c4.66699 0 7 -2.33301 7 -7c0 -2 -0.666992 -3.66699 -2 -5zM197 200c-7.33301 0 -14.332 -1 -20.999 -3
s-12.834 -4.5 -18.501 -7.5s-10.5 -6 -14.5 -9s-7 -5.5 -9 -7.5c-3.33301 -3.33301 -6.33301 -5 -9 -5c-4.66699 0 -7 2 -7 6c0 2 1 4 3 6l6 5c4 4 9.5 8.16699 16.5 12.5s15 8.16602 24 11.499s18.833 5 29.5 5c18.667 0 36.667 -3 54 -9s34.166 -12.5 50.499 -19.5
s32.833 -13.5 49.5 -19.5s33.667 -9 51 -9c9.33301 0 18 1.5 26 4.5s15 6.5 21 10.5s10.833 7.66699 14.5 11s5.83398 5.33301 6.50098 6c1.33301 1.33301 3 2 5 2c4.66699 0 7 -2.33301 7 -7c0 -2 -0.666992 -3.66699 -2 -5c-0.666992 -0.666992 -3.16699 -3 -7.5 -7
s-9.83301 -8.16699 -16.5 -12.5s-14.667 -8.16602 -24 -11.499s-19.333 -5 -30 -5c-20 0 -38.5 3 -55.5 9s-33.5 12.5 -49.5 19.5s-32.167 13.5 -48.5 19.5s-33.5 9 -51.5 9z" />
    <glyph glyph-name="notequal" unicode="&#x2260;" horiz-adv-x="600" 
d="M358 291h133c4.66699 0 7 -2.33301 7 -7s-2.33301 -7 -7 -7h-142l-60 -94h202c4.66699 0 7 -2.33301 7 -7s-2.33301 -7 -7 -7h-211l-81 -128c-1.33301 -2 -3.33301 -3 -6 -3c-4.66699 0 -7 2 -7 6c0 1.33301 0.333008 2.66602 1 3.99902l77 121h-155
c-4.66699 0 -7 2.33301 -7 7s2.33301 7 7 7h164l60 94h-224c-4.66699 0 -7 2.33301 -7 7s2.33301 7 7 7h233l71 112c0.666992 2 2.66699 3 6 3c2 0 3.5 -0.666992 4.5 -2s1.5 -2.66602 1.5 -3.99902c0 -2 -0.333008 -3.66699 -1 -5z" />
    <glyph glyph-name="lessequal" unicode="&#x2264;" horiz-adv-x="600" 
d="M108 0c-4.66699 0 -7 2.33301 -7 7s2.33301 7 7 7h382c4.66699 0 7 -2.33301 7 -7s-2.33301 -7 -7 -7h-382zM104 291c-2 0.666992 -2.99805 2.66602 -2.99805 5.99902c0 2.66699 1 4.66699 3 6l384 195c1.33301 0.666992 2.66602 1 3.99902 1s2.66602 -0.5 3.99902 -1.5
s2 -2.5 2 -4.5c0 -3.33301 -1.33301 -5.66602 -4 -6.99902l-372 -189l372 -194c2.66699 -1.33301 4 -3.33301 4 -6c0 -4.66699 -2.33301 -7 -7 -7c-1.33301 0 -3.33301 0.666992 -6 2z" />
    <glyph glyph-name="greaterequal" unicode="&#x2265;" horiz-adv-x="600" 
d="M109 0c-4.66699 0 -7 2.33301 -7 7s2.33301 7 7 7h382c4.66699 0 7 -2.33301 7 -7s-2.33301 -7 -7 -7h-382zM114 92c-2.66699 -1.33301 -4.66504 -1.99902 -5.99805 -1.99902c-4.66699 0 -7 2.33301 -7 7c0 2.66699 1.33301 4.66699 4 6l372 194l-372 189
c-2.66699 1.33301 -4 3.66602 -4 6.99902c0 2 0.666992 3.5 2 4.5s2.66602 1.5 3.99902 1.5s2.66602 -0.333008 3.99902 -1l384 -195c2 -1.33301 3 -3.33301 3 -6c0 -3.33301 -1 -5.33301 -3 -6z" />
    <glyph glyph-name="lozenge" unicode="&#x25ca;" horiz-adv-x="623" 
d="M106 312c-0.666992 1.33301 -1 2.66699 -1 4s0.333008 2.66602 1 3.99902l194 298c0.666992 2 2.66699 3 6 3c2.66699 0 4.66699 -1 6 -3l205 -298c0.666992 -0.666992 1 -2 1 -4c0 -1.33301 -0.333008 -2.66602 -1 -3.99902l-205 -309c-1.33301 -2 -3.33301 -3 -6 -3
c-3.33301 0 -5.33301 1 -6 3zM503 316.001l-197 285l-186 -285l186 -296z" />
    <glyph glyph-name="fi" unicode="&#xfb01;" horiz-adv-x="503" 
d="M404 436c0 4.66699 2.33301 7 7 7s7 -2.33301 7 -7v-429c0 -4.66699 -2.33301 -7 -7 -7s-7 2.33301 -7 7v429zM103 429l-81 -0.00195312c-4.66699 0 -7 2.33301 -7 7s2.33301 7 7 7h81c0.666992 54 8.16699 96.833 22.5 128.5s31.333 55.834 51 72.501
s39.667 27.334 60 32.001s37.166 7 50.499 7c28.667 0 52.334 -3.16699 71.001 -9.5s37.667 -16.5 57 -30.5c2 -1.33301 3 -3 3 -5v-38c0 -4.66699 -2.33301 -7 -7 -7s-7 2.33301 -7 7v34c-17.333 12 -34.833 20.833 -52.5 26.5s-39.167 8.5 -64.5 8.5
c-14.667 0 -31.667 -2.5 -51 -7.5s-37.833 -15.5 -55.5 -31.5s-32.5 -38.833 -44.5 -68.5s-18.333 -69.167 -19 -118.5h157c4.66699 0 7 -2.33301 7 -7s-2.33301 -7 -7 -7h-157v-422c0 -4.66699 -2.33301 -7 -7 -7s-7 2.33301 -7 7v422z" />
    <glyph glyph-name="fl" unicode="&#xfb02;" horiz-adv-x="534" 
d="M404 634c-17.333 12 -34.834 20.8311 -52.501 26.498s-39.167 8.5 -64.5 8.5c-14.667 0 -31.667 -2.5 -51 -7.5s-37.833 -15.5 -55.5 -31.5s-32.5 -38.833 -44.5 -68.5s-18.333 -69.167 -19 -118.5h157c4.66699 0 7 -2.33301 7 -7s-2.33301 -7 -7 -7h-157v-422
c0 -4.66699 -2.33301 -7 -7 -7s-7 2.33301 -7 7v422h-81c-4.66699 0 -7 2.33301 -7 7s2.33301 7 7 7h81c0.666992 54 8.16699 96.833 22.5 128.5s31.333 55.834 51 72.501s39.667 27.334 60 32.001s37.166 7 50.499 7c28.667 0 52.334 -3.16699 71.001 -9.5
s37.667 -16.5 57 -30.5c2 -1.33301 3 -3 3 -5v-483c0 -28 1.33301 -51 4 -69s7.16699 -32.333 13.5 -43s14.833 -18.167 25.5 -22.5s24.334 -6.5 41.001 -6.5c4.66699 0 7 -2.33301 7 -7s-2.33301 -7 -7 -7c-18.667 0 -34.334 2.5 -47.001 7.5s-22.667 13.5 -30 25.5
s-12.666 27.833 -15.999 47.5s-5 44.5 -5 74.5v479z" />
    <glyph glyph-name=".null" horiz-adv-x="0" 
 />
    <glyph glyph-name="nonmarkingreturn" horiz-adv-x="350" 
 />
    </font>
</defs>
</svg>
